<svg xmlns="http://www.w3.org/2000/svg" xmlns:xlink="http://www.w3.org/1999/xlink" width="1080" zoomAndPan="magnify" viewBox="0 0 810 1012.49997" height="1350" preserveAspectRatio="xMidYMid meet" version="1.0"><defs><g/><clipPath id="c3b4049aae"><path d="M 281.722656 305.902344 L 528.351562 305.902344 L 528.351562 587.761719 L 281.722656 587.761719 Z M 281.722656 305.902344 " clip-rule="nonzero"/></clipPath></defs><g clip-path="url(#c3b4049aae)"><path fill="#1c454c" d="M 466.621094 327.621094 C 436.488281 327.03125 413.007812 311.378906 404.984375 305.902344 C 396.964844 311.378906 373.484375 327.03125 343.351562 327.621094 C 310.285156 328.402344 289.542969 320.378906 281.714844 315.097656 L 281.714844 422.710938 C 281.714844 490.804688 334.546875 567.699219 404.984375 587.65625 C 440.207031 577.679688 471.121094 553.417969 493.035156 523.285156 C 514.949219 493.152344 528.253906 456.757812 528.253906 422.710938 L 528.253906 315.097656 C 520.429688 320.378906 499.6875 328.402344 466.621094 327.621094 Z M 514.949219 422.710938 C 514.949219 453.039062 503.015625 486.890625 482.273438 515.457031 C 461.53125 544.023438 434.140625 564.570312 404.984375 573.960938 C 375.636719 564.765625 348.4375 544.023438 327.699219 515.652344 C 306.957031 487.28125 295.023438 453.039062 295.023438 422.710938 L 295.023438 335.054688 C 309.304688 339.164062 324.175781 341.121094 339.046875 340.925781 L 343.742188 340.925781 C 364.289062 340.335938 385.222656 333.683594 404.984375 321.554688 C 424.746094 333.683594 445.683594 340.335938 466.230469 340.730469 L 470.925781 340.730469 C 485.796875 340.925781 500.664062 338.96875 514.949219 334.859375 Z M 501.839844 351.6875 L 501.839844 422.710938 C 501.839844 450.496094 490.882812 481.410156 471.707031 507.628906 C 453.511719 532.480469 430.03125 550.871094 404.984375 559.875 C 379.941406 550.871094 356.460938 532.480469 338.265625 507.628906 C 319.089844 481.410156 308.132812 450.300781 308.132812 422.710938 L 308.132812 351.6875 C 318.304688 353.445312 328.675781 354.230469 339.046875 354.230469 L 343.9375 354.230469 C 365.460938 353.445312 386.203125 347.578125 404.984375 337.011719 C 423.574219 347.578125 444.511719 353.445312 466.035156 354.230469 L 470.925781 354.230469 C 481.296875 354.230469 491.664062 353.25 501.839844 351.6875 Z M 501.839844 351.6875 " fill-opacity="1" fill-rule="nonzero"/></g><g fill="#1c454c" fill-opacity="1"><g transform="translate(391.274437, 467.4168)"><g><path d="M 6.390625 -8.5 L 6.390625 -7.5625 L 2.0625 -7.5625 L 2.0625 -4.890625 L 6.109375 -4.890625 L 6.109375 -3.953125 L 2.0625 -3.953125 L 2.0625 -0.9375 L 6.609375 -0.9375 L 6.609375 0 L 1.0625 0 L 1.0625 -8.5 Z M 6.390625 -8.5 "/></g></g></g></svg>