<svg xmlns="http://www.w3.org/2000/svg" xmlns:xlink="http://www.w3.org/1999/xlink" width="200" zoomAndPan="magnify" viewBox="0 0 150 74.999997" height="100" preserveAspectRatio="xMidYMid meet" version="1.0"><defs><g/><clipPath id="54db0ba506"><path d="M 36.9375 0 L 102.9375 0 L 102.9375 75 L 36.9375 75 Z M 36.9375 0 " clip-rule="nonzero"/></clipPath></defs><g fill="#1c454c" fill-opacity="1"><g transform="translate(66.413083, 51.299995)"><g><path d="M 3.4375 -5.765625 C 4.269531 -5.765625 4.921875 -5.5 5.390625 -4.96875 C 5.859375 -4.445312 6.097656 -3.707031 6.109375 -2.75 L 6.109375 -2.515625 L 1.578125 -2.515625 C 1.617188 -1.992188 1.8125 -1.566406 2.15625 -1.234375 C 2.5 -0.898438 2.921875 -0.726562 3.421875 -0.71875 C 4.179688 -0.71875 4.773438 -1.003906 5.203125 -1.578125 L 5.90625 -1.015625 C 5.601562 -0.628906 5.253906 -0.335938 4.859375 -0.140625 C 4.460938 0.0429688 3.984375 0.140625 3.421875 0.140625 C 2.566406 0.140625 1.878906 -0.132812 1.359375 -0.6875 C 0.835938 -1.25 0.570312 -1.957031 0.5625 -2.8125 C 0.5625 -3.65625 0.828125 -4.351562 1.359375 -4.90625 C 1.890625 -5.457031 2.582031 -5.742188 3.4375 -5.765625 Z M 5.09375 -3.3125 C 5.070312 -3.800781 4.914062 -4.1875 4.625 -4.46875 C 4.332031 -4.75 3.921875 -4.890625 3.390625 -4.890625 C 2.910156 -4.890625 2.503906 -4.753906 2.171875 -4.484375 C 1.847656 -4.210938 1.648438 -3.820312 1.578125 -3.3125 Z M 5.09375 -3.3125 "/></g></g></g><g clip-path="url(#54db0ba506)"><path fill="#1c454c" d="M 86.152344 5.78125 C 78.132812 5.625 71.882812 1.457031 69.746094 0 C 67.613281 1.457031 61.363281 5.625 53.34375 5.78125 C 44.539062 5.988281 39.019531 3.855469 36.9375 2.449219 L 36.9375 31.09375 C 36.9375 49.21875 51 69.683594 69.746094 74.996094 C 79.121094 72.339844 87.351562 65.882812 93.183594 57.863281 C 99.015625 49.84375 102.558594 40.15625 102.558594 31.09375 L 102.558594 2.449219 C 100.476562 3.855469 94.953125 5.988281 86.152344 5.78125 Z M 99.015625 31.09375 C 99.015625 39.164062 95.839844 48.175781 90.320312 55.777344 C 84.800781 63.382812 77.507812 68.851562 69.746094 71.351562 C 61.933594 68.902344 54.695312 63.382812 49.175781 55.832031 C 43.65625 48.28125 40.476562 39.164062 40.476562 31.09375 L 40.476562 7.761719 C 44.28125 8.855469 48.238281 9.375 52.195312 9.324219 L 53.445312 9.324219 C 58.914062 9.167969 64.488281 7.394531 69.746094 4.167969 C 75.007812 7.394531 80.582031 9.167969 86.050781 9.269531 L 87.300781 9.269531 C 91.257812 9.324219 95.214844 8.800781 99.015625 7.707031 Z M 95.527344 12.1875 L 95.527344 31.09375 C 95.527344 38.488281 92.613281 46.71875 87.507812 53.695312 C 82.664062 60.308594 76.414062 65.207031 69.746094 67.601562 C 63.082031 65.207031 56.832031 60.308594 51.988281 53.695312 C 46.882812 46.71875 43.96875 38.4375 43.96875 31.09375 L 43.96875 12.1875 C 46.675781 12.65625 49.4375 12.863281 52.195312 12.863281 L 53.5 12.863281 C 59.226562 12.65625 64.746094 11.09375 69.746094 8.28125 C 74.695312 11.09375 80.269531 12.65625 85.996094 12.863281 L 87.300781 12.863281 C 90.058594 12.863281 92.820312 12.605469 95.527344 12.1875 Z M 95.527344 12.1875 " fill-opacity="1" fill-rule="nonzero"/></g></svg>