<svg xmlns="http://www.w3.org/2000/svg" xmlns:xlink="http://www.w3.org/1999/xlink" width="1080" zoomAndPan="magnify" viewBox="0 0 810 1012.49997" height="1350" preserveAspectRatio="xMidYMid meet" version="1.0"><defs><g/><clipPath id="3533db2a21"><path d="M 400 264 L 585 264 L 585 545 L 400 545 Z M 400 264 " clip-rule="nonzero"/></clipPath><clipPath id="ea1de47d6a"><path d="M 449.429688 592.386719 L 271.53125 390.453125 L 469.527344 216.023438 L 647.421875 417.957031 Z M 449.429688 592.386719 " clip-rule="nonzero"/></clipPath><clipPath id="0320015af9"><path d="M 449.429688 592.386719 L 271.53125 390.453125 L 469.527344 216.023438 L 647.421875 417.957031 Z M 449.429688 592.386719 " clip-rule="nonzero"/></clipPath><clipPath id="eecc3f466b"><path d="M 271.507812 381 L 469 381 L 469 592.367188 L 271.507812 592.367188 Z M 271.507812 381 " clip-rule="nonzero"/></clipPath><clipPath id="6a31eedae3"><path d="M 219 559.21875 L 354 559.21875 L 354 596 L 219 596 Z M 219 559.21875 " clip-rule="nonzero"/></clipPath><clipPath id="ff8ffb2e36"><path d="M 209.34375 572 L 455 572 L 455 617 L 209.34375 617 Z M 209.34375 572 " clip-rule="nonzero"/></clipPath><clipPath id="d0415576cd"><path d="M 381 577 L 533.183594 577 L 533.183594 614 L 381 614 Z M 381 577 " clip-rule="nonzero"/></clipPath><clipPath id="9280eff16a"><path d="M 47 0.519531 L 430 0.519531 L 430 59 L 47 59 Z M 47 0.519531 " clip-rule="nonzero"/></clipPath><clipPath id="b0e379103a"><rect x="0" width="383" y="0" height="59"/></clipPath><clipPath id="d16b77d651"><path d="M 0.246094 53 L 467.535156 53 L 467.535156 165.078125 L 0.246094 165.078125 Z M 0.246094 53 " clip-rule="nonzero"/></clipPath><clipPath id="8797bebe87"><rect x="0" width="468" y="0" height="113"/></clipPath><clipPath id="2fc2f9570a"><rect x="0" width="468" y="0" height="166"/></clipPath></defs><g clip-path="url(#3533db2a21)"><g clip-path="url(#ea1de47d6a)"><g clip-path="url(#0320015af9)"><path fill="#3e6a70" d="M 530.0625 321.160156 C 576.28125 380.304688 566.46875 465.269531 508.058594 510.960938 C 476.488281 535.652344 437.1875 543.796875 400.4375 536.777344 C 443.453125 551.183594 492.628906 544.429688 531.019531 514.394531 C 591.8125 466.84375 602.503906 379.058594 554.984375 318.300781 C 519.484375 272.894531 461.53125 255.433594 409.128906 269.292969 C 453.851562 264.78125 500.085938 282.839844 530.0625 321.160156 Z M 530.0625 321.160156 " fill-opacity="1" fill-rule="nonzero"/></g></g></g><g clip-path="url(#eecc3f466b)"><path fill="#5ba1a9" d="M 464.296875 450.078125 C 457.605469 430.957031 440.691406 414.835938 420.5625 412.5625 C 417.765625 412.242188 406.933594 410.371094 394.953125 414.632812 C 408.53125 408.316406 420.984375 410.015625 430.46875 411.3125 C 445.425781 413.351562 456.933594 419.0625 464.296875 423.644531 C 457.050781 408.617188 445.644531 395.074219 430.433594 388.21875 C 415.253906 381.378906 396.03125 382.320312 383.261719 393.035156 C 381.222656 394.753906 371.925781 401.628906 368.304688 414.042969 C 365.117188 400.429688 354.992188 392.933594 352.855469 391.132812 C 340.085938 380.417969 320.863281 379.472656 305.667969 386.332031 C 290.472656 393.1875 279.050781 406.730469 271.804688 421.742188 C 279.167969 417.144531 290.671875 411.449219 305.632812 409.410156 C 314.613281 408.179688 326.253906 406.597656 339.007812 411.785156 C 330.71875 410.503906 324.046875 411.632812 321.941406 411.871094 C 301.808594 414.144531 284.894531 430.265625 278.207031 449.386719 C 271.519531 468.507812 273.894531 489.902344 281.070312 508.839844 C 283.175781 498.511719 287.792969 483.621094 298.507812 468.726562 C 305.296875 459.292969 314.226562 446.894531 331.15625 440.222656 C 337.101562 437.882812 342.898438 436.683594 348.273438 436.214844 C 345.476562 438.941406 342.933594 442.246094 340.894531 446.269531 C 334.105469 459.664062 333.765625 475.636719 337.1875 490.273438 C 338.570312 482.273438 341.886719 469.199219 350.96875 455.789062 C 355.785156 448.648438 360.738281 443.625 363.789062 440.847656 C 363.804688 440.628906 363.804688 440.390625 363.820312 440.171875 C 363.804688 440.460938 363.804688 440.746094 363.789062 441.03125 C 361.328125 495.582031 358.867188 550.132812 356.425781 604.679688 C 357.605469 606.027344 362.828125 611.671875 370.796875 611.605469 C 378.5625 611.539062 383.632812 606.078125 384.847656 604.679688 C 382.03125 549.371094 379.238281 494.082031 376.421875 438.773438 C 383.398438 441.167969 391.347656 445.007812 398.996094 451.207031 C 400.515625 452.4375 407.640625 458.316406 414.496094 468.476562 C 423.558594 481.902344 426.894531 494.957031 428.277344 502.960938 C 431.695312 488.320312 431.359375 472.367188 424.570312 458.957031 C 417.191406 444.402344 403.125 439.160156 394.449219 436.9375 C 399.773438 437.425781 405.5 438.605469 411.363281 440.929688 C 428.292969 447.601562 437.222656 460 444.011719 469.433594 C 454.726562 484.328125 459.34375 499.21875 461.464844 509.546875 C 468.609375 490.59375 471 469.183594 464.296875 450.078125 Z M 464.296875 450.078125 " fill-opacity="1" fill-rule="nonzero"/></g><g clip-path="url(#6a31eedae3)"><path fill="#5ba1a9" d="M 219.769531 595.15625 C 238.984375 584.949219 259.609375 578.117188 280.925781 583.285156 C 309.546875 590.222656 330.644531 596.363281 353.632812 585.785156 C 323.144531 588.75 312.734375 574.707031 304.019531 559.226562 C 300.960938 568.246094 290.425781 574.527344 266.574219 576.097656 C 246.019531 577.449219 231.984375 585.414062 219.769531 595.15625 " fill-opacity="1" fill-rule="evenodd"/></g><g clip-path="url(#ff8ffb2e36)"><path fill="#5ba1a9" d="M 209.46875 614.214844 C 223.875 604.425781 240.210938 595.84375 260.332031 597.972656 C 280.785156 600.132812 295.902344 605.609375 310.882812 610.15625 C 336.46875 617.914062 352.648438 610.996094 366.421875 599.21875 C 400.753906 624.484375 427.371094 616.28125 454.105469 608.59375 C 410.527344 615.570312 381.089844 603.386719 365.800781 572.035156 C 357.21875 584.390625 350.964844 600.195312 320.246094 597.65625 C 302.210938 596.167969 284.605469 589.828125 265.949219 589.222656 C 240.472656 588.394531 221.640625 597.972656 209.46875 614.214844 " fill-opacity="1" fill-rule="evenodd"/></g><path fill="#5ba1a9" d="M 269.070312 604.84375 C 314.003906 619.6875 349.578125 624.375 364.554688 606.714844 C 375.367188 618.644531 394.195312 621.976562 416.664062 621.402344 C 357.34375 636.851562 322.894531 625.546875 269.070312 604.84375 " fill-opacity="1" fill-rule="evenodd"/><path fill="#5ba1a9" d="M 390.140625 629.839844 C 405.84375 637.132812 424.085938 638.5625 448.179688 627.652344 C 466.632812 619.292969 485.621094 616.613281 504.96875 619.214844 C 492 610.457031 476.226562 605.199219 452.863281 617.34375 C 436.84375 625.664062 418.167969 632.328125 390.140625 629.839844 " fill-opacity="1" fill-rule="evenodd"/><path fill="#5ba1a9" d="M 370.792969 576.410156 C 387.125 586.515625 402.304688 586.308594 416.976562 581.410156 C 403.941406 580.84375 393.277344 578.449219 391.078125 569.539062 C 387.230469 574.742188 380.464844 577.035156 370.792969 576.410156 " fill-opacity="1" fill-rule="evenodd"/><path fill="#5ba1a9" d="M 442.25 580.785156 C 454.472656 588.75 469.660156 589.792969 486.871094 586.097656 C 474.703125 583.492188 467.945312 579.636719 466.589844 574.535156 C 460.976562 579.535156 452.859375 581.617188 442.25 580.785156 " fill-opacity="1" fill-rule="evenodd"/><g clip-path="url(#d0415576cd)"><path fill="#5ba1a9" d="M 381.714844 588.285156 C 413.945312 605.753906 444.558594 610.996094 480.628906 600.15625 C 499.117188 597.40625 516.230469 604.339844 533.054688 613.277344 C 522.242188 604.078125 514.261719 593.523438 485.3125 592.96875 C 458.449219 593.515625 439.363281 588.988281 431.644531 577.035156 C 419.679688 589.691406 402 591.460938 381.714844 588.285156 " fill-opacity="1" fill-rule="evenodd"/></g><g transform="matrix(1, 0, 0, 1, 147, 645)"><g clip-path="url(#2fc2f9570a)"><g clip-path="url(#9280eff16a)"><g transform="matrix(1, 0, 0, 1, 47, 0)"><g clip-path="url(#b0e379103a)"><g fill="#5ba1a9" fill-opacity="1"><g transform="translate(0.940402, 44.149162)"><g><path d="M 15.796875 0 L 15.796875 -36 L 1.75 -36 L 1.75 -38.40625 L 32.4375 -38.40625 L 32.4375 -36 L 18.390625 -36 L 18.390625 0 Z M 15.796875 0 "/></g></g></g><g fill="#5ba1a9" fill-opacity="1"><g transform="translate(45.336554, 44.149162)"><g><path d="M 5.265625 -37.046875 C 4.785156 -37.046875 4.375 -37.21875 4.03125 -37.5625 C 3.6875 -37.90625 3.515625 -38.316406 3.515625 -38.796875 C 3.515625 -39.273438 3.6875 -39.675781 4.03125 -40 C 4.375 -40.332031 4.785156 -40.5 5.265625 -40.5 C 5.742188 -40.5 6.144531 -40.332031 6.46875 -40 C 6.800781 -39.675781 6.96875 -39.273438 6.96875 -38.796875 C 6.96875 -38.316406 6.800781 -37.90625 6.46875 -37.5625 C 6.144531 -37.21875 5.742188 -37.046875 5.265625 -37.046875 Z M 4.0625 0 L 4.0625 -29.296875 L 6.46875 -29.296875 L 6.46875 0 Z M 4.0625 0 "/></g></g></g><g fill="#5ba1a9" fill-opacity="1"><g transform="translate(66.026614, 44.149162)"><g><path d="M 17.671875 0.65625 C 14.890625 0.65625 12.375 0.0078125 10.125 -1.28125 C 7.875 -2.582031 6.082031 -4.382812 4.75 -6.6875 C 3.414062 -9 2.75 -11.65625 2.75 -14.65625 C 2.75 -17.65625 3.414062 -20.296875 4.75 -22.578125 C 6.082031 -24.867188 7.875 -26.660156 10.125 -27.953125 C 12.375 -29.253906 14.890625 -29.90625 17.671875 -29.90625 C 20.484375 -29.90625 23.039062 -29.238281 25.34375 -27.90625 C 27.65625 -26.570312 29.429688 -24.75 30.671875 -22.4375 L 31.0625 -22.4375 L 31.0625 -42.75 L 33.421875 -42.75 L 33.421875 0.0625 L 31.0625 0.0625 L 31.0625 -6.796875 L 30.671875 -6.796875 C 29.390625 -4.492188 27.601562 -2.675781 25.3125 -1.34375 C 23.03125 -0.0078125 20.484375 0.65625 17.671875 0.65625 Z M 18.046875 -1.53125 C 20.429688 -1.53125 22.601562 -2.085938 24.5625 -3.203125 C 26.519531 -4.328125 28.070312 -5.875 29.21875 -7.84375 C 30.375 -9.820312 30.953125 -12.09375 30.953125 -14.65625 C 30.953125 -17.25 30.375 -19.523438 29.21875 -21.484375 C 28.070312 -23.441406 26.519531 -24.96875 24.5625 -26.0625 C 22.601562 -27.164062 20.429688 -27.71875 18.046875 -27.71875 C 15.671875 -27.71875 13.492188 -27.164062 11.515625 -26.0625 C 9.546875 -24.96875 7.984375 -23.441406 6.828125 -21.484375 C 5.679688 -19.523438 5.109375 -17.25 5.109375 -14.65625 C 5.109375 -12.09375 5.679688 -9.820312 6.828125 -7.84375 C 7.984375 -5.875 9.546875 -4.328125 11.515625 -3.203125 C 13.492188 -2.085938 15.671875 -1.53125 18.046875 -1.53125 Z M 18.046875 -1.53125 "/></g></g></g><g fill="#5ba1a9" fill-opacity="1"><g transform="translate(113.93478, 44.149162)"><g><path d="M 17.828125 0.65625 C 15.046875 0.65625 12.519531 0.0078125 10.25 -1.28125 C 7.988281 -2.582031 6.191406 -4.382812 4.859375 -6.6875 C 3.523438 -9 2.859375 -11.65625 2.859375 -14.65625 C 2.859375 -17.65625 3.523438 -20.296875 4.859375 -22.578125 C 6.191406 -24.867188 7.988281 -26.660156 10.25 -27.953125 C 12.519531 -29.253906 15.046875 -29.90625 17.828125 -29.90625 C 20.722656 -29.90625 23.335938 -29.203125 25.671875 -27.796875 C 28.015625 -26.390625 29.8125 -24.457031 31.0625 -22 L 31.390625 -22 L 32.265625 -29.296875 L 33.53125 -29.296875 L 33.53125 0 L 31.171875 0 L 31.171875 -6.859375 L 30.84375 -6.859375 C 29.5625 -4.515625 27.773438 -2.675781 25.484375 -1.34375 C 23.203125 -0.0078125 20.648438 0.65625 17.828125 0.65625 Z M 18.15625 -1.53125 C 20.570312 -1.53125 22.757812 -2.085938 24.71875 -3.203125 C 26.675781 -4.328125 28.226562 -5.875 29.375 -7.84375 C 30.53125 -9.820312 31.109375 -12.09375 31.109375 -14.65625 C 31.109375 -17.25 30.53125 -19.523438 29.375 -21.484375 C 28.226562 -23.441406 26.675781 -24.96875 24.71875 -26.0625 C 22.757812 -27.164062 20.570312 -27.71875 18.15625 -27.71875 C 15.78125 -27.71875 13.613281 -27.164062 11.65625 -26.0625 C 9.695312 -24.96875 8.132812 -23.441406 6.96875 -21.484375 C 5.800781 -19.523438 5.21875 -17.25 5.21875 -14.65625 C 5.21875 -12.09375 5.789062 -9.820312 6.9375 -7.84375 C 8.09375 -5.875 9.65625 -4.328125 11.625 -3.203125 C 13.601562 -2.085938 15.78125 -1.53125 18.15625 -1.53125 Z M 18.15625 -1.53125 "/></g></g></g><g fill="#5ba1a9" fill-opacity="1"><g transform="translate(161.952686, 44.149162)"><g><path d="M 4.28125 0 L 4.28125 -42.75 L 6.640625 -42.75 L 6.640625 0 Z M 4.28125 0 "/></g></g></g><g fill="#5ba1a9" fill-opacity="1"><g transform="translate(183.081742, 44.149162)"><g/></g></g><g fill="#5ba1a9" fill-opacity="1"><g transform="translate(208.106926, 44.149162)"><g><path d="M 23.921875 0.65625 C 19.859375 0.65625 16.253906 -0.15625 13.109375 -1.78125 C 9.960938 -3.40625 7.492188 -5.691406 5.703125 -8.640625 C 3.910156 -11.585938 3.015625 -15 3.015625 -18.875 C 3.015625 -21.769531 3.523438 -24.441406 4.546875 -26.890625 C 5.578125 -29.335938 7.023438 -31.46875 8.890625 -33.28125 C 10.753906 -35.09375 12.96875 -36.5 15.53125 -37.5 C 18.09375 -38.507812 20.890625 -39.015625 23.921875 -39.015625 C 25.929688 -39.015625 27.878906 -38.796875 29.765625 -38.359375 C 31.648438 -37.921875 33.378906 -37.28125 34.953125 -36.4375 L 34.625 -33.578125 C 33.125 -34.535156 31.476562 -35.273438 29.6875 -35.796875 C 27.894531 -36.328125 25.957031 -36.59375 23.875 -36.59375 C 20.320312 -36.59375 17.164062 -35.816406 14.40625 -34.265625 C 11.644531 -32.710938 9.476562 -30.597656 7.90625 -27.921875 C 6.332031 -25.253906 5.546875 -22.238281 5.546875 -18.875 C 5.546875 -15.4375 6.332031 -12.4375 7.90625 -9.875 C 9.476562 -7.3125 11.65625 -5.316406 14.4375 -3.890625 C 17.21875 -2.460938 20.378906 -1.75 23.921875 -1.75 C 26.484375 -1.75 28.898438 -2.148438 31.171875 -2.953125 C 33.441406 -3.765625 35.378906 -4.847656 36.984375 -6.203125 L 36.984375 -3.40625 C 35.234375 -2.125 33.257812 -1.125 31.0625 -0.40625 C 28.863281 0.300781 26.484375 0.65625 23.921875 0.65625 Z M 23.921875 0.65625 "/></g></g></g><g fill="#5ba1a9" fill-opacity="1"><g transform="translate(256.28942, 44.149162)"><g><path d="M 17.828125 0.65625 C 15.046875 0.65625 12.519531 0.0078125 10.25 -1.28125 C 7.988281 -2.582031 6.191406 -4.382812 4.859375 -6.6875 C 3.523438 -9 2.859375 -11.65625 2.859375 -14.65625 C 2.859375 -17.65625 3.523438 -20.296875 4.859375 -22.578125 C 6.191406 -24.867188 7.988281 -26.660156 10.25 -27.953125 C 12.519531 -29.253906 15.046875 -29.90625 17.828125 -29.90625 C 20.722656 -29.90625 23.335938 -29.203125 25.671875 -27.796875 C 28.015625 -26.390625 29.8125 -24.457031 31.0625 -22 L 31.390625 -22 L 32.265625 -29.296875 L 33.53125 -29.296875 L 33.53125 0 L 31.171875 0 L 31.171875 -6.859375 L 30.84375 -6.859375 C 29.5625 -4.515625 27.773438 -2.675781 25.484375 -1.34375 C 23.203125 -0.0078125 20.648438 0.65625 17.828125 0.65625 Z M 18.15625 -1.53125 C 20.570312 -1.53125 22.757812 -2.085938 24.71875 -3.203125 C 26.675781 -4.328125 28.226562 -5.875 29.375 -7.84375 C 30.53125 -9.820312 31.109375 -12.09375 31.109375 -14.65625 C 31.109375 -17.25 30.53125 -19.523438 29.375 -21.484375 C 28.226562 -23.441406 26.675781 -24.96875 24.71875 -26.0625 C 22.757812 -27.164062 20.570312 -27.71875 18.15625 -27.71875 C 15.78125 -27.71875 13.613281 -27.164062 11.65625 -26.0625 C 9.695312 -24.96875 8.132812 -23.441406 6.96875 -21.484375 C 5.800781 -19.523438 5.21875 -17.25 5.21875 -14.65625 C 5.21875 -12.09375 5.789062 -9.820312 6.9375 -7.84375 C 8.09375 -5.875 9.65625 -4.328125 11.625 -3.203125 C 13.601562 -2.085938 15.78125 -1.53125 18.15625 -1.53125 Z M 18.15625 -1.53125 "/></g></g></g><g fill="#5ba1a9" fill-opacity="1"><g transform="translate(304.307337, 44.149162)"><g><path d="M 4.28125 0 L 4.28125 -29.296875 L 5.65625 -29.296875 L 6.421875 -23.109375 L 6.75 -23.109375 C 7.625 -25.222656 8.9375 -26.882812 10.6875 -28.09375 C 12.445312 -29.300781 14.609375 -29.90625 17.171875 -29.90625 C 17.898438 -29.90625 18.472656 -29.878906 18.890625 -29.828125 C 19.316406 -29.773438 19.785156 -29.691406 20.296875 -29.578125 L 19.96875 -27.265625 C 19.457031 -27.453125 19.019531 -27.5625 18.65625 -27.59375 C 18.289062 -27.632812 17.796875 -27.65625 17.171875 -27.65625 C 13.878906 -27.65625 11.328125 -26.613281 9.515625 -24.53125 C 7.703125 -22.445312 6.742188 -19.664062 6.640625 -16.1875 L 6.640625 0 Z M 4.28125 0 "/></g></g></g><g fill="#5ba1a9" fill-opacity="1"><g transform="translate(335.807801, 44.149162)"><g><path d="M 18.609375 0.65625 C 15.421875 0.65625 12.632812 0.0078125 10.25 -1.28125 C 7.875 -2.582031 6.03125 -4.382812 4.71875 -6.6875 C 3.40625 -9 2.75 -11.65625 2.75 -14.65625 C 2.75 -17.65625 3.429688 -20.296875 4.796875 -22.578125 C 6.171875 -24.867188 8.007812 -26.660156 10.3125 -27.953125 C 12.625 -29.253906 15.203125 -29.90625 18.046875 -29.90625 C 20.898438 -29.90625 23.488281 -29.253906 25.8125 -27.953125 C 28.132812 -26.660156 29.972656 -24.867188 31.328125 -22.578125 C 32.679688 -20.296875 33.359375 -17.65625 33.359375 -14.65625 L 33.359375 -13.609375 L 5.15625 -13.609375 C 5.300781 -11.234375 5.945312 -9.128906 7.09375 -7.296875 C 8.25 -5.460938 9.804688 -4.039062 11.765625 -3.03125 C 13.722656 -2.03125 16.003906 -1.53125 18.609375 -1.53125 C 20.867188 -1.53125 23.023438 -1.953125 25.078125 -2.796875 C 27.128906 -3.640625 28.867188 -4.898438 30.296875 -6.578125 L 31.828125 -4.78125 C 30.140625 -2.875 28.144531 -1.488281 25.84375 -0.625 C 23.539062 0.226562 21.128906 0.65625 18.609375 0.65625 Z M 5.15625 -15.75 L 30.953125 -15.75 C 30.804688 -18.125 30.132812 -20.207031 28.9375 -22 C 27.75 -23.789062 26.210938 -25.191406 24.328125 -26.203125 C 22.453125 -27.210938 20.359375 -27.71875 18.046875 -27.71875 C 15.785156 -27.71875 13.710938 -27.210938 11.828125 -26.203125 C 9.941406 -25.191406 8.40625 -23.789062 7.21875 -22 C 6.03125 -20.207031 5.34375 -18.125 5.15625 -15.75 Z M 5.15625 -15.75 "/></g></g></g></g></g></g><g clip-path="url(#d16b77d651)"><g transform="matrix(1, 0, 0, 1, 0.000000000000028422, 53)"><g clip-path="url(#8797bebe87)"><g fill="#3e6a70" fill-opacity="1"><g transform="translate(0.903543, 89.378185)"><g><path d="M 62.09375 0 L 54.78125 0 L 15.796875 -55.4375 L 15.796875 0 L 9.0625 0 L 9.0625 -65.09375 L 16.953125 -65.09375 L 55.359375 -10.71875 L 55.359375 -65.09375 L 62.09375 -65.09375 Z M 62.09375 0 "/></g></g></g><g fill="#3e6a70" fill-opacity="1"><g transform="translate(72.050083, 89.378185)"><g><path d="M 49.796875 -58.765625 L 15.875 -58.765625 L 15.875 -36.25 L 46.875 -36.25 L 46.875 -29.921875 L 15.875 -29.921875 L 15.875 -6.3125 L 50.125 -6.3125 L 50.125 0 L 9.0625 0 L 9.0625 -65.09375 L 49.796875 -65.09375 Z M 49.796875 -58.765625 "/></g></g></g><g fill="#3e6a70" fill-opacity="1"><g transform="translate(127.23852, 89.378185)"><g><path d="M 23.53125 -58.6875 L 1.75 -58.6875 L 1.75 -65.09375 L 52.125 -65.09375 L 52.125 -58.6875 L 30.421875 -58.6875 L 30.421875 0 L 23.53125 0 Z M 23.53125 -58.6875 "/></g></g></g><g fill="#3e6a70" fill-opacity="1"><g transform="translate(181.097112, 89.378185)"><g><path d="M 9.46875 -65.09375 L 26.515625 -9.890625 L 26.6875 -9.890625 L 43.890625 -65.09375 L 51.625 -65.09375 L 68.90625 -9.5625 L 69.078125 -9.5625 L 86.203125 -65.09375 L 93.09375 -65.09375 L 72.65625 0 L 65 0 L 47.625 -55.859375 L 30.171875 0 L 22.6875 0 L 2.328125 -65.09375 Z M 9.46875 -65.09375 "/></g></g></g><g fill="#3e6a70" fill-opacity="1"><g transform="translate(275.432658, 89.378185)"><g><path d="M 69.90625 -32.75 C 69.90625 -28.09375 69.085938 -23.738281 67.453125 -19.6875 C 65.816406 -15.644531 63.515625 -12.097656 60.546875 -9.046875 C 57.585938 -6.003906 54.113281 -3.625 50.125 -1.90625 C 46.132812 -0.1875 41.785156 0.671875 37.078125 0.671875 C 32.421875 0.671875 28.109375 -0.171875 24.140625 -1.859375 C 20.179688 -3.554688 16.734375 -5.898438 13.796875 -8.890625 C 10.859375 -11.890625 8.570312 -15.382812 6.9375 -19.375 C 5.300781 -23.363281 4.484375 -27.679688 4.484375 -32.328125 C 4.484375 -36.984375 5.300781 -41.332031 6.9375 -45.375 C 8.570312 -49.425781 10.867188 -52.972656 13.828125 -56.015625 C 16.796875 -59.066406 20.273438 -61.453125 24.265625 -63.171875 C 28.253906 -64.890625 32.609375 -65.75 37.328125 -65.75 C 41.984375 -65.75 46.289062 -64.90625 50.25 -63.21875 C 54.207031 -61.53125 57.65625 -59.1875 60.59375 -56.1875 C 63.53125 -53.195312 65.816406 -49.707031 67.453125 -45.71875 C 69.085938 -41.726562 69.90625 -37.40625 69.90625 -32.75 Z M 62.84375 -32.328125 C 62.84375 -35.992188 62.21875 -39.445312 60.96875 -42.6875 C 59.726562 -45.925781 57.957031 -48.804688 55.65625 -51.328125 C 53.351562 -53.847656 50.617188 -55.8125 47.453125 -57.21875 C 44.296875 -58.632812 40.835938 -59.34375 37.078125 -59.34375 C 33.359375 -59.34375 29.929688 -58.648438 26.796875 -57.265625 C 23.671875 -55.878906 20.972656 -53.953125 18.703125 -51.484375 C 16.429688 -49.023438 14.671875 -46.203125 13.421875 -43.015625 C 12.171875 -39.828125 11.546875 -36.40625 11.546875 -32.75 C 11.546875 -29.09375 12.171875 -25.628906 13.421875 -22.359375 C 14.671875 -19.085938 16.441406 -16.203125 18.734375 -13.703125 C 21.035156 -11.210938 23.765625 -9.257812 26.921875 -7.84375 C 30.085938 -6.4375 33.554688 -5.734375 37.328125 -5.734375 C 41.085938 -5.734375 44.519531 -6.425781 47.625 -7.8125 C 50.726562 -9.195312 53.414062 -11.125 55.6875 -13.59375 C 57.96875 -16.0625 59.726562 -18.882812 60.96875 -22.0625 C 62.21875 -25.25 62.84375 -28.671875 62.84375 -32.328125 Z M 62.84375 -32.328125 "/></g></g></g><g fill="#3e6a70" fill-opacity="1"><g transform="translate(349.820691, 89.378185)"><g><path d="M 15.875 -26.34375 L 15.875 0 L 9.0625 0 L 9.0625 -65.09375 L 31.59375 -65.09375 C 36.90625 -65.09375 41.238281 -64.21875 44.59375 -62.46875 C 47.945312 -60.71875 50.425781 -58.398438 52.03125 -55.515625 C 53.644531 -52.640625 54.453125 -49.515625 54.453125 -46.140625 C 54.453125 -42.421875 53.632812 -39.242188 52 -36.609375 C 50.363281 -33.984375 48.203125 -31.921875 45.515625 -30.421875 C 42.828125 -28.921875 39.847656 -27.953125 36.578125 -27.515625 L 56.6875 0 L 48.375 0 L 29.171875 -26.34375 Z M 15.875 -32.578125 L 31 -32.578125 C 34.9375 -32.578125 38.125 -33.226562 40.5625 -34.53125 C 43 -35.832031 44.769531 -37.507812 45.875 -39.5625 C 46.988281 -41.613281 47.546875 -43.722656 47.546875 -45.890625 C 47.546875 -48.046875 47.046875 -50.09375 46.046875 -52.03125 C 45.054688 -53.976562 43.367188 -55.570312 40.984375 -56.8125 C 38.597656 -58.0625 35.328125 -58.6875 31.171875 -58.6875 L 15.875 -58.6875 Z M 15.875 -32.578125 "/></g></g></g><g fill="#3e6a70" fill-opacity="1"><g transform="translate(409.663556, 89.378185)"><g><path d="M 15.875 -65.09375 L 15.875 -36.328125 L 16.296875 -36.328125 L 45.46875 -65.09375 L 55.03125 -65.09375 L 23.109375 -33.921875 L 56.53125 0 L 46.875 0 L 16.375 -31.34375 L 15.875 -31.34375 L 15.875 0 L 9.0625 0 L 9.0625 -65.09375 Z M 15.875 -65.09375 "/></g></g></g></g></g></g></g></g></svg>