<svg xmlns="http://www.w3.org/2000/svg" xmlns:xlink="http://www.w3.org/1999/xlink" width="200" zoomAndPan="magnify" viewBox="0 0 150 74.999997" height="100" preserveAspectRatio="xMidYMid meet" version="1.0"><defs><g/><clipPath id="8f39c6b389"><path d="M 16 16 L 51 16 L 51 43 L 16 43 Z M 16 16 " clip-rule="nonzero"/></clipPath></defs><g fill="#b5aa8e" fill-opacity="1"><g transform="translate(59.813058, 34.499996)"><g><path d="M 1.078125 0 L 1.078125 -11.125 L 3.109375 -11.125 L 8.34375 -3.296875 L 8.34375 -11.125 L 10.375 -11.125 L 10.375 0 L 8.34375 0 L 3.109375 -7.8125 L 3.109375 0 Z M 1.078125 0 "/></g></g></g><g fill="#b5aa8e" fill-opacity="1"><g transform="translate(71.270218, 34.499996)"><g><path d="M 1.078125 0 L 1.078125 -11.125 L 8.34375 -11.125 L 8.34375 -9.484375 L 3.109375 -9.484375 L 3.109375 -6.4375 L 7.859375 -6.4375 L 7.859375 -4.84375 L 3.109375 -4.84375 L 3.109375 -1.640625 L 8.34375 -1.640625 L 8.34375 0 Z M 1.078125 0 "/></g></g></g><g fill="#b5aa8e" fill-opacity="1"><g transform="translate(80.455016, 34.499996)"><g><path d="M 3.671875 0 L 3.671875 -9.484375 L 0.421875 -9.484375 L 0.421875 -11.125 L 8.96875 -11.125 L 8.96875 -9.484375 L 5.703125 -9.484375 L 5.703125 0 Z M 3.671875 0 "/></g></g></g><g fill="#b5aa8e" fill-opacity="1"><g transform="translate(89.846392, 34.499996)"><g><path d="M 3.34375 0 L 0.390625 -11.125 L 2.578125 -11.125 L 4.578125 -2.265625 L 6.921875 -11.125 L 9.171875 -11.125 L 11.453125 -2.265625 L 13.453125 -11.125 L 15.65625 -11.125 L 12.640625 0 L 10.21875 0 L 8.015625 -8.25 L 5.734375 0 Z M 3.34375 0 "/></g></g></g><g fill="#b5aa8e" fill-opacity="1"><g transform="translate(105.419179, 34.499996)"><g><path d="M 6.296875 0.1875 C 5.179688 0.1875 4.207031 -0.0507812 3.375 -0.53125 C 2.539062 -1.019531 1.890625 -1.695312 1.421875 -2.5625 C 0.953125 -3.425781 0.71875 -4.425781 0.71875 -5.5625 C 0.71875 -6.695312 0.953125 -7.695312 1.421875 -8.5625 C 1.890625 -9.425781 2.539062 -10.097656 3.375 -10.578125 C 4.207031 -11.066406 5.179688 -11.3125 6.296875 -11.3125 C 7.390625 -11.3125 8.351562 -11.066406 9.1875 -10.578125 C 10.03125 -10.097656 10.6875 -9.425781 11.15625 -8.5625 C 11.625 -7.695312 11.859375 -6.695312 11.859375 -5.5625 C 11.859375 -4.425781 11.625 -3.425781 11.15625 -2.5625 C 10.6875 -1.695312 10.03125 -1.019531 9.1875 -0.53125 C 8.351562 -0.0507812 7.390625 0.1875 6.296875 0.1875 Z M 6.296875 -1.640625 C 7.347656 -1.640625 8.1875 -1.988281 8.8125 -2.6875 C 9.445312 -3.382812 9.765625 -4.34375 9.765625 -5.5625 C 9.765625 -6.78125 9.445312 -7.738281 8.8125 -8.4375 C 8.1875 -9.132812 7.347656 -9.484375 6.296875 -9.484375 C 5.234375 -9.484375 4.382812 -9.132812 3.75 -8.4375 C 3.113281 -7.738281 2.796875 -6.78125 2.796875 -5.5625 C 2.796875 -4.34375 3.113281 -3.382812 3.75 -2.6875 C 4.382812 -1.988281 5.234375 -1.640625 6.296875 -1.640625 Z M 6.296875 -1.640625 "/></g></g></g><g fill="#b5aa8e" fill-opacity="1"><g transform="translate(117.988693, 34.499996)"><g><path d="M 1.078125 0 L 1.078125 -11.125 L 5.171875 -11.125 C 6.054688 -11.125 6.785156 -10.972656 7.359375 -10.671875 C 7.941406 -10.367188 8.375 -9.957031 8.65625 -9.4375 C 8.945312 -8.925781 9.09375 -8.359375 9.09375 -7.734375 C 9.09375 -7.054688 8.914062 -6.4375 8.5625 -5.875 C 8.207031 -5.3125 7.648438 -4.90625 6.890625 -4.65625 L 9.203125 0 L 6.859375 0 L 4.796875 -4.390625 L 3.109375 -4.390625 L 3.109375 0 Z M 3.109375 -5.875 L 5.03125 -5.875 C 5.707031 -5.875 6.203125 -6.035156 6.515625 -6.359375 C 6.835938 -6.691406 7 -7.128906 7 -7.671875 C 7 -8.203125 6.84375 -8.625 6.53125 -8.9375 C 6.21875 -9.257812 5.710938 -9.421875 5.015625 -9.421875 L 3.109375 -9.421875 Z M 3.109375 -5.875 "/></g></g></g><g fill="#b5aa8e" fill-opacity="1"><g transform="translate(127.888576, 34.499996)"><g><path d="M 1.078125 0 L 1.078125 -11.125 L 3.109375 -11.125 L 3.109375 -6.625 L 7.234375 -11.125 L 9.734375 -11.125 L 5.640625 -6.703125 L 9.859375 0 L 7.359375 0 L 4.171875 -5.15625 L 3.109375 -3.984375 L 3.109375 0 Z M 1.078125 0 "/></g></g></g><g fill="#b5aa8e" fill-opacity="1"><g transform="translate(53.660714, 50.249995)"><g><path d="M 4.875 0.1875 C 4.0625 0.1875 3.34375 0.0429688 2.71875 -0.234375 C 2.09375 -0.515625 1.597656 -0.914062 1.234375 -1.4375 C 0.878906 -1.957031 0.695312 -2.597656 0.6875 -3.359375 L 2.828125 -3.359375 C 2.847656 -2.835938 3.035156 -2.398438 3.390625 -2.046875 C 3.742188 -1.691406 4.234375 -1.515625 4.859375 -1.515625 C 5.398438 -1.515625 5.828125 -1.640625 6.140625 -1.890625 C 6.460938 -2.148438 6.625 -2.5 6.625 -2.9375 C 6.625 -3.394531 6.484375 -3.75 6.203125 -4 C 5.921875 -4.257812 5.546875 -4.46875 5.078125 -4.625 C 4.617188 -4.78125 4.125 -4.945312 3.59375 -5.125 C 2.726562 -5.425781 2.070312 -5.804688 1.625 -6.265625 C 1.175781 -6.734375 0.953125 -7.359375 0.953125 -8.140625 C 0.941406 -8.796875 1.097656 -9.359375 1.421875 -9.828125 C 1.742188 -10.296875 2.1875 -10.660156 2.75 -10.921875 C 3.3125 -11.179688 3.957031 -11.3125 4.6875 -11.3125 C 5.425781 -11.3125 6.078125 -11.175781 6.640625 -10.90625 C 7.210938 -10.644531 7.660156 -10.273438 7.984375 -9.796875 C 8.304688 -9.328125 8.476562 -8.765625 8.5 -8.109375 L 6.328125 -8.109375 C 6.316406 -8.492188 6.164062 -8.835938 5.875 -9.140625 C 5.582031 -9.441406 5.175781 -9.59375 4.65625 -9.59375 C 4.207031 -9.601562 3.832031 -9.492188 3.53125 -9.265625 C 3.226562 -9.046875 3.078125 -8.71875 3.078125 -8.28125 C 3.078125 -7.90625 3.191406 -7.609375 3.421875 -7.390625 C 3.660156 -7.179688 3.976562 -7 4.375 -6.84375 C 4.78125 -6.695312 5.242188 -6.539062 5.765625 -6.375 C 6.316406 -6.1875 6.820312 -5.960938 7.28125 -5.703125 C 7.738281 -5.453125 8.101562 -5.113281 8.375 -4.6875 C 8.644531 -4.269531 8.78125 -3.734375 8.78125 -3.078125 C 8.78125 -2.492188 8.628906 -1.953125 8.328125 -1.453125 C 8.035156 -0.960938 7.597656 -0.566406 7.015625 -0.265625 C 6.441406 0.0351562 5.726562 0.1875 4.875 0.1875 Z M 4.875 0.1875 "/></g></g></g><g fill="#b5aa8e" fill-opacity="1"><g transform="translate(63.147431, 50.249995)"><g><path d="M 5.375 0.1875 C 4.550781 0.1875 3.8125 0.0234375 3.15625 -0.296875 C 2.5 -0.617188 1.976562 -1.109375 1.59375 -1.765625 C 1.207031 -2.421875 1.015625 -3.253906 1.015625 -4.265625 L 1.015625 -11.125 L 3.046875 -11.125 L 3.046875 -4.25 C 3.046875 -3.375 3.253906 -2.722656 3.671875 -2.296875 C 4.097656 -1.878906 4.679688 -1.671875 5.421875 -1.671875 C 6.148438 -1.671875 6.722656 -1.878906 7.140625 -2.296875 C 7.566406 -2.722656 7.78125 -3.375 7.78125 -4.25 L 7.78125 -11.125 L 9.828125 -11.125 L 9.828125 -4.265625 C 9.828125 -3.253906 9.625 -2.421875 9.21875 -1.765625 C 8.8125 -1.109375 8.269531 -0.617188 7.59375 -0.296875 C 6.925781 0.0234375 6.1875 0.1875 5.375 0.1875 Z M 5.375 0.1875 "/></g></g></g><g fill="#b5aa8e" fill-opacity="1"><g transform="translate(73.968963, 50.249995)"><g><path d="M 1.078125 0 L 1.078125 -11.125 L 5.203125 -11.125 C 6.085938 -11.125 6.820312 -10.972656 7.40625 -10.671875 C 7.988281 -10.378906 8.421875 -9.972656 8.703125 -9.453125 C 8.992188 -8.929688 9.140625 -8.347656 9.140625 -7.703125 C 9.140625 -7.085938 9 -6.523438 8.71875 -6.015625 C 8.445312 -5.503906 8.019531 -5.09375 7.4375 -4.78125 C 6.851562 -4.46875 6.109375 -4.3125 5.203125 -4.3125 L 3.109375 -4.3125 L 3.109375 0 Z M 3.109375 -5.953125 L 5.0625 -5.953125 C 5.78125 -5.953125 6.296875 -6.109375 6.609375 -6.421875 C 6.921875 -6.734375 7.078125 -7.160156 7.078125 -7.703125 C 7.078125 -8.253906 6.921875 -8.6875 6.609375 -9 C 6.296875 -9.3125 5.78125 -9.46875 5.0625 -9.46875 L 3.109375 -9.46875 Z M 3.109375 -5.953125 "/></g></g></g><g fill="#b5aa8e" fill-opacity="1"><g transform="translate(83.614592, 50.249995)"><g><path d="M 1.078125 0 L 1.078125 -11.125 L 5.203125 -11.125 C 6.085938 -11.125 6.820312 -10.972656 7.40625 -10.671875 C 7.988281 -10.378906 8.421875 -9.972656 8.703125 -9.453125 C 8.992188 -8.929688 9.140625 -8.347656 9.140625 -7.703125 C 9.140625 -7.085938 9 -6.523438 8.71875 -6.015625 C 8.445312 -5.503906 8.019531 -5.09375 7.4375 -4.78125 C 6.851562 -4.46875 6.109375 -4.3125 5.203125 -4.3125 L 3.109375 -4.3125 L 3.109375 0 Z M 3.109375 -5.953125 L 5.0625 -5.953125 C 5.78125 -5.953125 6.296875 -6.109375 6.609375 -6.421875 C 6.921875 -6.734375 7.078125 -7.160156 7.078125 -7.703125 C 7.078125 -8.253906 6.921875 -8.6875 6.609375 -9 C 6.296875 -9.3125 5.78125 -9.46875 5.0625 -9.46875 L 3.109375 -9.46875 Z M 3.109375 -5.953125 "/></g></g></g><g fill="#b5aa8e" fill-opacity="1"><g transform="translate(93.260221, 50.249995)"><g><path d="M 6.296875 0.1875 C 5.179688 0.1875 4.207031 -0.0507812 3.375 -0.53125 C 2.539062 -1.019531 1.890625 -1.695312 1.421875 -2.5625 C 0.953125 -3.425781 0.71875 -4.425781 0.71875 -5.5625 C 0.71875 -6.695312 0.953125 -7.695312 1.421875 -8.5625 C 1.890625 -9.425781 2.539062 -10.097656 3.375 -10.578125 C 4.207031 -11.066406 5.179688 -11.3125 6.296875 -11.3125 C 7.390625 -11.3125 8.351562 -11.066406 9.1875 -10.578125 C 10.03125 -10.097656 10.6875 -9.425781 11.15625 -8.5625 C 11.625 -7.695312 11.859375 -6.695312 11.859375 -5.5625 C 11.859375 -4.425781 11.625 -3.425781 11.15625 -2.5625 C 10.6875 -1.695312 10.03125 -1.019531 9.1875 -0.53125 C 8.351562 -0.0507812 7.390625 0.1875 6.296875 0.1875 Z M 6.296875 -1.640625 C 7.347656 -1.640625 8.1875 -1.988281 8.8125 -2.6875 C 9.445312 -3.382812 9.765625 -4.34375 9.765625 -5.5625 C 9.765625 -6.78125 9.445312 -7.738281 8.8125 -8.4375 C 8.1875 -9.132812 7.347656 -9.484375 6.296875 -9.484375 C 5.234375 -9.484375 4.382812 -9.132812 3.75 -8.4375 C 3.113281 -7.738281 2.796875 -6.78125 2.796875 -5.5625 C 2.796875 -4.34375 3.113281 -3.382812 3.75 -2.6875 C 4.382812 -1.988281 5.234375 -1.640625 6.296875 -1.640625 Z M 6.296875 -1.640625 "/></g></g></g><g fill="#b5aa8e" fill-opacity="1"><g transform="translate(105.829735, 50.249995)"><g><path d="M 1.078125 0 L 1.078125 -11.125 L 5.171875 -11.125 C 6.054688 -11.125 6.785156 -10.972656 7.359375 -10.671875 C 7.941406 -10.367188 8.375 -9.957031 8.65625 -9.4375 C 8.945312 -8.925781 9.09375 -8.359375 9.09375 -7.734375 C 9.09375 -7.054688 8.914062 -6.4375 8.5625 -5.875 C 8.207031 -5.3125 7.648438 -4.90625 6.890625 -4.65625 L 9.203125 0 L 6.859375 0 L 4.796875 -4.390625 L 3.109375 -4.390625 L 3.109375 0 Z M 3.109375 -5.875 L 5.03125 -5.875 C 5.707031 -5.875 6.203125 -6.035156 6.515625 -6.359375 C 6.835938 -6.691406 7 -7.128906 7 -7.671875 C 7 -8.203125 6.84375 -8.625 6.53125 -8.9375 C 6.21875 -9.257812 5.710938 -9.421875 5.015625 -9.421875 L 3.109375 -9.421875 Z M 3.109375 -5.875 "/></g></g></g><g fill="#b5aa8e" fill-opacity="1"><g transform="translate(115.729618, 50.249995)"><g><path d="M 3.671875 0 L 3.671875 -9.484375 L 0.421875 -9.484375 L 0.421875 -11.125 L 8.96875 -11.125 L 8.96875 -9.484375 L 5.703125 -9.484375 L 5.703125 0 Z M 3.671875 0 "/></g></g></g><g fill="#b5aa8e" fill-opacity="1"><g transform="translate(125.120994, 50.249995)"><g><path d="M 1.078125 0 L 1.078125 -11.125 L 8.34375 -11.125 L 8.34375 -9.484375 L 3.109375 -9.484375 L 3.109375 -6.4375 L 7.859375 -6.4375 L 7.859375 -4.84375 L 3.109375 -4.84375 L 3.109375 -1.640625 L 8.34375 -1.640625 L 8.34375 0 Z M 1.078125 0 "/></g></g></g><g fill="#b5aa8e" fill-opacity="1"><g transform="translate(134.305792, 50.249995)"><g><path d="M 1.078125 0 L 1.078125 -11.125 L 5.171875 -11.125 C 6.054688 -11.125 6.785156 -10.972656 7.359375 -10.671875 C 7.941406 -10.367188 8.375 -9.957031 8.65625 -9.4375 C 8.945312 -8.925781 9.09375 -8.359375 9.09375 -7.734375 C 9.09375 -7.054688 8.914062 -6.4375 8.5625 -5.875 C 8.207031 -5.3125 7.648438 -4.90625 6.890625 -4.65625 L 9.203125 0 L 6.859375 0 L 4.796875 -4.390625 L 3.109375 -4.390625 L 3.109375 0 Z M 3.109375 -5.875 L 5.03125 -5.875 C 5.707031 -5.875 6.203125 -6.035156 6.515625 -6.359375 C 6.835938 -6.691406 7 -7.128906 7 -7.671875 C 7 -8.203125 6.84375 -8.625 6.53125 -8.9375 C 6.21875 -9.257812 5.710938 -9.421875 5.015625 -9.421875 L 3.109375 -9.421875 Z M 3.109375 -5.875 "/></g></g></g><path fill="#b5aa8e" d="M 30.757812 32.40625 C 30.527344 32.386719 30.300781 32.371094 30.078125 32.355469 C 28.886719 32.246094 27.652344 32.144531 26.46875 32.210938 C 26.316406 32.222656 26.167969 32.292969 26.050781 32.410156 C 24.859375 33.601562 23.664062 34.722656 22.949219 35.339844 C 21.90625 36.246094 20.527344 36.65625 19.171875 36.457031 C 17.8125 36.257812 16.640625 35.480469 15.875 34.269531 C 15.503906 33.695312 15.589844 32.925781 16.078125 32.4375 L 24.820312 23.613281 L 21.011719 19.683594 C 18.820312 17.417969 15.898438 16.171875 12.792969 16.171875 C 9.6875 16.171875 6.769531 17.417969 4.574219 19.683594 C 0.0195312 24.375 0.0195312 32.007812 4.574219 36.699219 L 10.535156 42.847656 L 24.066406 56.511719 C 24.429688 56.886719 24.886719 56.960938 25.210938 56.960938 C 25.824219 56.960938 26.457031 56.679688 26.949219 56.183594 C 27.835938 55.289062 27.980469 53.980469 27.28125 53.273438 L 19.824219 45.738281 C 19.597656 45.511719 19.601562 45.140625 19.828125 44.914062 C 20.054688 44.6875 20.421875 44.6875 20.644531 44.914062 L 28.101562 52.445312 C 28.101562 52.445312 28.589844 52.9375 28.589844 52.9375 C 28.949219 53.308594 29.402344 53.378906 29.722656 53.378906 C 30.339844 53.378906 30.972656 53.101562 31.464844 52.605469 C 31.972656 52.089844 32.238281 51.4375 32.238281 50.84375 C 32.238281 50.398438 32.089844 49.992188 31.796875 49.6875 L 24.339844 42.152344 C 24.117188 41.925781 24.117188 41.554688 24.34375 41.328125 C 24.570312 41.101562 24.941406 41.101562 25.160156 41.328125 L 33.105469 49.351562 C 33.464844 49.71875 33.914062 49.792969 34.238281 49.792969 C 34.855469 49.792969 35.484375 49.515625 35.980469 49.019531 C 36.488281 48.503906 36.753906 47.851562 36.753906 47.253906 C 36.753906 46.8125 36.605469 46.40625 36.300781 46.101562 L 28.855469 38.570312 C 28.628906 38.34375 28.628906 37.976562 28.855469 37.746094 C 29.085938 37.519531 29.449219 37.519531 29.675781 37.746094 L 37.609375 45.765625 C 38.292969 46.449219 39.632812 46.296875 40.488281 45.429688 C 40.984375 44.9375 41.261719 44.292969 41.261719 43.675781 C 41.261719 43.347656 41.183594 42.886719 40.808594 42.519531 L 30.773438 32.371094 Z M 30.757812 32.40625 " fill-opacity="1" fill-rule="nonzero"/><g clip-path="url(#8f39c6b389)"><path fill="#b5aa8e" d="M 37.851562 16.269531 C 33.691406 16.835938 29.917969 20.105469 28.039062 22.007812 L 16.894531 33.261719 C 16.792969 33.355469 16.773438 33.527344 16.847656 33.644531 C 17.4375 34.558594 18.328125 35.148438 19.347656 35.300781 C 20.367188 35.453125 21.402344 35.140625 22.195312 34.457031 C 22.886719 33.851562 24.0625 32.75 25.234375 31.578125 C 25.558594 31.261719 25.96875 31.074219 26.402344 31.046875 C 27.675781 30.964844 28.949219 31.074219 30.1875 31.179688 C 31.636719 31.3125 33.019531 31.425781 34.414062 31.261719 C 36.582031 31.011719 38.339844 29.796875 39.9375 28.582031 C 40.199219 28.382812 40.558594 28.433594 40.746094 28.695312 C 40.945312 28.949219 40.890625 29.316406 40.632812 29.507812 C 38.894531 30.824219 36.996094 32.140625 34.539062 32.421875 C 33.859375 32.5 33.167969 32.511719 32.492188 32.496094 L 41.621094 41.714844 C 41.808594 41.914062 41.964844 42.140625 42.085938 42.382812 L 47.488281 36.808594 C 49.761719 34.46875 51.015625 31.398438 51.015625 28.183594 C 51.015625 24.972656 49.808594 21.957031 47.597656 19.679688 C 45.058594 17.0625 41.421875 15.785156 37.859375 16.261719 Z M 37.851562 16.269531 " fill-opacity="1" fill-rule="nonzero"/></g></svg>