<svg xmlns="http://www.w3.org/2000/svg" xmlns:xlink="http://www.w3.org/1999/xlink" width="200" zoomAndPan="magnify" viewBox="0 0 150 74.999997" height="100" preserveAspectRatio="xMidYMid meet" version="1.0"><defs><g/><clipPath id="8d42bea9fb"><path d="M 1 8.40625 L 49 8.40625 L 49 56.40625 L 1 56.40625 Z M 1 8.40625 " clip-rule="nonzero"/></clipPath><clipPath id="e22c503d74"><path d="M 19 8.40625 L 60 8.40625 L 60 40 L 19 40 Z M 19 8.40625 " clip-rule="nonzero"/></clipPath></defs><g fill="#b5aa8e" fill-opacity="1"><g transform="translate(55.812277, 37.367636)"><g/></g></g><g fill="#b5aa8e" fill-opacity="1"><g transform="translate(59.597433, 37.367636)"><g><path d="M 4.875 0.1875 C 4.0625 0.1875 3.34375 0.0429688 2.71875 -0.234375 C 2.09375 -0.515625 1.597656 -0.914062 1.234375 -1.4375 C 0.878906 -1.957031 0.695312 -2.597656 0.6875 -3.359375 L 2.828125 -3.359375 C 2.847656 -2.835938 3.035156 -2.398438 3.390625 -2.046875 C 3.742188 -1.691406 4.234375 -1.515625 4.859375 -1.515625 C 5.398438 -1.515625 5.828125 -1.640625 6.140625 -1.890625 C 6.460938 -2.148438 6.625 -2.5 6.625 -2.9375 C 6.625 -3.394531 6.484375 -3.75 6.203125 -4 C 5.921875 -4.257812 5.546875 -4.46875 5.078125 -4.625 C 4.617188 -4.78125 4.125 -4.945312 3.59375 -5.125 C 2.726562 -5.425781 2.070312 -5.804688 1.625 -6.265625 C 1.175781 -6.734375 0.953125 -7.359375 0.953125 -8.140625 C 0.941406 -8.796875 1.097656 -9.359375 1.421875 -9.828125 C 1.742188 -10.296875 2.1875 -10.660156 2.75 -10.921875 C 3.3125 -11.179688 3.957031 -11.3125 4.6875 -11.3125 C 5.425781 -11.3125 6.078125 -11.175781 6.640625 -10.90625 C 7.210938 -10.644531 7.660156 -10.273438 7.984375 -9.796875 C 8.304688 -9.328125 8.476562 -8.765625 8.5 -8.109375 L 6.328125 -8.109375 C 6.316406 -8.492188 6.164062 -8.835938 5.875 -9.140625 C 5.582031 -9.441406 5.175781 -9.59375 4.65625 -9.59375 C 4.207031 -9.601562 3.832031 -9.492188 3.53125 -9.265625 C 3.226562 -9.046875 3.078125 -8.71875 3.078125 -8.28125 C 3.078125 -7.90625 3.191406 -7.609375 3.421875 -7.390625 C 3.660156 -7.179688 3.976562 -7 4.375 -6.84375 C 4.78125 -6.695312 5.242188 -6.539062 5.765625 -6.375 C 6.316406 -6.1875 6.820312 -5.960938 7.28125 -5.703125 C 7.738281 -5.453125 8.101562 -5.113281 8.375 -4.6875 C 8.644531 -4.269531 8.78125 -3.734375 8.78125 -3.078125 C 8.78125 -2.492188 8.628906 -1.953125 8.328125 -1.453125 C 8.035156 -0.960938 7.597656 -0.566406 7.015625 -0.265625 C 6.441406 0.0351562 5.726562 0.1875 4.875 0.1875 Z M 4.875 0.1875 "/></g></g></g><g fill="#b5aa8e" fill-opacity="1"><g transform="translate(69.084149, 37.367636)"><g><path d="M 5.375 0.1875 C 4.550781 0.1875 3.8125 0.0234375 3.15625 -0.296875 C 2.5 -0.617188 1.976562 -1.109375 1.59375 -1.765625 C 1.207031 -2.421875 1.015625 -3.253906 1.015625 -4.265625 L 1.015625 -11.125 L 3.046875 -11.125 L 3.046875 -4.25 C 3.046875 -3.375 3.253906 -2.722656 3.671875 -2.296875 C 4.097656 -1.878906 4.679688 -1.671875 5.421875 -1.671875 C 6.148438 -1.671875 6.722656 -1.878906 7.140625 -2.296875 C 7.566406 -2.722656 7.78125 -3.375 7.78125 -4.25 L 7.78125 -11.125 L 9.828125 -11.125 L 9.828125 -4.265625 C 9.828125 -3.253906 9.625 -2.421875 9.21875 -1.765625 C 8.8125 -1.109375 8.269531 -0.617188 7.59375 -0.296875 C 6.925781 0.0234375 6.1875 0.1875 5.375 0.1875 Z M 5.375 0.1875 "/></g></g></g><g fill="#b5aa8e" fill-opacity="1"><g transform="translate(79.905681, 37.367636)"><g><path d="M 1.078125 0 L 1.078125 -11.125 L 5.203125 -11.125 C 6.085938 -11.125 6.820312 -10.972656 7.40625 -10.671875 C 7.988281 -10.378906 8.421875 -9.972656 8.703125 -9.453125 C 8.992188 -8.929688 9.140625 -8.347656 9.140625 -7.703125 C 9.140625 -7.085938 9 -6.523438 8.71875 -6.015625 C 8.445312 -5.503906 8.019531 -5.09375 7.4375 -4.78125 C 6.851562 -4.46875 6.109375 -4.3125 5.203125 -4.3125 L 3.109375 -4.3125 L 3.109375 0 Z M 3.109375 -5.953125 L 5.0625 -5.953125 C 5.78125 -5.953125 6.296875 -6.109375 6.609375 -6.421875 C 6.921875 -6.734375 7.078125 -7.160156 7.078125 -7.703125 C 7.078125 -8.253906 6.921875 -8.6875 6.609375 -9 C 6.296875 -9.3125 5.78125 -9.46875 5.0625 -9.46875 L 3.109375 -9.46875 Z M 3.109375 -5.953125 "/></g></g></g><g fill="#b5aa8e" fill-opacity="1"><g transform="translate(89.55131, 37.367636)"><g><path d="M 1.078125 0 L 1.078125 -11.125 L 5.203125 -11.125 C 6.085938 -11.125 6.820312 -10.972656 7.40625 -10.671875 C 7.988281 -10.378906 8.421875 -9.972656 8.703125 -9.453125 C 8.992188 -8.929688 9.140625 -8.347656 9.140625 -7.703125 C 9.140625 -7.085938 9 -6.523438 8.71875 -6.015625 C 8.445312 -5.503906 8.019531 -5.09375 7.4375 -4.78125 C 6.851562 -4.46875 6.109375 -4.3125 5.203125 -4.3125 L 3.109375 -4.3125 L 3.109375 0 Z M 3.109375 -5.953125 L 5.0625 -5.953125 C 5.78125 -5.953125 6.296875 -6.109375 6.609375 -6.421875 C 6.921875 -6.734375 7.078125 -7.160156 7.078125 -7.703125 C 7.078125 -8.253906 6.921875 -8.6875 6.609375 -9 C 6.296875 -9.3125 5.78125 -9.46875 5.0625 -9.46875 L 3.109375 -9.46875 Z M 3.109375 -5.953125 "/></g></g></g><g fill="#b5aa8e" fill-opacity="1"><g transform="translate(99.196939, 37.367636)"><g><path d="M 6.296875 0.1875 C 5.179688 0.1875 4.207031 -0.0507812 3.375 -0.53125 C 2.539062 -1.019531 1.890625 -1.695312 1.421875 -2.5625 C 0.953125 -3.425781 0.71875 -4.425781 0.71875 -5.5625 C 0.71875 -6.695312 0.953125 -7.695312 1.421875 -8.5625 C 1.890625 -9.425781 2.539062 -10.097656 3.375 -10.578125 C 4.207031 -11.066406 5.179688 -11.3125 6.296875 -11.3125 C 7.390625 -11.3125 8.351562 -11.066406 9.1875 -10.578125 C 10.03125 -10.097656 10.6875 -9.425781 11.15625 -8.5625 C 11.625 -7.695312 11.859375 -6.695312 11.859375 -5.5625 C 11.859375 -4.425781 11.625 -3.425781 11.15625 -2.5625 C 10.6875 -1.695312 10.03125 -1.019531 9.1875 -0.53125 C 8.351562 -0.0507812 7.390625 0.1875 6.296875 0.1875 Z M 6.296875 -1.640625 C 7.347656 -1.640625 8.1875 -1.988281 8.8125 -2.6875 C 9.445312 -3.382812 9.765625 -4.34375 9.765625 -5.5625 C 9.765625 -6.78125 9.445312 -7.738281 8.8125 -8.4375 C 8.1875 -9.132812 7.347656 -9.484375 6.296875 -9.484375 C 5.234375 -9.484375 4.382812 -9.132812 3.75 -8.4375 C 3.113281 -7.738281 2.796875 -6.78125 2.796875 -5.5625 C 2.796875 -4.34375 3.113281 -3.382812 3.75 -2.6875 C 4.382812 -1.988281 5.234375 -1.640625 6.296875 -1.640625 Z M 6.296875 -1.640625 "/></g></g></g><g fill="#b5aa8e" fill-opacity="1"><g transform="translate(111.766454, 37.367636)"><g><path d="M 1.078125 0 L 1.078125 -11.125 L 5.171875 -11.125 C 6.054688 -11.125 6.785156 -10.972656 7.359375 -10.671875 C 7.941406 -10.367188 8.375 -9.957031 8.65625 -9.4375 C 8.945312 -8.925781 9.09375 -8.359375 9.09375 -7.734375 C 9.09375 -7.054688 8.914062 -6.4375 8.5625 -5.875 C 8.207031 -5.3125 7.648438 -4.90625 6.890625 -4.65625 L 9.203125 0 L 6.859375 0 L 4.796875 -4.390625 L 3.109375 -4.390625 L 3.109375 0 Z M 3.109375 -5.875 L 5.03125 -5.875 C 5.707031 -5.875 6.203125 -6.035156 6.515625 -6.359375 C 6.835938 -6.691406 7 -7.128906 7 -7.671875 C 7 -8.203125 6.84375 -8.625 6.53125 -8.9375 C 6.21875 -9.257812 5.710938 -9.421875 5.015625 -9.421875 L 3.109375 -9.421875 Z M 3.109375 -5.875 "/></g></g></g><g fill="#b5aa8e" fill-opacity="1"><g transform="translate(121.666336, 37.367636)"><g><path d="M 3.671875 0 L 3.671875 -9.484375 L 0.421875 -9.484375 L 0.421875 -11.125 L 8.96875 -11.125 L 8.96875 -9.484375 L 5.703125 -9.484375 L 5.703125 0 Z M 3.671875 0 "/></g></g></g><g fill="#b5aa8e" fill-opacity="1"><g transform="translate(131.057712, 37.367636)"><g><path d="M 1.078125 0 L 1.078125 -11.125 L 8.34375 -11.125 L 8.34375 -9.484375 L 3.109375 -9.484375 L 3.109375 -6.4375 L 7.859375 -6.4375 L 7.859375 -4.84375 L 3.109375 -4.84375 L 3.109375 -1.640625 L 8.34375 -1.640625 L 8.34375 0 Z M 1.078125 0 "/></g></g></g><g fill="#b5aa8e" fill-opacity="1"><g transform="translate(140.24251, 37.367636)"><g><path d="M 1.078125 0 L 1.078125 -11.125 L 5.171875 -11.125 C 6.054688 -11.125 6.785156 -10.972656 7.359375 -10.671875 C 7.941406 -10.367188 8.375 -9.957031 8.65625 -9.4375 C 8.945312 -8.925781 9.09375 -8.359375 9.09375 -7.734375 C 9.09375 -7.054688 8.914062 -6.4375 8.5625 -5.875 C 8.207031 -5.3125 7.648438 -4.90625 6.890625 -4.65625 L 9.203125 0 L 6.859375 0 L 4.796875 -4.390625 L 3.109375 -4.390625 L 3.109375 0 Z M 3.109375 -5.875 L 5.03125 -5.875 C 5.707031 -5.875 6.203125 -6.035156 6.515625 -6.359375 C 6.835938 -6.691406 7 -7.128906 7 -7.671875 C 7 -8.203125 6.84375 -8.625 6.53125 -8.9375 C 6.21875 -9.257812 5.710938 -9.421875 5.015625 -9.421875 L 3.109375 -9.421875 Z M 3.109375 -5.875 "/></g></g></g><g clip-path="url(#8d42bea9fb)"><path fill="#b5aa8e" d="M 35.960938 27.851562 C 35.6875 27.832031 35.421875 27.8125 35.164062 27.792969 C 33.773438 27.664062 32.328125 27.546875 30.945312 27.625 C 30.765625 27.640625 30.59375 27.71875 30.453125 27.859375 C 29.0625 29.25 27.664062 30.5625 26.828125 31.28125 C 25.609375 32.34375 23.996094 32.820312 22.410156 32.589844 C 20.820312 32.355469 19.449219 31.449219 18.554688 30.03125 C 18.125 29.363281 18.222656 28.460938 18.792969 27.890625 L 29.015625 17.570312 L 24.5625 12.976562 C 22 10.328125 18.582031 8.871094 14.949219 8.871094 C 11.320312 8.871094 7.910156 10.328125 5.34375 12.976562 C 0.0195312 18.464844 0.0195312 27.386719 5.34375 32.875 L 12.3125 40.0625 L 28.136719 56.039062 C 28.558594 56.476562 29.09375 56.5625 29.472656 56.5625 C 30.1875 56.5625 30.929688 56.234375 31.507812 55.65625 C 32.539062 54.609375 32.710938 53.078125 31.890625 52.25 L 23.171875 43.441406 C 22.90625 43.175781 22.914062 42.746094 23.179688 42.480469 C 23.445312 42.214844 23.875 42.214844 24.132812 42.480469 L 32.851562 51.285156 C 32.851562 51.285156 33.421875 51.859375 33.421875 51.859375 C 33.84375 52.292969 34.375 52.378906 34.746094 52.378906 C 35.46875 52.378906 36.210938 52.050781 36.789062 51.46875 C 37.375 50.867188 37.6875 50.105469 37.6875 49.410156 C 37.6875 48.890625 37.515625 48.414062 37.171875 48.058594 L 28.453125 39.246094 C 28.195312 38.980469 28.195312 38.550781 28.460938 38.285156 C 28.722656 38.019531 29.15625 38.019531 29.414062 38.285156 L 38.703125 47.667969 C 39.125 48.097656 39.648438 48.183594 40.027344 48.183594 C 40.75 48.183594 41.484375 47.859375 42.066406 47.277344 C 42.65625 46.671875 42.96875 45.910156 42.96875 45.214844 C 42.96875 44.699219 42.796875 44.222656 42.4375 43.863281 L 33.734375 35.058594 C 33.46875 34.792969 33.46875 34.363281 33.734375 34.097656 C 34.003906 33.832031 34.429688 33.832031 34.695312 34.097656 L 43.96875 43.472656 C 44.769531 44.273438 46.332031 44.097656 47.335938 43.082031 C 47.917969 42.507812 48.242188 41.75 48.242188 41.027344 C 48.242188 40.644531 48.148438 40.109375 47.710938 39.675781 L 35.980469 27.8125 Z M 35.960938 27.851562 " fill-opacity="1" fill-rule="nonzero"/></g><g clip-path="url(#e22c503d74)"><path fill="#b5aa8e" d="M 44.253906 8.984375 C 39.390625 9.644531 34.976562 13.46875 32.777344 15.695312 L 19.746094 28.851562 C 19.628906 28.964844 19.609375 29.164062 19.695312 29.300781 C 20.382812 30.367188 21.421875 31.058594 22.617188 31.238281 C 23.808594 31.414062 25.019531 31.050781 25.949219 30.25 C 26.757812 29.539062 28.128906 28.253906 29.5 26.882812 C 29.878906 26.511719 30.359375 26.292969 30.863281 26.261719 C 32.355469 26.167969 33.84375 26.292969 35.289062 26.421875 C 36.984375 26.574219 38.601562 26.707031 40.230469 26.511719 C 42.769531 26.222656 44.824219 24.804688 46.691406 23.378906 C 46.996094 23.148438 47.421875 23.207031 47.640625 23.511719 C 47.871094 23.808594 47.804688 24.242188 47.507812 24.464844 C 45.472656 26.003906 43.253906 27.539062 40.378906 27.871094 C 39.582031 27.964844 38.773438 27.976562 37.984375 27.957031 L 48.660156 38.734375 C 48.878906 38.96875 49.0625 39.234375 49.203125 39.519531 L 55.523438 33 C 58.179688 30.261719 59.644531 26.671875 59.644531 22.914062 C 59.644531 19.160156 58.230469 15.632812 55.648438 12.972656 C 52.679688 9.910156 48.425781 8.421875 44.261719 8.976562 Z M 44.253906 8.984375 " fill-opacity="1" fill-rule="nonzero"/></g></svg>