<svg xmlns="http://www.w3.org/2000/svg" xmlns:xlink="http://www.w3.org/1999/xlink" width="200" zoomAndPan="magnify" viewBox="0 0 150 74.999997" height="100" preserveAspectRatio="xMidYMid meet" version="1.0"><defs><g/><clipPath id="46c9b232f5"><path d="M 1 10 L 49 10 L 49 57.757812 L 1 57.757812 Z M 1 10 " clip-rule="nonzero"/></clipPath></defs><g fill="#3e6a70" fill-opacity="1"><g transform="translate(61.073212, 41.999996)"><g><path d="M 4.609375 0.1875 C 3.835938 0.1875 3.15625 0.0546875 2.5625 -0.203125 C 1.976562 -0.472656 1.515625 -0.851562 1.171875 -1.34375 C 0.828125 -1.84375 0.648438 -2.453125 0.640625 -3.171875 L 2.671875 -3.171875 C 2.691406 -2.679688 2.867188 -2.265625 3.203125 -1.921875 C 3.535156 -1.585938 4 -1.421875 4.59375 -1.421875 C 5.101562 -1.421875 5.503906 -1.539062 5.796875 -1.78125 C 6.097656 -2.03125 6.25 -2.363281 6.25 -2.78125 C 6.25 -3.207031 6.113281 -3.539062 5.84375 -3.78125 C 5.582031 -4.019531 5.234375 -4.210938 4.796875 -4.359375 C 4.359375 -4.515625 3.890625 -4.675781 3.390625 -4.84375 C 2.578125 -5.125 1.957031 -5.484375 1.53125 -5.921875 C 1.113281 -6.359375 0.90625 -6.945312 0.90625 -7.6875 C 0.894531 -8.300781 1.039062 -8.828125 1.34375 -9.265625 C 1.644531 -9.710938 2.0625 -10.0625 2.59375 -10.3125 C 3.125 -10.5625 3.734375 -10.6875 4.421875 -10.6875 C 5.117188 -10.6875 5.734375 -10.5625 6.265625 -10.3125 C 6.804688 -10.0625 7.226562 -9.707031 7.53125 -9.25 C 7.84375 -8.800781 8.007812 -8.269531 8.03125 -7.65625 L 5.96875 -7.65625 C 5.957031 -8.019531 5.8125 -8.34375 5.53125 -8.625 C 5.257812 -8.914062 4.878906 -9.0625 4.390625 -9.0625 C 3.972656 -9.070312 3.617188 -8.96875 3.328125 -8.75 C 3.046875 -8.539062 2.90625 -8.226562 2.90625 -7.8125 C 2.90625 -7.46875 3.015625 -7.191406 3.234375 -6.984375 C 3.453125 -6.773438 3.75 -6.597656 4.125 -6.453125 C 4.507812 -6.316406 4.945312 -6.171875 5.4375 -6.015625 C 5.957031 -5.835938 6.429688 -5.628906 6.859375 -5.390625 C 7.296875 -5.148438 7.644531 -4.832031 7.90625 -4.4375 C 8.164062 -4.039062 8.296875 -3.53125 8.296875 -2.90625 C 8.296875 -2.351562 8.15625 -1.84375 7.875 -1.375 C 7.59375 -0.90625 7.175781 -0.523438 6.625 -0.234375 C 6.082031 0.0429688 5.410156 0.1875 4.609375 0.1875 Z M 4.609375 0.1875 "/></g></g></g><g fill="#3e6a70" fill-opacity="1"><g transform="translate(70.028201, 41.999996)"><g><path d="M 5.0625 0.1875 C 4.300781 0.1875 3.609375 0.0351562 2.984375 -0.265625 C 2.367188 -0.578125 1.875 -1.039062 1.5 -1.65625 C 1.132812 -2.28125 0.953125 -3.066406 0.953125 -4.015625 L 0.953125 -10.5 L 2.875 -10.5 L 2.875 -4 C 2.875 -3.1875 3.070312 -2.578125 3.46875 -2.171875 C 3.863281 -1.773438 4.410156 -1.578125 5.109375 -1.578125 C 5.804688 -1.578125 6.351562 -1.773438 6.75 -2.171875 C 7.144531 -2.578125 7.34375 -3.1875 7.34375 -4 L 7.34375 -10.5 L 9.265625 -10.5 L 9.265625 -4.015625 C 9.265625 -3.066406 9.070312 -2.28125 8.6875 -1.65625 C 8.3125 -1.039062 7.804688 -0.578125 7.171875 -0.265625 C 6.535156 0.0351562 5.832031 0.1875 5.0625 0.1875 Z M 5.0625 0.1875 "/></g></g></g><g fill="#3e6a70" fill-opacity="1"><g transform="translate(80.243185, 41.999996)"><g><path d="M 1.015625 0 L 1.015625 -10.5 L 4.90625 -10.5 C 5.75 -10.5 6.441406 -10.359375 6.984375 -10.078125 C 7.535156 -9.796875 7.945312 -9.410156 8.21875 -8.921875 C 8.488281 -8.429688 8.625 -7.882812 8.625 -7.28125 C 8.625 -6.695312 8.492188 -6.160156 8.234375 -5.671875 C 7.972656 -5.191406 7.566406 -4.800781 7.015625 -4.5 C 6.460938 -4.207031 5.757812 -4.0625 4.90625 -4.0625 L 2.9375 -4.0625 L 2.9375 0 Z M 2.9375 -5.625 L 4.78125 -5.625 C 5.457031 -5.625 5.941406 -5.769531 6.234375 -6.0625 C 6.523438 -6.363281 6.671875 -6.769531 6.671875 -7.28125 C 6.671875 -7.800781 6.523438 -8.207031 6.234375 -8.5 C 5.941406 -8.789062 5.457031 -8.9375 4.78125 -8.9375 L 2.9375 -8.9375 Z M 2.9375 -5.625 "/></g></g></g><g fill="#3e6a70" fill-opacity="1"><g transform="translate(89.348173, 41.999996)"><g><path d="M 1.015625 0 L 1.015625 -10.5 L 4.90625 -10.5 C 5.75 -10.5 6.441406 -10.359375 6.984375 -10.078125 C 7.535156 -9.796875 7.945312 -9.410156 8.21875 -8.921875 C 8.488281 -8.429688 8.625 -7.882812 8.625 -7.28125 C 8.625 -6.695312 8.492188 -6.160156 8.234375 -5.671875 C 7.972656 -5.191406 7.566406 -4.800781 7.015625 -4.5 C 6.460938 -4.207031 5.757812 -4.0625 4.90625 -4.0625 L 2.9375 -4.0625 L 2.9375 0 Z M 2.9375 -5.625 L 4.78125 -5.625 C 5.457031 -5.625 5.941406 -5.769531 6.234375 -6.0625 C 6.523438 -6.363281 6.671875 -6.769531 6.671875 -7.28125 C 6.671875 -7.800781 6.523438 -8.207031 6.234375 -8.5 C 5.941406 -8.789062 5.457031 -8.9375 4.78125 -8.9375 L 2.9375 -8.9375 Z M 2.9375 -5.625 "/></g></g></g><g fill="#3e6a70" fill-opacity="1"><g transform="translate(98.45316, 41.999996)"><g><path d="M 5.9375 0.1875 C 4.882812 0.1875 3.96875 -0.0390625 3.1875 -0.5 C 2.40625 -0.96875 1.789062 -1.609375 1.34375 -2.421875 C 0.894531 -3.234375 0.671875 -4.175781 0.671875 -5.25 C 0.671875 -6.320312 0.894531 -7.265625 1.34375 -8.078125 C 1.789062 -8.890625 2.40625 -9.523438 3.1875 -9.984375 C 3.96875 -10.453125 4.882812 -10.6875 5.9375 -10.6875 C 6.976562 -10.6875 7.894531 -10.453125 8.6875 -9.984375 C 9.476562 -9.523438 10.09375 -8.890625 10.53125 -8.078125 C 10.96875 -7.265625 11.1875 -6.320312 11.1875 -5.25 C 11.1875 -4.175781 10.96875 -3.234375 10.53125 -2.421875 C 10.09375 -1.609375 9.476562 -0.96875 8.6875 -0.5 C 7.894531 -0.0390625 6.976562 0.1875 5.9375 0.1875 Z M 5.9375 -1.546875 C 6.9375 -1.546875 7.734375 -1.875 8.328125 -2.53125 C 8.921875 -3.195312 9.21875 -4.101562 9.21875 -5.25 C 9.21875 -6.394531 8.921875 -7.296875 8.328125 -7.953125 C 7.734375 -8.617188 6.9375 -8.953125 5.9375 -8.953125 C 4.9375 -8.953125 4.132812 -8.617188 3.53125 -7.953125 C 2.9375 -7.296875 2.640625 -6.394531 2.640625 -5.25 C 2.640625 -4.101562 2.9375 -3.195312 3.53125 -2.53125 C 4.132812 -1.875 4.9375 -1.546875 5.9375 -1.546875 Z M 5.9375 -1.546875 "/></g></g></g><g fill="#3e6a70" fill-opacity="1"><g transform="translate(110.318153, 41.999996)"><g><path d="M 1.015625 0 L 1.015625 -10.5 L 4.875 -10.5 C 5.71875 -10.5 6.410156 -10.351562 6.953125 -10.0625 C 7.492188 -9.78125 7.898438 -9.394531 8.171875 -8.90625 C 8.441406 -8.425781 8.578125 -7.894531 8.578125 -7.3125 C 8.578125 -6.664062 8.410156 -6.078125 8.078125 -5.546875 C 7.742188 -5.015625 7.222656 -4.628906 6.515625 -4.390625 L 8.6875 0 L 6.484375 0 L 4.53125 -4.140625 L 2.9375 -4.140625 L 2.9375 0 Z M 2.9375 -5.546875 L 4.75 -5.546875 C 5.394531 -5.546875 5.863281 -5.703125 6.15625 -6.015625 C 6.457031 -6.328125 6.609375 -6.738281 6.609375 -7.25 C 6.609375 -7.75 6.460938 -8.144531 6.171875 -8.4375 C 5.878906 -8.738281 5.398438 -8.890625 4.734375 -8.890625 L 2.9375 -8.890625 Z M 2.9375 -5.546875 "/></g></g></g><g fill="#3e6a70" fill-opacity="1"><g transform="translate(119.663146, 41.999996)"><g><path d="M 3.46875 0 L 3.46875 -8.953125 L 0.40625 -8.953125 L 0.40625 -10.5 L 8.453125 -10.5 L 8.453125 -8.953125 L 5.390625 -8.953125 L 5.390625 0 Z M 3.46875 0 "/></g></g></g><g fill="#3e6a70" fill-opacity="1"><g transform="translate(128.528139, 41.999996)"><g><path d="M 1.015625 0 L 1.015625 -10.5 L 7.875 -10.5 L 7.875 -8.953125 L 2.9375 -8.953125 L 2.9375 -6.078125 L 7.421875 -6.078125 L 7.421875 -4.578125 L 2.9375 -4.578125 L 2.9375 -1.546875 L 7.875 -1.546875 L 7.875 0 Z M 1.015625 0 "/></g></g></g><g fill="#3e6a70" fill-opacity="1"><g transform="translate(137.198125, 41.999996)"><g><path d="M 1.015625 0 L 1.015625 -10.5 L 4.875 -10.5 C 5.71875 -10.5 6.410156 -10.351562 6.953125 -10.0625 C 7.492188 -9.78125 7.898438 -9.394531 8.171875 -8.90625 C 8.441406 -8.425781 8.578125 -7.894531 8.578125 -7.3125 C 8.578125 -6.664062 8.410156 -6.078125 8.078125 -5.546875 C 7.742188 -5.015625 7.222656 -4.628906 6.515625 -4.390625 L 8.6875 0 L 6.484375 0 L 4.53125 -4.140625 L 2.9375 -4.140625 L 2.9375 0 Z M 2.9375 -5.546875 L 4.75 -5.546875 C 5.394531 -5.546875 5.863281 -5.703125 6.15625 -6.015625 C 6.457031 -6.328125 6.609375 -6.738281 6.609375 -7.25 C 6.609375 -7.75 6.460938 -8.144531 6.171875 -8.4375 C 5.878906 -8.738281 5.398438 -8.890625 4.734375 -8.890625 L 2.9375 -8.890625 Z M 2.9375 -5.546875 "/></g></g></g><g clip-path="url(#46c9b232f5)"><path fill="#3e6a70" d="M 35.960938 29.203125 C 35.6875 29.179688 35.421875 29.160156 35.164062 29.140625 C 33.773438 29.015625 32.328125 28.898438 30.945312 28.976562 C 30.765625 28.988281 30.59375 29.070312 30.453125 29.207031 C 29.0625 30.597656 27.664062 31.910156 26.828125 32.632812 C 25.609375 33.691406 23.996094 34.171875 22.410156 33.9375 C 20.820312 33.707031 19.449219 32.796875 18.554688 31.382812 C 18.125 30.710938 18.222656 29.8125 18.792969 29.242188 L 29.015625 18.917969 L 24.5625 14.328125 C 22 11.679688 18.582031 10.21875 14.949219 10.21875 C 11.320312 10.21875 7.910156 11.679688 5.34375 14.328125 C 0.0195312 19.8125 0.0195312 28.738281 5.34375 34.222656 L 12.3125 41.410156 L 28.136719 57.390625 C 28.558594 57.828125 29.09375 57.914062 29.472656 57.914062 C 30.1875 57.914062 30.929688 57.582031 31.507812 57.007812 C 32.539062 55.960938 32.710938 54.429688 31.890625 53.601562 L 23.171875 44.789062 C 22.90625 44.523438 22.914062 44.09375 23.179688 43.828125 C 23.445312 43.5625 23.875 43.5625 24.132812 43.828125 L 32.851562 52.632812 C 32.851562 52.632812 33.421875 53.210938 33.421875 53.210938 C 33.84375 53.640625 34.375 53.726562 34.746094 53.726562 C 35.46875 53.726562 36.210938 53.402344 36.789062 52.820312 C 37.375 52.214844 37.6875 51.453125 37.6875 50.757812 C 37.6875 50.242188 37.515625 49.765625 37.171875 49.40625 L 28.453125 40.597656 C 28.195312 40.332031 28.195312 39.902344 28.460938 39.636719 C 28.722656 39.371094 29.15625 39.371094 29.414062 39.636719 L 38.703125 49.015625 C 39.125 49.449219 39.648438 49.535156 40.027344 49.535156 C 40.75 49.535156 41.484375 49.207031 42.066406 48.625 C 42.65625 48.023438 42.96875 47.261719 42.96875 46.566406 C 42.96875 46.046875 42.796875 45.570312 42.4375 45.214844 L 33.734375 36.410156 C 33.46875 36.144531 33.46875 35.714844 33.734375 35.449219 C 34.003906 35.183594 34.429688 35.183594 34.695312 35.449219 L 43.96875 44.824219 C 44.769531 45.625 46.332031 45.445312 47.335938 44.433594 C 47.917969 43.855469 48.242188 43.101562 48.242188 42.378906 C 48.242188 41.996094 48.148438 41.457031 47.710938 41.027344 L 35.980469 29.160156 Z M 35.960938 29.203125 " fill-opacity="1" fill-rule="nonzero"/></g><path fill="#3e6a70" d="M 44.253906 10.332031 C 39.390625 10.996094 34.976562 14.820312 32.777344 17.042969 L 19.746094 30.203125 C 19.628906 30.3125 19.609375 30.511719 19.695312 30.652344 C 20.382812 31.71875 21.421875 32.40625 22.617188 32.585938 C 23.808594 32.765625 25.019531 32.402344 25.949219 31.597656 C 26.757812 30.890625 28.128906 29.605469 29.5 28.234375 C 29.878906 27.863281 30.359375 27.644531 30.863281 27.609375 C 32.355469 27.519531 33.84375 27.644531 35.289062 27.769531 C 36.984375 27.921875 38.601562 28.054688 40.230469 27.863281 C 42.769531 27.570312 44.824219 26.152344 46.691406 24.730469 C 46.996094 24.496094 47.421875 24.558594 47.640625 24.863281 C 47.871094 25.160156 47.804688 25.589844 47.507812 25.816406 C 45.472656 27.351562 43.253906 28.890625 40.378906 29.222656 C 39.582031 29.3125 38.773438 29.328125 37.984375 29.308594 L 48.660156 40.085938 C 48.878906 40.316406 49.0625 40.582031 49.203125 40.867188 L 55.523438 34.347656 C 58.179688 31.613281 59.644531 28.023438 59.644531 24.265625 C 59.644531 20.507812 58.230469 16.984375 55.648438 14.320312 C 52.679688 11.261719 48.425781 9.769531 44.261719 10.328125 Z M 44.253906 10.332031 " fill-opacity="1" fill-rule="nonzero"/></svg>