<svg xmlns="http://www.w3.org/2000/svg" xmlns:xlink="http://www.w3.org/1999/xlink" width="200" zoomAndPan="magnify" viewBox="0 0 150 74.999997" height="100" preserveAspectRatio="xMidYMid meet" version="1.0"><defs><g/><clipPath id="9ac9ecaf67"><path d="M 0 14.203125 L 52 14.203125 L 52 66.703125 L 0 66.703125 Z M 0 14.203125 " clip-rule="nonzero"/></clipPath><clipPath id="ccc9ff8120"><path d="M 20 14.203125 L 63.300781 14.203125 L 63.300781 48 L 20 48 Z M 20 14.203125 " clip-rule="nonzero"/></clipPath></defs><g fill="#b5aa8e" fill-opacity="1"><g transform="translate(63.863057, 37.367636)"><g><path d="M 1.078125 0 L 1.078125 -11.125 L 3.109375 -11.125 L 8.34375 -3.296875 L 8.34375 -11.125 L 10.375 -11.125 L 10.375 0 L 8.34375 0 L 3.109375 -7.8125 L 3.109375 0 Z M 1.078125 0 "/></g></g></g><g fill="#b5aa8e" fill-opacity="1"><g transform="translate(75.320217, 37.367636)"><g><path d="M 1.078125 0 L 1.078125 -11.125 L 8.34375 -11.125 L 8.34375 -9.484375 L 3.109375 -9.484375 L 3.109375 -6.4375 L 7.859375 -6.4375 L 7.859375 -4.84375 L 3.109375 -4.84375 L 3.109375 -1.640625 L 8.34375 -1.640625 L 8.34375 0 Z M 1.078125 0 "/></g></g></g><g fill="#b5aa8e" fill-opacity="1"><g transform="translate(84.505016, 37.367636)"><g><path d="M 3.671875 0 L 3.671875 -9.484375 L 0.421875 -9.484375 L 0.421875 -11.125 L 8.96875 -11.125 L 8.96875 -9.484375 L 5.703125 -9.484375 L 5.703125 0 Z M 3.671875 0 "/></g></g></g><g fill="#b5aa8e" fill-opacity="1"><g transform="translate(93.896391, 37.367636)"><g><path d="M 3.34375 0 L 0.390625 -11.125 L 2.578125 -11.125 L 4.578125 -2.265625 L 6.921875 -11.125 L 9.171875 -11.125 L 11.453125 -2.265625 L 13.453125 -11.125 L 15.65625 -11.125 L 12.640625 0 L 10.21875 0 L 8.015625 -8.25 L 5.734375 0 Z M 3.34375 0 "/></g></g></g><g fill="#b5aa8e" fill-opacity="1"><g transform="translate(109.469179, 37.367636)"><g><path d="M 6.296875 0.1875 C 5.179688 0.1875 4.207031 -0.0507812 3.375 -0.53125 C 2.539062 -1.019531 1.890625 -1.695312 1.421875 -2.5625 C 0.953125 -3.425781 0.71875 -4.425781 0.71875 -5.5625 C 0.71875 -6.695312 0.953125 -7.695312 1.421875 -8.5625 C 1.890625 -9.425781 2.539062 -10.097656 3.375 -10.578125 C 4.207031 -11.066406 5.179688 -11.3125 6.296875 -11.3125 C 7.390625 -11.3125 8.351562 -11.066406 9.1875 -10.578125 C 10.03125 -10.097656 10.6875 -9.425781 11.15625 -8.5625 C 11.625 -7.695312 11.859375 -6.695312 11.859375 -5.5625 C 11.859375 -4.425781 11.625 -3.425781 11.15625 -2.5625 C 10.6875 -1.695312 10.03125 -1.019531 9.1875 -0.53125 C 8.351562 -0.0507812 7.390625 0.1875 6.296875 0.1875 Z M 6.296875 -1.640625 C 7.347656 -1.640625 8.1875 -1.988281 8.8125 -2.6875 C 9.445312 -3.382812 9.765625 -4.34375 9.765625 -5.5625 C 9.765625 -6.78125 9.445312 -7.738281 8.8125 -8.4375 C 8.1875 -9.132812 7.347656 -9.484375 6.296875 -9.484375 C 5.234375 -9.484375 4.382812 -9.132812 3.75 -8.4375 C 3.113281 -7.738281 2.796875 -6.78125 2.796875 -5.5625 C 2.796875 -4.34375 3.113281 -3.382812 3.75 -2.6875 C 4.382812 -1.988281 5.234375 -1.640625 6.296875 -1.640625 Z M 6.296875 -1.640625 "/></g></g></g><g fill="#b5aa8e" fill-opacity="1"><g transform="translate(122.038693, 37.367636)"><g><path d="M 1.078125 0 L 1.078125 -11.125 L 5.171875 -11.125 C 6.054688 -11.125 6.785156 -10.972656 7.359375 -10.671875 C 7.941406 -10.367188 8.375 -9.957031 8.65625 -9.4375 C 8.945312 -8.925781 9.09375 -8.359375 9.09375 -7.734375 C 9.09375 -7.054688 8.914062 -6.4375 8.5625 -5.875 C 8.207031 -5.3125 7.648438 -4.90625 6.890625 -4.65625 L 9.203125 0 L 6.859375 0 L 4.796875 -4.390625 L 3.109375 -4.390625 L 3.109375 0 Z M 3.109375 -5.875 L 5.03125 -5.875 C 5.707031 -5.875 6.203125 -6.035156 6.515625 -6.359375 C 6.835938 -6.691406 7 -7.128906 7 -7.671875 C 7 -8.203125 6.84375 -8.625 6.53125 -8.9375 C 6.21875 -9.257812 5.710938 -9.421875 5.015625 -9.421875 L 3.109375 -9.421875 Z M 3.109375 -5.875 "/></g></g></g><g fill="#b5aa8e" fill-opacity="1"><g transform="translate(131.938575, 37.367636)"><g><path d="M 1.078125 0 L 1.078125 -11.125 L 3.109375 -11.125 L 3.109375 -6.625 L 7.234375 -11.125 L 9.734375 -11.125 L 5.640625 -6.703125 L 9.859375 0 L 7.359375 0 L 4.171875 -5.15625 L 3.109375 -3.984375 L 3.109375 0 Z M 1.078125 0 "/></g></g></g><g fill="#b5aa8e" fill-opacity="1"><g transform="translate(57.710714, 53.117635)"><g><path d="M 4.875 0.1875 C 4.0625 0.1875 3.34375 0.0429688 2.71875 -0.234375 C 2.09375 -0.515625 1.597656 -0.914062 1.234375 -1.4375 C 0.878906 -1.957031 0.695312 -2.597656 0.6875 -3.359375 L 2.828125 -3.359375 C 2.847656 -2.835938 3.035156 -2.398438 3.390625 -2.046875 C 3.742188 -1.691406 4.234375 -1.515625 4.859375 -1.515625 C 5.398438 -1.515625 5.828125 -1.640625 6.140625 -1.890625 C 6.460938 -2.148438 6.625 -2.5 6.625 -2.9375 C 6.625 -3.394531 6.484375 -3.75 6.203125 -4 C 5.921875 -4.257812 5.546875 -4.46875 5.078125 -4.625 C 4.617188 -4.78125 4.125 -4.945312 3.59375 -5.125 C 2.726562 -5.425781 2.070312 -5.804688 1.625 -6.265625 C 1.175781 -6.734375 0.953125 -7.359375 0.953125 -8.140625 C 0.941406 -8.796875 1.097656 -9.359375 1.421875 -9.828125 C 1.742188 -10.296875 2.1875 -10.660156 2.75 -10.921875 C 3.3125 -11.179688 3.957031 -11.3125 4.6875 -11.3125 C 5.425781 -11.3125 6.078125 -11.175781 6.640625 -10.90625 C 7.210938 -10.644531 7.660156 -10.273438 7.984375 -9.796875 C 8.304688 -9.328125 8.476562 -8.765625 8.5 -8.109375 L 6.328125 -8.109375 C 6.316406 -8.492188 6.164062 -8.835938 5.875 -9.140625 C 5.582031 -9.441406 5.175781 -9.59375 4.65625 -9.59375 C 4.207031 -9.601562 3.832031 -9.492188 3.53125 -9.265625 C 3.226562 -9.046875 3.078125 -8.71875 3.078125 -8.28125 C 3.078125 -7.90625 3.191406 -7.609375 3.421875 -7.390625 C 3.660156 -7.179688 3.976562 -7 4.375 -6.84375 C 4.78125 -6.695312 5.242188 -6.539062 5.765625 -6.375 C 6.316406 -6.1875 6.820312 -5.960938 7.28125 -5.703125 C 7.738281 -5.453125 8.101562 -5.113281 8.375 -4.6875 C 8.644531 -4.269531 8.78125 -3.734375 8.78125 -3.078125 C 8.78125 -2.492188 8.628906 -1.953125 8.328125 -1.453125 C 8.035156 -0.960938 7.597656 -0.566406 7.015625 -0.265625 C 6.441406 0.0351562 5.726562 0.1875 4.875 0.1875 Z M 4.875 0.1875 "/></g></g></g><g fill="#b5aa8e" fill-opacity="1"><g transform="translate(67.19743, 53.117635)"><g><path d="M 5.375 0.1875 C 4.550781 0.1875 3.8125 0.0234375 3.15625 -0.296875 C 2.5 -0.617188 1.976562 -1.109375 1.59375 -1.765625 C 1.207031 -2.421875 1.015625 -3.253906 1.015625 -4.265625 L 1.015625 -11.125 L 3.046875 -11.125 L 3.046875 -4.25 C 3.046875 -3.375 3.253906 -2.722656 3.671875 -2.296875 C 4.097656 -1.878906 4.679688 -1.671875 5.421875 -1.671875 C 6.148438 -1.671875 6.722656 -1.878906 7.140625 -2.296875 C 7.566406 -2.722656 7.78125 -3.375 7.78125 -4.25 L 7.78125 -11.125 L 9.828125 -11.125 L 9.828125 -4.265625 C 9.828125 -3.253906 9.625 -2.421875 9.21875 -1.765625 C 8.8125 -1.109375 8.269531 -0.617188 7.59375 -0.296875 C 6.925781 0.0234375 6.1875 0.1875 5.375 0.1875 Z M 5.375 0.1875 "/></g></g></g><g fill="#b5aa8e" fill-opacity="1"><g transform="translate(78.018963, 53.117635)"><g><path d="M 1.078125 0 L 1.078125 -11.125 L 5.203125 -11.125 C 6.085938 -11.125 6.820312 -10.972656 7.40625 -10.671875 C 7.988281 -10.378906 8.421875 -9.972656 8.703125 -9.453125 C 8.992188 -8.929688 9.140625 -8.347656 9.140625 -7.703125 C 9.140625 -7.085938 9 -6.523438 8.71875 -6.015625 C 8.445312 -5.503906 8.019531 -5.09375 7.4375 -4.78125 C 6.851562 -4.46875 6.109375 -4.3125 5.203125 -4.3125 L 3.109375 -4.3125 L 3.109375 0 Z M 3.109375 -5.953125 L 5.0625 -5.953125 C 5.78125 -5.953125 6.296875 -6.109375 6.609375 -6.421875 C 6.921875 -6.734375 7.078125 -7.160156 7.078125 -7.703125 C 7.078125 -8.253906 6.921875 -8.6875 6.609375 -9 C 6.296875 -9.3125 5.78125 -9.46875 5.0625 -9.46875 L 3.109375 -9.46875 Z M 3.109375 -5.953125 "/></g></g></g><g fill="#b5aa8e" fill-opacity="1"><g transform="translate(87.664592, 53.117635)"><g><path d="M 1.078125 0 L 1.078125 -11.125 L 5.203125 -11.125 C 6.085938 -11.125 6.820312 -10.972656 7.40625 -10.671875 C 7.988281 -10.378906 8.421875 -9.972656 8.703125 -9.453125 C 8.992188 -8.929688 9.140625 -8.347656 9.140625 -7.703125 C 9.140625 -7.085938 9 -6.523438 8.71875 -6.015625 C 8.445312 -5.503906 8.019531 -5.09375 7.4375 -4.78125 C 6.851562 -4.46875 6.109375 -4.3125 5.203125 -4.3125 L 3.109375 -4.3125 L 3.109375 0 Z M 3.109375 -5.953125 L 5.0625 -5.953125 C 5.78125 -5.953125 6.296875 -6.109375 6.609375 -6.421875 C 6.921875 -6.734375 7.078125 -7.160156 7.078125 -7.703125 C 7.078125 -8.253906 6.921875 -8.6875 6.609375 -9 C 6.296875 -9.3125 5.78125 -9.46875 5.0625 -9.46875 L 3.109375 -9.46875 Z M 3.109375 -5.953125 "/></g></g></g><g fill="#b5aa8e" fill-opacity="1"><g transform="translate(97.310221, 53.117635)"><g><path d="M 6.296875 0.1875 C 5.179688 0.1875 4.207031 -0.0507812 3.375 -0.53125 C 2.539062 -1.019531 1.890625 -1.695312 1.421875 -2.5625 C 0.953125 -3.425781 0.71875 -4.425781 0.71875 -5.5625 C 0.71875 -6.695312 0.953125 -7.695312 1.421875 -8.5625 C 1.890625 -9.425781 2.539062 -10.097656 3.375 -10.578125 C 4.207031 -11.066406 5.179688 -11.3125 6.296875 -11.3125 C 7.390625 -11.3125 8.351562 -11.066406 9.1875 -10.578125 C 10.03125 -10.097656 10.6875 -9.425781 11.15625 -8.5625 C 11.625 -7.695312 11.859375 -6.695312 11.859375 -5.5625 C 11.859375 -4.425781 11.625 -3.425781 11.15625 -2.5625 C 10.6875 -1.695312 10.03125 -1.019531 9.1875 -0.53125 C 8.351562 -0.0507812 7.390625 0.1875 6.296875 0.1875 Z M 6.296875 -1.640625 C 7.347656 -1.640625 8.1875 -1.988281 8.8125 -2.6875 C 9.445312 -3.382812 9.765625 -4.34375 9.765625 -5.5625 C 9.765625 -6.78125 9.445312 -7.738281 8.8125 -8.4375 C 8.1875 -9.132812 7.347656 -9.484375 6.296875 -9.484375 C 5.234375 -9.484375 4.382812 -9.132812 3.75 -8.4375 C 3.113281 -7.738281 2.796875 -6.78125 2.796875 -5.5625 C 2.796875 -4.34375 3.113281 -3.382812 3.75 -2.6875 C 4.382812 -1.988281 5.234375 -1.640625 6.296875 -1.640625 Z M 6.296875 -1.640625 "/></g></g></g><g fill="#b5aa8e" fill-opacity="1"><g transform="translate(109.879735, 53.117635)"><g><path d="M 1.078125 0 L 1.078125 -11.125 L 5.171875 -11.125 C 6.054688 -11.125 6.785156 -10.972656 7.359375 -10.671875 C 7.941406 -10.367188 8.375 -9.957031 8.65625 -9.4375 C 8.945312 -8.925781 9.09375 -8.359375 9.09375 -7.734375 C 9.09375 -7.054688 8.914062 -6.4375 8.5625 -5.875 C 8.207031 -5.3125 7.648438 -4.90625 6.890625 -4.65625 L 9.203125 0 L 6.859375 0 L 4.796875 -4.390625 L 3.109375 -4.390625 L 3.109375 0 Z M 3.109375 -5.875 L 5.03125 -5.875 C 5.707031 -5.875 6.203125 -6.035156 6.515625 -6.359375 C 6.835938 -6.691406 7 -7.128906 7 -7.671875 C 7 -8.203125 6.84375 -8.625 6.53125 -8.9375 C 6.21875 -9.257812 5.710938 -9.421875 5.015625 -9.421875 L 3.109375 -9.421875 Z M 3.109375 -5.875 "/></g></g></g><g fill="#b5aa8e" fill-opacity="1"><g transform="translate(119.779618, 53.117635)"><g><path d="M 3.671875 0 L 3.671875 -9.484375 L 0.421875 -9.484375 L 0.421875 -11.125 L 8.96875 -11.125 L 8.96875 -9.484375 L 5.703125 -9.484375 L 5.703125 0 Z M 3.671875 0 "/></g></g></g><g fill="#b5aa8e" fill-opacity="1"><g transform="translate(129.170993, 53.117635)"><g><path d="M 1.078125 0 L 1.078125 -11.125 L 8.34375 -11.125 L 8.34375 -9.484375 L 3.109375 -9.484375 L 3.109375 -6.4375 L 7.859375 -6.4375 L 7.859375 -4.84375 L 3.109375 -4.84375 L 3.109375 -1.640625 L 8.34375 -1.640625 L 8.34375 0 Z M 1.078125 0 "/></g></g></g><g fill="#b5aa8e" fill-opacity="1"><g transform="translate(138.355792, 53.117635)"><g><path d="M 1.078125 0 L 1.078125 -11.125 L 5.171875 -11.125 C 6.054688 -11.125 6.785156 -10.972656 7.359375 -10.671875 C 7.941406 -10.367188 8.375 -9.957031 8.65625 -9.4375 C 8.945312 -8.925781 9.09375 -8.359375 9.09375 -7.734375 C 9.09375 -7.054688 8.914062 -6.4375 8.5625 -5.875 C 8.207031 -5.3125 7.648438 -4.90625 6.890625 -4.65625 L 9.203125 0 L 6.859375 0 L 4.796875 -4.390625 L 3.109375 -4.390625 L 3.109375 0 Z M 3.109375 -5.875 L 5.03125 -5.875 C 5.707031 -5.875 6.203125 -6.035156 6.515625 -6.359375 C 6.835938 -6.691406 7 -7.128906 7 -7.671875 C 7 -8.203125 6.84375 -8.625 6.53125 -8.9375 C 6.21875 -9.257812 5.710938 -9.421875 5.015625 -9.421875 L 3.109375 -9.421875 Z M 3.109375 -5.875 "/></g></g></g><g clip-path="url(#9ac9ecaf67)"><path fill="#b5aa8e" d="M 37.867188 35.328125 C 37.570312 35.304688 37.285156 35.28125 37.003906 35.261719 C 35.492188 35.125 33.921875 34.996094 32.417969 35.082031 C 32.222656 35.097656 32.039062 35.183594 31.886719 35.332031 C 30.375 36.84375 28.855469 38.269531 27.949219 39.054688 C 26.625 40.207031 24.867188 40.722656 23.148438 40.472656 C 21.421875 40.21875 19.929688 39.234375 18.960938 37.695312 C 18.492188 36.96875 18.601562 35.988281 19.21875 35.371094 L 30.324219 24.15625 L 25.488281 19.167969 C 22.703125 16.289062 18.988281 14.707031 15.042969 14.707031 C 11.101562 14.707031 7.394531 16.289062 4.609375 19.167969 C -1.179688 25.128906 -1.179688 34.824219 4.609375 40.78125 L 12.179688 48.589844 L 29.367188 65.949219 C 29.828125 66.425781 30.410156 66.519531 30.820312 66.519531 C 31.597656 66.519531 32.402344 66.160156 33.03125 65.535156 C 34.152344 64.394531 34.339844 62.734375 33.449219 61.832031 L 23.976562 52.261719 C 23.6875 51.972656 23.695312 51.503906 23.984375 51.21875 C 24.269531 50.929688 24.738281 50.929688 25.019531 51.21875 L 34.492188 60.78125 C 34.492188 60.78125 35.109375 61.410156 35.109375 61.410156 C 35.570312 61.878906 36.148438 61.96875 36.550781 61.96875 C 37.335938 61.96875 38.140625 61.617188 38.765625 60.984375 C 39.40625 60.328125 39.746094 59.5 39.746094 58.746094 C 39.746094 58.183594 39.558594 57.667969 39.183594 57.277344 L 29.710938 47.707031 C 29.433594 47.417969 29.433594 46.949219 29.71875 46.660156 C 30.007812 46.375 30.476562 46.375 30.757812 46.660156 L 40.847656 56.851562 C 41.308594 57.320312 41.875 57.414062 42.285156 57.414062 C 43.070312 57.414062 43.871094 57.0625 44.503906 56.429688 C 45.144531 55.773438 45.480469 54.945312 45.480469 54.191406 C 45.480469 53.628906 45.292969 53.109375 44.90625 52.722656 L 35.449219 43.15625 C 35.160156 42.867188 35.160156 42.402344 35.449219 42.113281 C 35.742188 41.824219 36.203125 41.824219 36.492188 42.113281 L 46.570312 52.296875 C 47.4375 53.167969 49.136719 52.972656 50.226562 51.871094 C 50.859375 51.246094 51.210938 50.425781 51.210938 49.640625 C 51.210938 49.222656 51.109375 48.640625 50.636719 48.171875 L 37.886719 35.28125 Z M 37.867188 35.328125 " fill-opacity="1" fill-rule="nonzero"/></g><g clip-path="url(#ccc9ff8120)"><path fill="#b5aa8e" d="M 46.878906 14.828125 C 41.59375 15.546875 36.800781 19.699219 34.414062 22.121094 L 20.253906 36.414062 C 20.125 36.535156 20.105469 36.75 20.199219 36.902344 C 20.945312 38.0625 22.078125 38.808594 23.371094 39.003906 C 24.667969 39.199219 25.984375 38.800781 26.992188 37.933594 C 27.871094 37.160156 29.359375 35.765625 30.851562 34.277344 C 31.261719 33.871094 31.785156 33.636719 32.332031 33.597656 C 33.953125 33.5 35.570312 33.636719 37.140625 33.773438 C 38.984375 33.9375 40.738281 34.082031 42.507812 33.871094 C 45.265625 33.554688 47.496094 32.015625 49.527344 30.46875 C 49.859375 30.214844 50.316406 30.28125 50.554688 30.613281 C 50.808594 30.9375 50.734375 31.402344 50.410156 31.648438 C 48.203125 33.316406 45.792969 34.988281 42.667969 35.347656 C 41.804688 35.449219 40.925781 35.464844 40.070312 35.441406 L 51.664062 47.152344 C 51.902344 47.402344 52.101562 47.691406 52.253906 48 L 59.121094 40.917969 C 62.007812 37.945312 63.597656 34.046875 63.597656 29.964844 C 63.597656 25.882812 62.0625 22.054688 59.257812 19.160156 C 56.03125 15.835938 51.414062 14.214844 46.886719 14.820312 Z M 46.878906 14.828125 " fill-opacity="1" fill-rule="nonzero"/></g></svg>