<svg xmlns="http://www.w3.org/2000/svg" xmlns:xlink="http://www.w3.org/1999/xlink" width="200" zoomAndPan="magnify" viewBox="0 0 150 74.999997" height="100" preserveAspectRatio="xMidYMid meet" version="1.0"><defs><g/><clipPath id="1144762a31"><path d="M 41 11 L 89 11 L 89 58.957031 L 41 58.957031 Z M 41 11 " clip-rule="nonzero"/></clipPath><clipPath id="b533e8b99b"><path d="M 60 11 L 100.5 11 L 100.5 43 L 60 43 Z M 60 11 " clip-rule="nonzero"/></clipPath></defs><g clip-path="url(#1144762a31)"><path fill="#b5aa8e" d="M 76.460938 30.402344 C 76.1875 30.382812 75.921875 30.363281 75.664062 30.339844 C 74.273438 30.214844 72.828125 30.097656 71.445312 30.175781 C 71.265625 30.1875 71.09375 30.269531 70.953125 30.40625 C 69.5625 31.800781 68.164062 33.109375 67.328125 33.832031 C 66.109375 34.894531 64.496094 35.371094 62.910156 35.136719 C 61.320312 34.90625 59.949219 34 59.054688 32.582031 C 58.625 31.910156 58.722656 31.011719 59.292969 30.441406 L 69.515625 20.121094 L 65.0625 15.527344 C 62.5 12.878906 59.082031 11.421875 55.449219 11.421875 C 51.820312 11.421875 48.410156 12.878906 45.84375 15.527344 C 40.519531 21.011719 40.519531 29.9375 45.84375 35.421875 L 52.8125 42.609375 L 68.636719 58.589844 C 69.058594 59.027344 69.59375 59.113281 69.972656 59.113281 C 70.6875 59.113281 71.429688 58.78125 72.007812 58.207031 C 73.039062 57.160156 73.210938 55.628906 72.390625 54.800781 L 63.671875 45.988281 C 63.40625 45.726562 63.414062 45.292969 63.679688 45.03125 C 63.945312 44.765625 64.375 44.765625 64.632812 45.03125 L 73.351562 53.835938 C 73.351562 53.835938 73.921875 54.410156 73.921875 54.410156 C 74.34375 54.839844 74.875 54.925781 75.246094 54.925781 C 75.96875 54.925781 76.710938 54.601562 77.289062 54.019531 C 77.875 53.417969 78.1875 52.65625 78.1875 51.960938 C 78.1875 51.441406 78.015625 50.964844 77.671875 50.609375 L 68.953125 41.796875 C 68.695312 41.53125 68.695312 41.101562 68.960938 40.835938 C 69.222656 40.570312 69.65625 40.570312 69.914062 40.835938 L 79.203125 50.21875 C 79.625 50.648438 80.148438 50.734375 80.527344 50.734375 C 81.25 50.734375 81.984375 50.410156 82.566406 49.824219 C 83.15625 49.222656 83.46875 48.460938 83.46875 47.765625 C 83.46875 47.25 83.296875 46.773438 82.9375 46.414062 L 74.234375 37.609375 C 73.96875 37.34375 73.96875 36.914062 74.234375 36.648438 C 74.503906 36.382812 74.929688 36.382812 75.195312 36.648438 L 84.46875 46.023438 C 85.269531 46.824219 86.832031 46.644531 87.835938 45.632812 C 88.417969 45.054688 88.742188 44.300781 88.742188 43.578125 C 88.742188 43.195312 88.648438 42.65625 88.210938 42.226562 L 76.480469 30.363281 Z M 76.460938 30.402344 " fill-opacity="1" fill-rule="nonzero"/></g><g clip-path="url(#b533e8b99b)"><path fill="#b5aa8e" d="M 84.753906 11.535156 C 79.890625 12.195312 75.476562 16.019531 73.277344 18.246094 L 60.246094 31.402344 C 60.128906 31.515625 60.109375 31.714844 60.195312 31.851562 C 60.882812 32.917969 61.921875 33.609375 63.117188 33.785156 C 64.308594 33.964844 65.519531 33.601562 66.449219 32.800781 C 67.257812 32.089844 68.628906 30.804688 70 29.433594 C 70.378906 29.0625 70.859375 28.84375 71.363281 28.8125 C 72.855469 28.71875 74.34375 28.84375 75.789062 28.96875 C 77.484375 29.121094 79.101562 29.253906 80.730469 29.0625 C 83.269531 28.773438 85.324219 27.355469 87.191406 25.929688 C 87.496094 25.699219 87.921875 25.757812 88.140625 26.0625 C 88.371094 26.359375 88.304688 26.789062 88.007812 27.015625 C 85.972656 28.554688 83.753906 30.089844 80.878906 30.421875 C 80.082031 30.515625 79.273438 30.527344 78.484375 30.507812 L 89.160156 41.285156 C 89.378906 41.519531 89.5625 41.78125 89.703125 42.066406 L 96.023438 35.550781 C 98.679688 32.8125 100.144531 29.222656 100.144531 25.464844 C 100.144531 21.710938 98.730469 18.183594 96.148438 15.523438 C 93.179688 12.460938 88.925781 10.96875 84.761719 11.527344 Z M 84.753906 11.535156 " fill-opacity="1" fill-rule="nonzero"/></g><g fill="#b5aa8e" fill-opacity="1"><g transform="translate(48.863085, 27.449997)"><g><path d="M 3.546875 -8.71875 C 4.578125 -8.71875 5.367188 -8.382812 5.921875 -7.71875 L 5.09375 -7 C 4.769531 -7.5 4.253906 -7.757812 3.546875 -7.78125 C 3.003906 -7.78125 2.566406 -7.648438 2.234375 -7.390625 C 1.898438 -7.140625 1.734375 -6.789062 1.734375 -6.34375 C 1.734375 -5.957031 1.859375 -5.648438 2.109375 -5.421875 C 2.367188 -5.203125 2.847656 -4.988281 3.546875 -4.78125 C 4.460938 -4.507812 5.109375 -4.179688 5.484375 -3.796875 C 5.867188 -3.421875 6.0625 -2.910156 6.0625 -2.265625 C 6.0625 -1.515625 5.78125 -0.914062 5.21875 -0.46875 C 4.65625 -0.0195312 3.941406 0.207031 3.078125 0.21875 C 2.492188 0.21875 1.972656 0.113281 1.515625 -0.09375 C 1.054688 -0.300781 0.703125 -0.585938 0.453125 -0.953125 L 1.3125 -1.671875 C 1.5 -1.367188 1.753906 -1.132812 2.078125 -0.96875 C 2.410156 -0.800781 2.757812 -0.71875 3.125 -0.71875 C 3.632812 -0.71875 4.070312 -0.859375 4.4375 -1.140625 C 4.800781 -1.429688 4.984375 -1.785156 4.984375 -2.203125 C 4.984375 -2.578125 4.875 -2.867188 4.65625 -3.078125 C 4.445312 -3.296875 4.097656 -3.484375 3.609375 -3.640625 L 2.640625 -3.953125 C 1.910156 -4.203125 1.394531 -4.515625 1.09375 -4.890625 C 0.789062 -5.265625 0.640625 -5.722656 0.640625 -6.265625 C 0.640625 -6.984375 0.90625 -7.566406 1.4375 -8.015625 C 1.976562 -8.472656 2.679688 -8.707031 3.546875 -8.71875 Z M 3.546875 -8.71875 "/></g></g></g></svg>