<svg xmlns="http://www.w3.org/2000/svg" xmlns:xlink="http://www.w3.org/1999/xlink" width="200" zoomAndPan="magnify" viewBox="0 0 150 74.999997" height="100" preserveAspectRatio="xMidYMid meet" version="1.0"><defs><g/><clipPath id="566ea2481f"><rect x="0" width="99" y="0" height="13"/></clipPath><clipPath id="49bf5a168c"><path d="M 5 21.375 L 35 21.375 L 35 51.375 L 5 51.375 Z M 5 21.375 " clip-rule="nonzero"/></clipPath><clipPath id="cd228b9e44"><path d="M 16 21.375 L 41.722656 21.375 L 41.722656 41 L 16 41 Z M 16 21.375 " clip-rule="nonzero"/></clipPath></defs><g transform="matrix(1, 0, 0, 1, 43, 30)"><g clip-path="url(#566ea2481f)"><g fill="#b5aa8e" fill-opacity="1"><g transform="translate(1.11011, 9.342319)"><g><path d="M 0.609375 0 L 0.609375 -6.21875 L 1.75 -6.21875 L 4.671875 -1.84375 L 4.671875 -6.21875 L 5.8125 -6.21875 L 5.8125 0 L 4.671875 0 L 1.75 -4.375 L 1.75 0 Z M 0.609375 0 "/></g></g></g><g fill="#b5aa8e" fill-opacity="1"><g transform="translate(7.525553, 9.342319)"><g><path d="M 0.609375 0 L 0.609375 -6.21875 L 4.671875 -6.21875 L 4.671875 -5.3125 L 1.75 -5.3125 L 1.75 -3.59375 L 4.40625 -3.59375 L 4.40625 -2.71875 L 1.75 -2.71875 L 1.75 -0.921875 L 4.671875 -0.921875 L 4.671875 0 Z M 0.609375 0 "/></g></g></g><g fill="#b5aa8e" fill-opacity="1"><g transform="translate(12.66859, 9.342319)"><g><path d="M 2.046875 0 L 2.046875 -5.3125 L 0.234375 -5.3125 L 0.234375 -6.21875 L 5.015625 -6.21875 L 5.015625 -5.3125 L 3.1875 -5.3125 L 3.1875 0 Z M 2.046875 0 "/></g></g></g><g fill="#b5aa8e" fill-opacity="1"><g transform="translate(17.927305, 9.342319)"><g><path d="M 1.859375 0 L 0.21875 -6.21875 L 1.4375 -6.21875 L 2.5625 -1.265625 L 3.875 -6.21875 L 5.125 -6.21875 L 6.40625 -1.265625 L 7.53125 -6.21875 L 8.75 -6.21875 L 7.0625 0 L 5.71875 0 L 4.484375 -4.609375 L 3.203125 0 Z M 1.859375 0 "/></g></g></g><g fill="#b5aa8e" fill-opacity="1"><g transform="translate(26.647334, 9.342319)"><g><path d="M 3.515625 0.109375 C 2.898438 0.109375 2.359375 -0.0234375 1.890625 -0.296875 C 1.421875 -0.578125 1.054688 -0.957031 0.796875 -1.4375 C 0.535156 -1.914062 0.40625 -2.472656 0.40625 -3.109375 C 0.40625 -3.742188 0.535156 -4.300781 0.796875 -4.78125 C 1.054688 -5.269531 1.421875 -5.648438 1.890625 -5.921875 C 2.359375 -6.191406 2.898438 -6.328125 3.515625 -6.328125 C 4.140625 -6.328125 4.679688 -6.191406 5.140625 -5.921875 C 5.609375 -5.648438 5.972656 -5.269531 6.234375 -4.78125 C 6.492188 -4.300781 6.625 -3.742188 6.625 -3.109375 C 6.625 -2.472656 6.492188 -1.914062 6.234375 -1.4375 C 5.972656 -0.957031 5.609375 -0.578125 5.140625 -0.296875 C 4.679688 -0.0234375 4.140625 0.109375 3.515625 0.109375 Z M 3.515625 -0.921875 C 4.109375 -0.921875 4.582031 -1.113281 4.9375 -1.5 C 5.289062 -1.894531 5.46875 -2.429688 5.46875 -3.109375 C 5.46875 -3.796875 5.289062 -4.332031 4.9375 -4.71875 C 4.582031 -5.113281 4.109375 -5.3125 3.515625 -5.3125 C 2.921875 -5.3125 2.445312 -5.113281 2.09375 -4.71875 C 1.738281 -4.332031 1.5625 -3.796875 1.5625 -3.109375 C 1.5625 -2.429688 1.738281 -1.894531 2.09375 -1.5 C 2.445312 -1.113281 2.921875 -0.921875 3.515625 -0.921875 Z M 3.515625 -0.921875 "/></g></g></g><g fill="#b5aa8e" fill-opacity="1"><g transform="translate(33.685641, 9.342319)"><g><path d="M 0.609375 0 L 0.609375 -6.21875 L 2.890625 -6.21875 C 3.390625 -6.21875 3.800781 -6.132812 4.125 -5.96875 C 4.445312 -5.800781 4.6875 -5.570312 4.84375 -5.28125 C 5 -5 5.078125 -4.679688 5.078125 -4.328125 C 5.078125 -3.953125 4.976562 -3.601562 4.78125 -3.28125 C 4.582031 -2.96875 4.273438 -2.742188 3.859375 -2.609375 L 5.140625 0 L 3.84375 0 L 2.6875 -2.453125 L 1.75 -2.453125 L 1.75 0 Z M 1.75 -3.296875 L 2.8125 -3.296875 C 3.195312 -3.296875 3.476562 -3.382812 3.65625 -3.5625 C 3.832031 -3.75 3.921875 -3.992188 3.921875 -4.296875 C 3.921875 -4.585938 3.832031 -4.820312 3.65625 -5 C 3.476562 -5.175781 3.195312 -5.265625 2.8125 -5.265625 L 1.75 -5.265625 Z M 1.75 -3.296875 "/></g></g></g><g fill="#b5aa8e" fill-opacity="1"><g transform="translate(39.229091, 9.342319)"><g><path d="M 0.609375 0 L 0.609375 -6.21875 L 1.75 -6.21875 L 1.75 -3.703125 L 4.046875 -6.21875 L 5.453125 -6.21875 L 3.15625 -3.75 L 5.515625 0 L 4.109375 0 L 2.34375 -2.875 L 1.75 -2.234375 L 1.75 0 Z M 0.609375 0 "/></g></g></g><g fill="#b5aa8e" fill-opacity="1"><g transform="translate(44.923802, 9.342319)"><g/></g></g><g fill="#b5aa8e" fill-opacity="1"><g transform="translate(47.041522, 9.342319)"><g><path d="M 2.734375 0.109375 C 2.273438 0.109375 1.867188 0.0273438 1.515625 -0.125 C 1.171875 -0.28125 0.894531 -0.503906 0.6875 -0.796875 C 0.488281 -1.097656 0.382812 -1.457031 0.375 -1.875 L 1.578125 -1.875 C 1.585938 -1.582031 1.691406 -1.335938 1.890625 -1.140625 C 2.097656 -0.941406 2.375 -0.84375 2.71875 -0.84375 C 3.019531 -0.84375 3.257812 -0.914062 3.4375 -1.0625 C 3.613281 -1.207031 3.703125 -1.398438 3.703125 -1.640625 C 3.703125 -1.898438 3.625 -2.097656 3.46875 -2.234375 C 3.3125 -2.378906 3.101562 -2.492188 2.84375 -2.578125 C 2.582031 -2.671875 2.304688 -2.769531 2.015625 -2.875 C 1.535156 -3.039062 1.164062 -3.253906 0.90625 -3.515625 C 0.65625 -3.773438 0.53125 -4.117188 0.53125 -4.546875 C 0.53125 -4.921875 0.617188 -5.238281 0.796875 -5.5 C 0.972656 -5.757812 1.21875 -5.960938 1.53125 -6.109375 C 1.851562 -6.253906 2.21875 -6.328125 2.625 -6.328125 C 3.039062 -6.328125 3.40625 -6.253906 3.71875 -6.109375 C 4.039062 -5.960938 4.289062 -5.753906 4.46875 -5.484375 C 4.644531 -5.210938 4.738281 -4.894531 4.75 -4.53125 L 3.53125 -4.53125 C 3.53125 -4.75 3.445312 -4.941406 3.28125 -5.109375 C 3.125 -5.285156 2.898438 -5.375 2.609375 -5.375 C 2.359375 -5.375 2.144531 -5.3125 1.96875 -5.1875 C 1.800781 -5.0625 1.71875 -4.875 1.71875 -4.625 C 1.71875 -4.425781 1.78125 -4.265625 1.90625 -4.140625 C 2.039062 -4.015625 2.222656 -3.910156 2.453125 -3.828125 C 2.679688 -3.742188 2.941406 -3.65625 3.234375 -3.5625 C 3.535156 -3.457031 3.8125 -3.332031 4.0625 -3.1875 C 4.320312 -3.050781 4.53125 -2.863281 4.6875 -2.625 C 4.84375 -2.394531 4.921875 -2.09375 4.921875 -1.71875 C 4.921875 -1.394531 4.835938 -1.09375 4.671875 -0.8125 C 4.503906 -0.539062 4.253906 -0.316406 3.921875 -0.140625 C 3.597656 0.0234375 3.203125 0.109375 2.734375 0.109375 Z M 2.734375 0.109375 "/></g></g></g><g fill="#b5aa8e" fill-opacity="1"><g transform="translate(52.353617, 9.342319)"><g><path d="M 3 0.109375 C 2.550781 0.109375 2.140625 0.0195312 1.765625 -0.15625 C 1.398438 -0.34375 1.109375 -0.617188 0.890625 -0.984375 C 0.671875 -1.347656 0.5625 -1.8125 0.5625 -2.375 L 0.5625 -6.21875 L 1.703125 -6.21875 L 1.703125 -2.375 C 1.703125 -1.882812 1.816406 -1.519531 2.046875 -1.28125 C 2.285156 -1.050781 2.613281 -0.9375 3.03125 -0.9375 C 3.4375 -0.9375 3.757812 -1.050781 4 -1.28125 C 4.238281 -1.519531 4.359375 -1.882812 4.359375 -2.375 L 4.359375 -6.21875 L 5.5 -6.21875 L 5.5 -2.375 C 5.5 -1.8125 5.382812 -1.347656 5.15625 -0.984375 C 4.925781 -0.617188 4.625 -0.34375 4.25 -0.15625 C 3.875 0.0195312 3.457031 0.109375 3 0.109375 Z M 3 0.109375 "/></g></g></g><g fill="#b5aa8e" fill-opacity="1"><g transform="translate(58.413147, 9.342319)"><g><path d="M 0.609375 0 L 0.609375 -6.21875 L 2.90625 -6.21875 C 3.40625 -6.21875 3.816406 -6.132812 4.140625 -5.96875 C 4.460938 -5.800781 4.703125 -5.570312 4.859375 -5.28125 C 5.023438 -5 5.109375 -4.675781 5.109375 -4.3125 C 5.109375 -3.96875 5.03125 -3.648438 4.875 -3.359375 C 4.726562 -3.078125 4.488281 -2.847656 4.15625 -2.671875 C 3.832031 -2.492188 3.414062 -2.40625 2.90625 -2.40625 L 1.75 -2.40625 L 1.75 0 Z M 1.75 -3.328125 L 2.84375 -3.328125 C 3.238281 -3.328125 3.519531 -3.414062 3.6875 -3.59375 C 3.863281 -3.769531 3.953125 -4.007812 3.953125 -4.3125 C 3.953125 -4.625 3.863281 -4.863281 3.6875 -5.03125 C 3.519531 -5.207031 3.238281 -5.296875 2.84375 -5.296875 L 1.75 -5.296875 Z M 1.75 -3.328125 "/></g></g></g><g fill="#b5aa8e" fill-opacity="1"><g transform="translate(63.814229, 9.342319)"><g><path d="M 0.609375 0 L 0.609375 -6.21875 L 2.90625 -6.21875 C 3.40625 -6.21875 3.816406 -6.132812 4.140625 -5.96875 C 4.460938 -5.800781 4.703125 -5.570312 4.859375 -5.28125 C 5.023438 -5 5.109375 -4.675781 5.109375 -4.3125 C 5.109375 -3.96875 5.03125 -3.648438 4.875 -3.359375 C 4.726562 -3.078125 4.488281 -2.847656 4.15625 -2.671875 C 3.832031 -2.492188 3.414062 -2.40625 2.90625 -2.40625 L 1.75 -2.40625 L 1.75 0 Z M 1.75 -3.328125 L 2.84375 -3.328125 C 3.238281 -3.328125 3.519531 -3.414062 3.6875 -3.59375 C 3.863281 -3.769531 3.953125 -4.007812 3.953125 -4.3125 C 3.953125 -4.625 3.863281 -4.863281 3.6875 -5.03125 C 3.519531 -5.207031 3.238281 -5.296875 2.84375 -5.296875 L 1.75 -5.296875 Z M 1.75 -3.328125 "/></g></g></g><g fill="#b5aa8e" fill-opacity="1"><g transform="translate(69.215312, 9.342319)"><g><path d="M 3.515625 0.109375 C 2.898438 0.109375 2.359375 -0.0234375 1.890625 -0.296875 C 1.421875 -0.578125 1.054688 -0.957031 0.796875 -1.4375 C 0.535156 -1.914062 0.40625 -2.472656 0.40625 -3.109375 C 0.40625 -3.742188 0.535156 -4.300781 0.796875 -4.78125 C 1.054688 -5.269531 1.421875 -5.648438 1.890625 -5.921875 C 2.359375 -6.191406 2.898438 -6.328125 3.515625 -6.328125 C 4.140625 -6.328125 4.679688 -6.191406 5.140625 -5.921875 C 5.609375 -5.648438 5.972656 -5.269531 6.234375 -4.78125 C 6.492188 -4.300781 6.625 -3.742188 6.625 -3.109375 C 6.625 -2.472656 6.492188 -1.914062 6.234375 -1.4375 C 5.972656 -0.957031 5.609375 -0.578125 5.140625 -0.296875 C 4.679688 -0.0234375 4.140625 0.109375 3.515625 0.109375 Z M 3.515625 -0.921875 C 4.109375 -0.921875 4.582031 -1.113281 4.9375 -1.5 C 5.289062 -1.894531 5.46875 -2.429688 5.46875 -3.109375 C 5.46875 -3.796875 5.289062 -4.332031 4.9375 -4.71875 C 4.582031 -5.113281 4.109375 -5.3125 3.515625 -5.3125 C 2.921875 -5.3125 2.445312 -5.113281 2.09375 -4.71875 C 1.738281 -4.332031 1.5625 -3.796875 1.5625 -3.109375 C 1.5625 -2.429688 1.738281 -1.894531 2.09375 -1.5 C 2.445312 -1.113281 2.921875 -0.921875 3.515625 -0.921875 Z M 3.515625 -0.921875 "/></g></g></g><g fill="#b5aa8e" fill-opacity="1"><g transform="translate(76.253618, 9.342319)"><g><path d="M 0.609375 0 L 0.609375 -6.21875 L 2.890625 -6.21875 C 3.390625 -6.21875 3.800781 -6.132812 4.125 -5.96875 C 4.445312 -5.800781 4.6875 -5.570312 4.84375 -5.28125 C 5 -5 5.078125 -4.679688 5.078125 -4.328125 C 5.078125 -3.953125 4.976562 -3.601562 4.78125 -3.28125 C 4.582031 -2.96875 4.273438 -2.742188 3.859375 -2.609375 L 5.140625 0 L 3.84375 0 L 2.6875 -2.453125 L 1.75 -2.453125 L 1.75 0 Z M 1.75 -3.296875 L 2.8125 -3.296875 C 3.195312 -3.296875 3.476562 -3.382812 3.65625 -3.5625 C 3.832031 -3.75 3.921875 -3.992188 3.921875 -4.296875 C 3.921875 -4.585938 3.832031 -4.820312 3.65625 -5 C 3.476562 -5.175781 3.195312 -5.265625 2.8125 -5.265625 L 1.75 -5.265625 Z M 1.75 -3.296875 "/></g></g></g><g fill="#b5aa8e" fill-opacity="1"><g transform="translate(81.797069, 9.342319)"><g><path d="M 2.046875 0 L 2.046875 -5.3125 L 0.234375 -5.3125 L 0.234375 -6.21875 L 5.015625 -6.21875 L 5.015625 -5.3125 L 3.1875 -5.3125 L 3.1875 0 Z M 2.046875 0 "/></g></g></g><g fill="#b5aa8e" fill-opacity="1"><g transform="translate(87.055783, 9.342319)"><g><path d="M 0.609375 0 L 0.609375 -6.21875 L 4.671875 -6.21875 L 4.671875 -5.3125 L 1.75 -5.3125 L 1.75 -3.59375 L 4.40625 -3.59375 L 4.40625 -2.71875 L 1.75 -2.71875 L 1.75 -0.921875 L 4.671875 -0.921875 L 4.671875 0 Z M 0.609375 0 "/></g></g></g><g fill="#b5aa8e" fill-opacity="1"><g transform="translate(92.198821, 9.342319)"><g><path d="M 0.609375 0 L 0.609375 -6.21875 L 2.890625 -6.21875 C 3.390625 -6.21875 3.800781 -6.132812 4.125 -5.96875 C 4.445312 -5.800781 4.6875 -5.570312 4.84375 -5.28125 C 5 -5 5.078125 -4.679688 5.078125 -4.328125 C 5.078125 -3.953125 4.976562 -3.601562 4.78125 -3.28125 C 4.582031 -2.96875 4.273438 -2.742188 3.859375 -2.609375 L 5.140625 0 L 3.84375 0 L 2.6875 -2.453125 L 1.75 -2.453125 L 1.75 0 Z M 1.75 -3.296875 L 2.8125 -3.296875 C 3.195312 -3.296875 3.476562 -3.382812 3.65625 -3.5625 C 3.832031 -3.75 3.921875 -3.992188 3.921875 -4.296875 C 3.921875 -4.585938 3.832031 -4.820312 3.65625 -5 C 3.476562 -5.175781 3.195312 -5.265625 2.8125 -5.265625 L 1.75 -5.265625 Z M 1.75 -3.296875 "/></g></g></g></g></g><g clip-path="url(#49bf5a168c)"><path fill="#b5aa8e" d="M 26.621094 33.488281 C 26.449219 33.476562 26.285156 33.464844 26.125 33.449219 C 25.257812 33.371094 24.359375 33.296875 23.496094 33.347656 C 23.382812 33.355469 23.277344 33.40625 23.191406 33.492188 C 22.324219 34.359375 21.453125 35.175781 20.933594 35.625 C 20.175781 36.285156 19.167969 36.582031 18.179688 36.4375 C 17.191406 36.292969 16.335938 35.726562 15.777344 34.84375 C 15.511719 34.429688 15.574219 33.867188 15.925781 33.511719 L 22.296875 27.082031 L 19.523438 24.222656 C 17.925781 22.574219 15.796875 21.664062 13.535156 21.664062 C 11.273438 21.664062 9.148438 22.574219 7.550781 24.222656 C 4.234375 27.640625 4.234375 33.199219 7.550781 36.617188 L 11.890625 41.09375 L 21.746094 51.046875 C 22.011719 51.320312 22.34375 51.371094 22.578125 51.371094 C 23.023438 51.371094 23.488281 51.164062 23.847656 50.808594 C 24.492188 50.15625 24.597656 49.203125 24.085938 48.6875 L 18.65625 43.199219 C 18.492188 43.03125 18.496094 42.765625 18.660156 42.597656 C 18.824219 42.433594 19.09375 42.433594 19.253906 42.597656 L 24.683594 48.082031 C 24.683594 48.082031 25.039062 48.441406 25.039062 48.441406 C 25.304688 48.710938 25.632812 48.765625 25.863281 48.765625 C 26.3125 48.765625 26.777344 48.5625 27.136719 48.199219 C 27.503906 47.824219 27.695312 47.347656 27.695312 46.914062 C 27.695312 46.59375 27.589844 46.296875 27.375 46.074219 L 21.945312 40.585938 C 21.785156 40.421875 21.785156 40.152344 21.949219 39.988281 C 22.113281 39.820312 22.382812 39.820312 22.542969 39.988281 L 28.328125 45.832031 C 28.59375 46.097656 28.917969 46.152344 29.152344 46.152344 C 29.601562 46.152344 30.0625 45.949219 30.425781 45.585938 C 30.792969 45.210938 30.984375 44.738281 30.984375 44.304688 C 30.984375 43.980469 30.878906 43.683594 30.65625 43.460938 L 25.234375 37.976562 C 25.066406 37.8125 25.066406 37.542969 25.234375 37.378906 C 25.402344 37.214844 25.667969 37.214844 25.832031 37.378906 L 31.609375 43.21875 C 32.109375 43.71875 33.082031 43.605469 33.703125 42.976562 C 34.066406 42.617188 34.269531 42.144531 34.269531 41.695312 C 34.269531 41.457031 34.210938 41.121094 33.941406 40.855469 L 26.632812 33.464844 Z M 26.621094 33.488281 " fill-opacity="1" fill-rule="nonzero"/></g><g clip-path="url(#cd228b9e44)"><path fill="#b5aa8e" d="M 31.785156 21.734375 C 28.757812 22.148438 26.007812 24.527344 24.640625 25.914062 L 16.523438 34.109375 C 16.449219 34.179688 16.433594 34.304688 16.488281 34.390625 C 16.917969 35.054688 17.566406 35.484375 18.308594 35.597656 C 19.050781 35.707031 19.804688 35.480469 20.382812 34.980469 C 20.886719 34.539062 21.742188 33.738281 22.597656 32.886719 C 22.832031 32.652344 23.132812 32.519531 23.445312 32.496094 C 24.375 32.441406 25.304688 32.519531 26.203125 32.597656 C 27.257812 32.691406 28.265625 32.773438 29.28125 32.652344 C 30.863281 32.472656 32.140625 31.589844 33.304688 30.703125 C 33.496094 30.558594 33.757812 30.59375 33.894531 30.785156 C 34.039062 30.96875 33.996094 31.238281 33.8125 31.378906 C 32.546875 32.335938 31.164062 33.292969 29.371094 33.5 C 28.875 33.558594 28.375 33.566406 27.882812 33.554688 L 34.53125 40.269531 C 34.667969 40.414062 34.78125 40.578125 34.867188 40.753906 L 38.804688 36.695312 C 40.460938 34.988281 41.371094 32.753906 41.371094 30.414062 C 41.371094 28.074219 40.492188 25.878906 38.882812 24.21875 C 37.035156 22.3125 34.386719 21.382812 31.789062 21.730469 Z M 31.785156 21.734375 " fill-opacity="1" fill-rule="nonzero"/></g></svg>