<svg xmlns="http://www.w3.org/2000/svg" xmlns:xlink="http://www.w3.org/1999/xlink" width="1080" zoomAndPan="magnify" viewBox="0 0 810 1012.49997" height="1350" preserveAspectRatio="xMidYMid meet" version="1.0"><defs><g/><clipPath id="e5e46a9b8e"><path d="M 169 280 L 311 280 L 311 497 L 169 497 Z M 169 280 " clip-rule="nonzero"/></clipPath><clipPath id="69f4afea72"><path d="M 206.816406 533.308594 L 69.550781 377.5 L 221.984375 243.210938 L 359.25 399.019531 Z M 206.816406 533.308594 " clip-rule="nonzero"/></clipPath><clipPath id="d8886ca4fd"><path d="M 206.816406 533.308594 L 69.550781 377.5 L 221.984375 243.210938 L 359.25 399.019531 Z M 206.816406 533.308594 " clip-rule="nonzero"/></clipPath><clipPath id="d3e8710528"><path d="M 69.761719 371 L 222 371 L 222 533.46875 L 69.761719 533.46875 Z M 69.761719 371 " clip-rule="nonzero"/></clipPath><clipPath id="472e7b6f5a"><path d="M 29 507.761719 L 134 507.761719 L 134 536 L 29 536 Z M 29 507.761719 " clip-rule="nonzero"/></clipPath><clipPath id="b854ffc88d"><path d="M 21.875 517 L 211 517 L 211 552 L 21.875 552 Z M 21.875 517 " clip-rule="nonzero"/></clipPath><clipPath id="c5dbd3cd63"><path d="M 154 521 L 271.5 521 L 271.5 550 L 154 550 Z M 154 521 " clip-rule="nonzero"/></clipPath><clipPath id="fdcb68e877"><path d="M 39 0.90625 L 363 0.90625 L 363 50 L 39 50 Z M 39 0.90625 " clip-rule="nonzero"/></clipPath><clipPath id="fe0f054102"><rect x="0" width="324" y="0" height="50"/></clipPath><clipPath id="1cccd89037"><path d="M 0.113281 45 L 393.996094 45 L 393.996094 139.558594 L 0.113281 139.558594 Z M 0.113281 45 " clip-rule="nonzero"/></clipPath><clipPath id="e4a3b2c461"><path d="M 352 20 L 393.996094 20 L 393.996094 76 L 352 76 Z M 352 20 " clip-rule="nonzero"/></clipPath><clipPath id="95f025768b"><rect x="0" width="394" y="0" height="95"/></clipPath><clipPath id="3fd4d8dddb"><rect x="0" width="394" y="0" height="140"/></clipPath></defs><g clip-path="url(#e5e46a9b8e)"><g clip-path="url(#69f4afea72)"><g clip-path="url(#d8886ca4fd)"><path fill="#3e6a70" d="M 268.933594 324.378906 C 304.535156 369.9375 296.976562 435.390625 251.980469 470.585938 C 227.664062 489.605469 197.386719 495.878906 169.078125 490.472656 C 202.214844 501.570312 240.097656 496.367188 269.667969 473.230469 C 316.496094 436.601562 324.738281 368.976562 288.128906 322.175781 C 260.785156 287.195312 216.140625 273.746094 175.773438 284.421875 C 210.226562 280.949219 245.839844 294.859375 268.933594 324.378906 Z M 268.933594 324.378906 " fill-opacity="1" fill-rule="nonzero"/></g></g></g><g clip-path="url(#d3e8710528)"><path fill="#5ba1a9" d="M 218.269531 423.6875 C 213.121094 408.957031 200.089844 396.539062 184.582031 394.785156 C 182.425781 394.539062 174.082031 393.097656 164.855469 396.382812 C 175.316406 391.515625 184.90625 392.828125 192.210938 393.828125 C 203.738281 395.398438 212.601562 399.796875 218.269531 403.324219 C 212.691406 391.75 203.90625 381.316406 192.1875 376.035156 C 180.492188 370.765625 165.6875 371.492188 155.847656 379.746094 C 154.277344 381.070312 147.117188 386.363281 144.324219 395.929688 C 141.871094 385.441406 134.074219 379.667969 132.425781 378.277344 C 122.589844 370.027344 107.78125 369.296875 96.074219 374.582031 C 84.371094 379.863281 75.570312 390.296875 69.992188 401.859375 C 75.660156 398.316406 84.523438 393.929688 96.050781 392.359375 C 102.964844 391.414062 111.933594 390.191406 121.757812 394.191406 C 115.371094 393.203125 110.234375 394.074219 108.613281 394.253906 C 93.101562 396.007812 80.074219 408.425781 74.921875 423.15625 C 69.769531 437.886719 71.601562 454.367188 77.128906 468.953125 C 78.75 460.996094 82.304688 449.527344 90.558594 438.054688 C 95.789062 430.785156 102.667969 421.234375 115.710938 416.09375 C 120.292969 414.292969 124.753906 413.371094 128.894531 413.007812 C 126.742188 415.109375 124.78125 417.652344 123.210938 420.753906 C 117.980469 431.070312 117.722656 443.375 120.355469 454.652344 C 121.421875 448.488281 123.976562 438.417969 130.972656 428.085938 C 134.683594 422.585938 138.5 418.71875 140.847656 416.574219 C 140.859375 416.40625 140.859375 416.226562 140.875 416.058594 C 140.859375 416.277344 140.859375 416.496094 140.847656 416.71875 C 138.953125 458.738281 137.058594 500.761719 135.175781 542.78125 C 136.085938 543.820312 140.109375 548.167969 146.246094 548.117188 C 152.230469 548.0625 156.136719 543.859375 157.070312 542.78125 C 154.902344 500.175781 152.746094 457.585938 150.582031 414.980469 C 155.953125 416.824219 162.078125 419.78125 167.96875 424.558594 C 169.136719 425.503906 174.628906 430.035156 179.910156 437.859375 C 186.890625 448.203125 189.460938 458.257812 190.523438 464.421875 C 193.160156 453.144531 192.898438 440.855469 187.671875 430.527344 C 181.984375 419.3125 171.148438 415.277344 164.464844 413.566406 C 168.566406 413.941406 172.980469 414.851562 177.496094 416.640625 C 190.539062 421.78125 197.417969 431.332031 202.644531 438.597656 C 210.898438 450.070312 214.457031 461.542969 216.089844 469.496094 C 221.59375 454.898438 223.4375 438.402344 218.269531 423.6875 Z M 218.269531 423.6875 " fill-opacity="1" fill-rule="nonzero"/></g><g clip-path="url(#472e7b6f5a)"><path fill="#5ba1a9" d="M 29.890625 535.449219 C 44.695312 527.585938 60.585938 522.320312 77.007812 526.300781 C 99.058594 531.648438 115.3125 536.378906 133.023438 528.230469 C 109.535156 530.511719 101.511719 519.695312 94.796875 507.769531 C 92.445312 514.71875 84.328125 519.558594 65.953125 520.765625 C 50.117188 521.808594 39.304688 527.941406 29.890625 535.449219 " fill-opacity="1" fill-rule="evenodd"/></g><g clip-path="url(#b854ffc88d)"><path fill="#5ba1a9" d="M 21.957031 550.132812 C 33.054688 542.589844 45.640625 535.976562 61.144531 537.617188 C 76.898438 539.28125 88.546875 543.503906 100.085938 547.003906 C 119.800781 552.984375 132.265625 547.652344 142.875 538.578125 C 169.328125 558.042969 189.832031 551.722656 210.429688 545.800781 C 176.855469 551.175781 154.175781 541.789062 142.394531 517.636719 C 135.785156 527.15625 130.96875 539.328125 107.300781 537.375 C 93.40625 536.226562 79.84375 531.34375 65.46875 530.878906 C 45.84375 530.238281 31.332031 537.617188 21.957031 550.132812 " fill-opacity="1" fill-rule="evenodd"/></g><path fill="#5ba1a9" d="M 67.875 542.910156 C 102.492188 554.347656 129.898438 557.957031 141.4375 544.355469 C 149.765625 553.542969 164.269531 556.109375 181.582031 555.671875 C 135.882812 567.570312 109.339844 558.863281 67.875 542.910156 " fill-opacity="1" fill-rule="evenodd"/><path fill="#5ba1a9" d="M 161.148438 562.167969 C 173.246094 567.789062 187.300781 568.886719 205.863281 560.484375 C 220.078125 554.042969 234.710938 551.980469 249.613281 553.984375 C 239.625 547.238281 227.46875 543.1875 209.46875 552.542969 C 197.128906 558.953125 182.742188 564.085938 161.148438 562.167969 " fill-opacity="1" fill-rule="evenodd"/><path fill="#5ba1a9" d="M 146.246094 521.007812 C 158.824219 528.789062 170.519531 528.632812 181.824219 524.859375 C 171.78125 524.421875 163.566406 522.574219 161.871094 515.710938 C 158.90625 519.722656 153.695312 521.488281 146.246094 521.007812 " fill-opacity="1" fill-rule="evenodd"/><path fill="#5ba1a9" d="M 201.296875 524.378906 C 210.710938 530.515625 222.410156 531.316406 235.671875 528.46875 C 226.296875 526.460938 221.089844 523.492188 220.046875 519.5625 C 215.71875 523.414062 209.46875 525.019531 201.296875 524.378906 " fill-opacity="1" fill-rule="evenodd"/><g clip-path="url(#c5dbd3cd63)"><path fill="#5ba1a9" d="M 154.660156 530.152344 C 179.488281 543.613281 203.074219 547.652344 230.863281 539.300781 C 245.105469 537.183594 258.289062 542.523438 271.25 549.410156 C 262.921875 542.324219 256.773438 534.191406 234.46875 533.765625 C 213.773438 534.183594 199.070312 530.695312 193.125 521.488281 C 183.90625 531.238281 170.285156 532.601562 154.660156 530.152344 " fill-opacity="1" fill-rule="evenodd"/></g><g transform="matrix(1, 0, 0, 1, 340, 434)"><g clip-path="url(#3fd4d8dddb)"><g clip-path="url(#fdcb68e877)"><g transform="matrix(1, 0, 0, 1, 39, 0)"><g clip-path="url(#fe0f054102)"><g fill="#5ba1a9" fill-opacity="1"><g transform="translate(1.337294, 37.747645)"><g><path d="M 13.328125 0 L 13.328125 -30.359375 L 1.484375 -30.359375 L 1.484375 -32.390625 L 27.359375 -32.390625 L 27.359375 -30.359375 L 15.5 -30.359375 L 15.5 0 Z M 13.328125 0 "/></g></g></g><g fill="#5ba1a9" fill-opacity="1"><g transform="translate(38.771828, 37.747645)"><g><path d="M 4.4375 -31.234375 C 4.039062 -31.234375 3.695312 -31.378906 3.40625 -31.671875 C 3.113281 -31.972656 2.96875 -32.320312 2.96875 -32.71875 C 2.96875 -33.125 3.113281 -33.460938 3.40625 -33.734375 C 3.695312 -34.015625 4.039062 -34.15625 4.4375 -34.15625 C 4.84375 -34.15625 5.179688 -34.015625 5.453125 -33.734375 C 5.734375 -33.460938 5.875 -33.125 5.875 -32.71875 C 5.875 -32.320312 5.734375 -31.972656 5.453125 -31.671875 C 5.179688 -31.378906 4.84375 -31.234375 4.4375 -31.234375 Z M 3.421875 0 L 3.421875 -24.71875 L 5.46875 -24.71875 L 5.46875 0 Z M 3.421875 0 "/></g></g></g><g fill="#5ba1a9" fill-opacity="1"><g transform="translate(56.217547, 37.747645)"><g><path d="M 14.90625 0.5625 C 12.5625 0.5625 10.4375 0.0117188 8.53125 -1.078125 C 6.632812 -2.179688 5.125 -3.703125 4 -5.640625 C 2.875 -7.585938 2.3125 -9.828125 2.3125 -12.359375 C 2.3125 -14.890625 2.875 -17.117188 4 -19.046875 C 5.125 -20.972656 6.632812 -22.484375 8.53125 -23.578125 C 10.4375 -24.671875 12.5625 -25.21875 14.90625 -25.21875 C 17.28125 -25.21875 19.4375 -24.65625 21.375 -23.53125 C 23.320312 -22.40625 24.820312 -20.867188 25.875 -18.921875 L 26.1875 -18.921875 L 26.1875 -36.046875 L 28.1875 -36.046875 L 28.1875 0.046875 L 26.1875 0.046875 L 26.1875 -5.734375 L 25.875 -5.734375 C 24.789062 -3.796875 23.285156 -2.257812 21.359375 -1.125 C 19.429688 0 17.28125 0.5625 14.90625 0.5625 Z M 15.21875 -1.296875 C 17.226562 -1.296875 19.054688 -1.765625 20.703125 -2.703125 C 22.359375 -3.648438 23.671875 -4.957031 24.640625 -6.625 C 25.617188 -8.289062 26.109375 -10.203125 26.109375 -12.359375 C 26.109375 -14.546875 25.617188 -16.460938 24.640625 -18.109375 C 23.671875 -19.765625 22.359375 -21.054688 20.703125 -21.984375 C 19.054688 -22.910156 17.226562 -23.375 15.21875 -23.375 C 13.21875 -23.375 11.382812 -22.910156 9.71875 -21.984375 C 8.050781 -21.054688 6.726562 -19.765625 5.75 -18.109375 C 4.78125 -16.460938 4.296875 -14.546875 4.296875 -12.359375 C 4.296875 -10.203125 4.78125 -8.289062 5.75 -6.625 C 6.726562 -4.957031 8.050781 -3.648438 9.71875 -2.703125 C 11.382812 -1.765625 13.21875 -1.296875 15.21875 -1.296875 Z M 15.21875 -1.296875 "/></g></g></g><g fill="#5ba1a9" fill-opacity="1"><g transform="translate(96.613387, 37.747645)"><g><path d="M 15.046875 0.5625 C 12.703125 0.5625 10.570312 0.0117188 8.65625 -1.078125 C 6.738281 -2.179688 5.21875 -3.703125 4.09375 -5.640625 C 2.96875 -7.585938 2.40625 -9.828125 2.40625 -12.359375 C 2.40625 -14.890625 2.96875 -17.117188 4.09375 -19.046875 C 5.21875 -20.972656 6.738281 -22.484375 8.65625 -23.578125 C 10.570312 -24.671875 12.703125 -25.21875 15.046875 -25.21875 C 17.484375 -25.21875 19.6875 -24.625 21.65625 -23.4375 C 23.632812 -22.25 25.144531 -20.625 26.1875 -18.5625 L 26.46875 -18.5625 L 27.21875 -24.71875 L 28.28125 -24.71875 L 28.28125 0 L 26.28125 0 L 26.28125 -5.78125 L 26.015625 -5.78125 C 24.929688 -3.8125 23.425781 -2.257812 21.5 -1.125 C 19.570312 0 17.421875 0.5625 15.046875 0.5625 Z M 15.3125 -1.296875 C 17.351562 -1.296875 19.195312 -1.765625 20.84375 -2.703125 C 22.5 -3.648438 23.8125 -4.957031 24.78125 -6.625 C 25.75 -8.289062 26.234375 -10.203125 26.234375 -12.359375 C 26.234375 -14.546875 25.75 -16.460938 24.78125 -18.109375 C 23.8125 -19.765625 22.5 -21.054688 20.84375 -21.984375 C 19.195312 -22.910156 17.351562 -23.375 15.3125 -23.375 C 13.3125 -23.375 11.484375 -22.910156 9.828125 -21.984375 C 8.179688 -21.054688 6.863281 -19.765625 5.875 -18.109375 C 4.882812 -16.460938 4.390625 -14.546875 4.390625 -12.359375 C 4.390625 -10.203125 4.875 -8.289062 5.84375 -6.625 C 6.820312 -4.957031 8.144531 -3.648438 9.8125 -2.703125 C 11.476562 -1.765625 13.3125 -1.296875 15.3125 -1.296875 Z M 15.3125 -1.296875 "/></g></g></g><g fill="#5ba1a9" fill-opacity="1"><g transform="translate(137.10176, 37.747645)"><g><path d="M 3.609375 0 L 3.609375 -36.046875 L 5.59375 -36.046875 L 5.59375 0 Z M 3.609375 0 "/></g></g></g><g fill="#5ba1a9" fill-opacity="1"><g transform="translate(154.917636, 37.747645)"><g/></g></g><g fill="#5ba1a9" fill-opacity="1"><g transform="translate(176.018702, 37.747645)"><g><path d="M 20.171875 0.5625 C 16.753906 0.5625 13.71875 -0.125 11.0625 -1.5 C 8.40625 -2.875 6.320312 -4.800781 4.8125 -7.28125 C 3.300781 -9.769531 2.546875 -12.648438 2.546875 -15.921875 C 2.546875 -18.359375 2.976562 -20.609375 3.84375 -22.671875 C 4.707031 -24.742188 5.925781 -26.539062 7.5 -28.0625 C 9.070312 -29.59375 10.9375 -30.78125 13.09375 -31.625 C 15.257812 -32.476562 17.617188 -32.90625 20.171875 -32.90625 C 21.867188 -32.90625 23.507812 -32.71875 25.09375 -32.34375 C 26.6875 -31.976562 28.148438 -31.441406 29.484375 -30.734375 L 29.203125 -28.328125 C 27.941406 -29.128906 26.550781 -29.753906 25.03125 -30.203125 C 23.519531 -30.648438 21.882812 -30.875 20.125 -30.875 C 17.132812 -30.875 14.472656 -30.21875 12.140625 -28.90625 C 9.816406 -27.59375 7.988281 -25.804688 6.65625 -23.546875 C 5.332031 -21.296875 4.671875 -18.753906 4.671875 -15.921875 C 4.671875 -13.023438 5.332031 -10.492188 6.65625 -8.328125 C 7.988281 -6.171875 9.828125 -4.488281 12.171875 -3.28125 C 14.515625 -2.082031 17.179688 -1.484375 20.171875 -1.484375 C 22.335938 -1.484375 24.375 -1.820312 26.28125 -2.5 C 28.195312 -3.175781 29.832031 -4.085938 31.1875 -5.234375 L 31.1875 -2.875 C 29.707031 -1.789062 28.039062 -0.945312 26.1875 -0.34375 C 24.34375 0.257812 22.335938 0.5625 20.171875 0.5625 Z M 20.171875 0.5625 "/></g></g></g><g fill="#5ba1a9" fill-opacity="1"><g transform="translate(216.645854, 37.747645)"><g><path d="M 15.046875 0.5625 C 12.703125 0.5625 10.570312 0.0117188 8.65625 -1.078125 C 6.738281 -2.179688 5.21875 -3.703125 4.09375 -5.640625 C 2.96875 -7.585938 2.40625 -9.828125 2.40625 -12.359375 C 2.40625 -14.890625 2.96875 -17.117188 4.09375 -19.046875 C 5.21875 -20.972656 6.738281 -22.484375 8.65625 -23.578125 C 10.570312 -24.671875 12.703125 -25.21875 15.046875 -25.21875 C 17.484375 -25.21875 19.6875 -24.625 21.65625 -23.4375 C 23.632812 -22.25 25.144531 -20.625 26.1875 -18.5625 L 26.46875 -18.5625 L 27.21875 -24.71875 L 28.28125 -24.71875 L 28.28125 0 L 26.28125 0 L 26.28125 -5.78125 L 26.015625 -5.78125 C 24.929688 -3.8125 23.425781 -2.257812 21.5 -1.125 C 19.570312 0 17.421875 0.5625 15.046875 0.5625 Z M 15.3125 -1.296875 C 17.351562 -1.296875 19.195312 -1.765625 20.84375 -2.703125 C 22.5 -3.648438 23.8125 -4.957031 24.78125 -6.625 C 25.75 -8.289062 26.234375 -10.203125 26.234375 -12.359375 C 26.234375 -14.546875 25.75 -16.460938 24.78125 -18.109375 C 23.8125 -19.765625 22.5 -21.054688 20.84375 -21.984375 C 19.195312 -22.910156 17.351562 -23.375 15.3125 -23.375 C 13.3125 -23.375 11.484375 -22.910156 9.828125 -21.984375 C 8.179688 -21.054688 6.863281 -19.765625 5.875 -18.109375 C 4.882812 -16.460938 4.390625 -14.546875 4.390625 -12.359375 C 4.390625 -10.203125 4.875 -8.289062 5.84375 -6.625 C 6.820312 -4.957031 8.144531 -3.648438 9.8125 -2.703125 C 11.476562 -1.765625 13.3125 -1.296875 15.3125 -1.296875 Z M 15.3125 -1.296875 "/></g></g></g><g fill="#5ba1a9" fill-opacity="1"><g transform="translate(257.134236, 37.747645)"><g><path d="M 3.609375 0 L 3.609375 -24.71875 L 4.765625 -24.71875 L 5.421875 -19.484375 L 5.6875 -19.484375 C 6.425781 -21.273438 7.535156 -22.675781 9.015625 -23.6875 C 10.503906 -24.707031 12.328125 -25.21875 14.484375 -25.21875 C 15.097656 -25.21875 15.582031 -25.191406 15.9375 -25.140625 C 16.289062 -25.097656 16.6875 -25.035156 17.125 -24.953125 L 16.84375 -23 C 16.414062 -23.15625 16.046875 -23.25 15.734375 -23.28125 C 15.421875 -23.3125 15.003906 -23.328125 14.484375 -23.328125 C 11.710938 -23.328125 9.5625 -22.445312 8.03125 -20.6875 C 6.5 -18.925781 5.6875 -16.582031 5.59375 -13.65625 L 5.59375 0 Z M 3.609375 0 "/></g></g></g><g fill="#5ba1a9" fill-opacity="1"><g transform="translate(283.695213, 37.747645)"><g><path d="M 15.6875 0.5625 C 13 0.5625 10.648438 0.0117188 8.640625 -1.078125 C 6.640625 -2.179688 5.082031 -3.703125 3.96875 -5.640625 C 2.863281 -7.585938 2.3125 -9.828125 2.3125 -12.359375 C 2.3125 -14.890625 2.890625 -17.117188 4.046875 -19.046875 C 5.203125 -20.972656 6.75 -22.484375 8.6875 -23.578125 C 10.632812 -24.671875 12.8125 -25.21875 15.21875 -25.21875 C 17.632812 -25.21875 19.820312 -24.671875 21.78125 -23.578125 C 23.738281 -22.484375 25.285156 -20.972656 26.421875 -19.046875 C 27.566406 -17.117188 28.140625 -14.890625 28.140625 -12.359375 L 28.140625 -11.484375 L 4.34375 -11.484375 C 4.46875 -9.472656 5.015625 -7.695312 5.984375 -6.15625 C 6.960938 -4.613281 8.273438 -3.414062 9.921875 -2.5625 C 11.578125 -1.71875 13.5 -1.296875 15.6875 -1.296875 C 17.601562 -1.296875 19.425781 -1.648438 21.15625 -2.359375 C 22.882812 -3.066406 24.347656 -4.128906 25.546875 -5.546875 L 26.84375 -4.03125 C 25.425781 -2.425781 23.742188 -1.257812 21.796875 -0.53125 C 19.847656 0.195312 17.8125 0.5625 15.6875 0.5625 Z M 4.34375 -13.28125 L 26.109375 -13.28125 C 25.984375 -15.289062 25.414062 -17.050781 24.40625 -18.5625 C 23.40625 -20.070312 22.109375 -21.25 20.515625 -22.09375 C 18.929688 -22.945312 17.164062 -23.375 15.21875 -23.375 C 13.3125 -23.375 11.5625 -22.945312 9.96875 -22.09375 C 8.382812 -21.25 7.085938 -20.070312 6.078125 -18.5625 C 5.078125 -17.050781 4.5 -15.289062 4.34375 -13.28125 Z M 4.34375 -13.28125 "/></g></g></g></g></g></g><g clip-path="url(#1cccd89037)"><g transform="matrix(1, 0, 0, 1, -0.000000000000056843, 45)"><g clip-path="url(#95f025768b)"><g fill="#3e6a70" fill-opacity="1"><g transform="translate(0.676119, 75.573648)"><g><path d="M 52.359375 0 L 46.1875 0 L 13.3125 -46.75 L 13.3125 0 L 7.640625 0 L 7.640625 -54.890625 L 14.296875 -54.890625 L 46.6875 -9.046875 L 46.6875 -54.890625 L 52.359375 -54.890625 Z M 52.359375 0 "/></g></g></g><g fill="#3e6a70" fill-opacity="1"><g transform="translate(60.666398, 75.573648)"><g><path d="M 41.984375 -49.5625 L 13.390625 -49.5625 L 13.390625 -30.5625 L 39.53125 -30.5625 L 39.53125 -25.234375 L 13.390625 -25.234375 L 13.390625 -5.328125 L 42.265625 -5.328125 L 42.265625 0 L 7.640625 0 L 7.640625 -54.890625 L 41.984375 -54.890625 Z M 41.984375 -49.5625 "/></g></g></g><g fill="#3e6a70" fill-opacity="1"><g transform="translate(107.200914, 75.573648)"><g><path d="M 19.84375 -49.484375 L 1.46875 -49.484375 L 1.46875 -54.890625 L 43.953125 -54.890625 L 43.953125 -49.484375 L 25.65625 -49.484375 L 25.65625 0 L 19.84375 0 Z M 19.84375 -49.484375 "/></g></g></g><g fill="#3e6a70" fill-opacity="1"><g transform="translate(152.614113, 75.573648)"><g><path d="M 7.984375 -54.890625 L 22.359375 -8.34375 L 22.5 -8.34375 L 37.015625 -54.890625 L 43.53125 -54.890625 L 58.109375 -8.0625 L 58.25 -8.0625 L 72.6875 -54.890625 L 78.5 -54.890625 L 61.265625 0 L 54.8125 0 L 40.15625 -47.109375 L 25.4375 0 L 19.140625 0 L 1.96875 -54.890625 Z M 7.984375 -54.890625 "/></g></g></g><g fill="#3e6a70" fill-opacity="1"><g transform="translate(232.157205, 75.573648)"><g><path d="M 58.953125 -27.609375 C 58.953125 -23.691406 58.257812 -20.023438 56.875 -16.609375 C 55.5 -13.203125 53.5625 -10.210938 51.0625 -7.640625 C 48.5625 -5.066406 45.628906 -3.054688 42.265625 -1.609375 C 38.898438 -0.160156 35.234375 0.5625 31.265625 0.5625 C 27.335938 0.5625 23.703125 -0.148438 20.359375 -1.578125 C 17.015625 -3.003906 14.101562 -4.976562 11.625 -7.5 C 9.15625 -10.019531 7.226562 -12.960938 5.84375 -16.328125 C 4.46875 -19.691406 3.78125 -23.335938 3.78125 -27.265625 C 3.78125 -31.191406 4.46875 -34.859375 5.84375 -38.265625 C 7.226562 -41.679688 9.171875 -44.671875 11.671875 -47.234375 C 14.171875 -49.804688 17.101562 -51.816406 20.46875 -53.265625 C 23.832031 -54.710938 27.5 -55.4375 31.46875 -55.4375 C 35.394531 -55.4375 39.03125 -54.722656 42.375 -53.296875 C 45.71875 -51.878906 48.625 -49.90625 51.09375 -47.375 C 53.570312 -44.851562 55.5 -41.910156 56.875 -38.546875 C 58.257812 -35.179688 58.953125 -31.535156 58.953125 -27.609375 Z M 52.984375 -27.265625 C 52.984375 -30.347656 52.457031 -33.253906 51.40625 -35.984375 C 50.363281 -38.722656 48.867188 -41.15625 46.921875 -43.28125 C 44.984375 -45.40625 42.679688 -47.0625 40.015625 -48.25 C 37.359375 -49.445312 34.441406 -50.046875 31.265625 -50.046875 C 28.128906 -50.046875 25.238281 -49.460938 22.59375 -48.296875 C 19.957031 -47.128906 17.679688 -45.503906 15.765625 -43.421875 C 13.847656 -41.335938 12.363281 -38.953125 11.3125 -36.265625 C 10.269531 -33.585938 9.75 -30.703125 9.75 -27.609375 C 9.75 -24.523438 10.269531 -21.601562 11.3125 -18.84375 C 12.363281 -16.09375 13.859375 -13.664062 15.796875 -11.5625 C 17.742188 -9.457031 20.046875 -7.8125 22.703125 -6.625 C 25.367188 -5.4375 28.289062 -4.84375 31.46875 -4.84375 C 34.644531 -4.84375 37.539062 -5.425781 40.15625 -6.59375 C 42.78125 -7.757812 45.050781 -9.378906 46.96875 -11.453125 C 48.882812 -13.535156 50.363281 -15.921875 51.40625 -18.609375 C 52.457031 -21.296875 52.984375 -24.179688 52.984375 -27.265625 Z M 52.984375 -27.265625 "/></g></g></g><g fill="#3e6a70" fill-opacity="1"><g transform="translate(294.880691, 75.573648)"><g><path d="M 13.390625 -22.21875 L 13.390625 0 L 7.640625 0 L 7.640625 -54.890625 L 26.640625 -54.890625 C 31.117188 -54.890625 34.769531 -54.148438 37.59375 -52.671875 C 40.425781 -51.203125 42.519531 -49.25 43.875 -46.8125 C 45.226562 -44.382812 45.90625 -41.75 45.90625 -38.90625 C 45.90625 -35.769531 45.21875 -33.09375 43.84375 -30.875 C 42.46875 -28.65625 40.644531 -26.914062 38.375 -25.65625 C 36.113281 -24.394531 33.601562 -23.578125 30.84375 -23.203125 L 47.796875 0 L 40.796875 0 L 24.609375 -22.21875 Z M 13.390625 -27.484375 L 26.140625 -27.484375 C 29.460938 -27.484375 32.148438 -28.03125 34.203125 -29.125 C 36.265625 -30.21875 37.757812 -31.628906 38.6875 -33.359375 C 39.625 -35.085938 40.09375 -36.863281 40.09375 -38.6875 C 40.09375 -40.507812 39.671875 -42.238281 38.828125 -43.875 C 37.984375 -45.507812 36.554688 -46.851562 34.546875 -47.90625 C 32.546875 -48.957031 29.789062 -49.484375 26.28125 -49.484375 L 13.390625 -49.484375 Z M 13.390625 -27.484375 "/></g></g></g><g clip-path="url(#e4a3b2c461)"><g fill="#3e6a70" fill-opacity="1"><g transform="translate(345.339789, 75.573648)"><g><path d="M 13.390625 -54.890625 L 13.390625 -30.625 L 13.734375 -30.625 L 38.34375 -54.890625 L 46.40625 -54.890625 L 19.484375 -28.59375 L 47.65625 0 L 39.53125 0 L 13.8125 -26.421875 L 13.390625 -26.421875 L 13.390625 0 L 7.640625 0 L 7.640625 -54.890625 Z M 13.390625 -54.890625 "/></g></g></g></g></g></g></g></g></g></svg>