<svg xmlns="http://www.w3.org/2000/svg" xmlns:xlink="http://www.w3.org/1999/xlink" width="1080" zoomAndPan="magnify" viewBox="0 0 810 1012.49997" height="1350" preserveAspectRatio="xMidYMid meet" version="1.0"><defs><g/><clipPath id="c830d44a9c"><path d="M 169 280 L 311 280 L 311 497 L 169 497 Z M 169 280 " clip-rule="nonzero"/></clipPath><clipPath id="d85b5cac4a"><path d="M 206.816406 533.308594 L 69.550781 377.5 L 221.984375 243.210938 L 359.25 399.019531 Z M 206.816406 533.308594 " clip-rule="nonzero"/></clipPath><clipPath id="ecf001ac54"><path d="M 206.816406 533.308594 L 69.550781 377.5 L 221.984375 243.210938 L 359.25 399.019531 Z M 206.816406 533.308594 " clip-rule="nonzero"/></clipPath><clipPath id="862f0cdf67"><path d="M 69.761719 371 L 222 371 L 222 533.46875 L 69.761719 533.46875 Z M 69.761719 371 " clip-rule="nonzero"/></clipPath><clipPath id="3915ad5664"><path d="M 29 507.761719 L 134 507.761719 L 134 536 L 29 536 Z M 29 507.761719 " clip-rule="nonzero"/></clipPath><clipPath id="c57f90a9d9"><path d="M 21.875 517 L 211 517 L 211 552 L 21.875 552 Z M 21.875 517 " clip-rule="nonzero"/></clipPath><clipPath id="2dc56b0876"><path d="M 154 521 L 271.5 521 L 271.5 550 L 154 550 Z M 154 521 " clip-rule="nonzero"/></clipPath><clipPath id="91dd88da05"><path d="M 36 0.71875 L 447 0.71875 L 447 80 L 36 80 Z M 36 0.71875 " clip-rule="nonzero"/></clipPath><clipPath id="b908c68b3f"><rect x="0" width="411" y="0" height="80"/></clipPath><clipPath id="c18f8db8a8"><path d="M 0.0117188 66 L 472.578125 66 L 472.578125 178.234375 L 0.0117188 178.234375 Z M 0.0117188 66 " clip-rule="nonzero"/></clipPath><clipPath id="aaed81c9de"><rect x="0" width="473" y="0" height="113"/></clipPath><clipPath id="5cdd5170ad"><rect x="0" width="473" y="0" height="179"/></clipPath></defs><g clip-path="url(#c830d44a9c)"><g clip-path="url(#d85b5cac4a)"><g clip-path="url(#ecf001ac54)"><path fill="#3e6a70" d="M 268.933594 324.378906 C 304.535156 369.9375 296.976562 435.390625 251.980469 470.585938 C 227.664062 489.605469 197.386719 495.878906 169.078125 490.472656 C 202.214844 501.570312 240.097656 496.367188 269.667969 473.230469 C 316.496094 436.601562 324.738281 368.976562 288.128906 322.175781 C 260.785156 287.195312 216.140625 273.746094 175.773438 284.421875 C 210.226562 280.949219 245.839844 294.859375 268.933594 324.378906 Z M 268.933594 324.378906 " fill-opacity="1" fill-rule="nonzero"/></g></g></g><g clip-path="url(#862f0cdf67)"><path fill="#5ba1a9" d="M 218.269531 423.6875 C 213.121094 408.957031 200.089844 396.539062 184.582031 394.785156 C 182.425781 394.539062 174.082031 393.097656 164.855469 396.382812 C 175.316406 391.515625 184.90625 392.828125 192.210938 393.828125 C 203.738281 395.398438 212.601562 399.796875 218.269531 403.324219 C 212.691406 391.75 203.90625 381.316406 192.1875 376.035156 C 180.492188 370.765625 165.6875 371.492188 155.847656 379.746094 C 154.277344 381.070312 147.117188 386.363281 144.324219 395.929688 C 141.871094 385.441406 134.074219 379.667969 132.425781 378.277344 C 122.589844 370.027344 107.78125 369.296875 96.074219 374.582031 C 84.371094 379.863281 75.570312 390.296875 69.992188 401.859375 C 75.660156 398.316406 84.523438 393.929688 96.050781 392.359375 C 102.964844 391.414062 111.933594 390.191406 121.757812 394.191406 C 115.371094 393.203125 110.234375 394.074219 108.613281 394.253906 C 93.101562 396.007812 80.074219 408.425781 74.921875 423.15625 C 69.769531 437.886719 71.601562 454.367188 77.128906 468.953125 C 78.75 460.996094 82.304688 449.527344 90.558594 438.054688 C 95.789062 430.785156 102.667969 421.234375 115.710938 416.09375 C 120.292969 414.292969 124.753906 413.371094 128.894531 413.007812 C 126.742188 415.109375 124.78125 417.652344 123.210938 420.753906 C 117.980469 431.070312 117.722656 443.375 120.355469 454.652344 C 121.421875 448.488281 123.976562 438.417969 130.972656 428.085938 C 134.683594 422.585938 138.5 418.71875 140.847656 416.574219 C 140.859375 416.40625 140.859375 416.226562 140.875 416.058594 C 140.859375 416.277344 140.859375 416.496094 140.847656 416.71875 C 138.953125 458.738281 137.058594 500.761719 135.175781 542.78125 C 136.085938 543.820312 140.109375 548.167969 146.246094 548.117188 C 152.230469 548.0625 156.136719 543.859375 157.070312 542.78125 C 154.902344 500.175781 152.746094 457.585938 150.582031 414.980469 C 155.953125 416.824219 162.078125 419.78125 167.96875 424.558594 C 169.136719 425.503906 174.628906 430.035156 179.910156 437.859375 C 186.890625 448.203125 189.460938 458.257812 190.523438 464.421875 C 193.160156 453.144531 192.898438 440.855469 187.671875 430.527344 C 181.984375 419.3125 171.148438 415.277344 164.464844 413.566406 C 168.566406 413.941406 172.980469 414.851562 177.496094 416.640625 C 190.539062 421.78125 197.417969 431.332031 202.644531 438.597656 C 210.898438 450.070312 214.457031 461.542969 216.089844 469.496094 C 221.59375 454.898438 223.4375 438.402344 218.269531 423.6875 Z M 218.269531 423.6875 " fill-opacity="1" fill-rule="nonzero"/></g><g clip-path="url(#3915ad5664)"><path fill="#5ba1a9" d="M 29.890625 535.449219 C 44.695312 527.585938 60.585938 522.320312 77.007812 526.300781 C 99.058594 531.648438 115.3125 536.378906 133.023438 528.230469 C 109.535156 530.511719 101.511719 519.695312 94.796875 507.769531 C 92.445312 514.71875 84.328125 519.558594 65.953125 520.765625 C 50.117188 521.808594 39.304688 527.941406 29.890625 535.449219 " fill-opacity="1" fill-rule="evenodd"/></g><g clip-path="url(#c57f90a9d9)"><path fill="#5ba1a9" d="M 21.957031 550.132812 C 33.054688 542.589844 45.640625 535.976562 61.144531 537.617188 C 76.898438 539.28125 88.546875 543.503906 100.085938 547.003906 C 119.800781 552.984375 132.265625 547.652344 142.875 538.578125 C 169.328125 558.042969 189.832031 551.722656 210.429688 545.800781 C 176.855469 551.175781 154.175781 541.789062 142.394531 517.636719 C 135.785156 527.15625 130.96875 539.328125 107.300781 537.375 C 93.40625 536.226562 79.84375 531.34375 65.46875 530.878906 C 45.84375 530.238281 31.332031 537.617188 21.957031 550.132812 " fill-opacity="1" fill-rule="evenodd"/></g><path fill="#5ba1a9" d="M 67.875 542.910156 C 102.492188 554.347656 129.898438 557.957031 141.4375 544.355469 C 149.765625 553.542969 164.269531 556.109375 181.582031 555.671875 C 135.882812 567.570312 109.339844 558.863281 67.875 542.910156 " fill-opacity="1" fill-rule="evenodd"/><path fill="#5ba1a9" d="M 161.148438 562.167969 C 173.246094 567.789062 187.300781 568.886719 205.863281 560.484375 C 220.078125 554.042969 234.710938 551.980469 249.613281 553.984375 C 239.625 547.238281 227.46875 543.1875 209.46875 552.542969 C 197.128906 558.953125 182.742188 564.085938 161.148438 562.167969 " fill-opacity="1" fill-rule="evenodd"/><path fill="#5ba1a9" d="M 146.246094 521.007812 C 158.824219 528.789062 170.519531 528.632812 181.824219 524.859375 C 171.78125 524.421875 163.566406 522.574219 161.871094 515.710938 C 158.90625 519.722656 153.695312 521.488281 146.246094 521.007812 " fill-opacity="1" fill-rule="evenodd"/><path fill="#5ba1a9" d="M 201.296875 524.378906 C 210.710938 530.515625 222.410156 531.316406 235.671875 528.46875 C 226.296875 526.460938 221.089844 523.492188 220.046875 519.5625 C 215.71875 523.414062 209.46875 525.019531 201.296875 524.378906 " fill-opacity="1" fill-rule="evenodd"/><g clip-path="url(#2dc56b0876)"><path fill="#5ba1a9" d="M 154.660156 530.152344 C 179.488281 543.613281 203.074219 547.652344 230.863281 539.300781 C 245.105469 537.183594 258.289062 542.523438 271.25 549.410156 C 262.921875 542.324219 256.773438 534.191406 234.46875 533.765625 C 213.773438 534.183594 199.070312 530.695312 193.125 521.488281 C 183.90625 531.238281 170.285156 532.601562 154.660156 530.152344 " fill-opacity="1" fill-rule="evenodd"/></g><g transform="matrix(1, 0, 0, 1, 301, 403)"><g clip-path="url(#5cdd5170ad)"><g clip-path="url(#91dd88da05)"><g transform="matrix(1, 0, 0, 1, 36, 0)"><g clip-path="url(#b908c68b3f)"><g fill="#3e6a70" fill-opacity="1"><g transform="translate(0.444403, 63.053401)"><g><path d="M 16.765625 -41.84375 L 1.25 -41.84375 L 1.25 -46.40625 L 37.15625 -46.40625 L 37.15625 -41.84375 L 21.6875 -41.84375 L 21.6875 0 L 16.765625 0 Z M 16.765625 -41.84375 "/></g></g></g><g fill="#3e6a70" fill-opacity="1"><g transform="translate(49.874614, 63.053401)"><g><path d="M 4.09375 -42.96875 C 4.09375 -43.957031 4.425781 -44.785156 5.09375 -45.453125 C 5.769531 -46.128906 6.582031 -46.46875 7.53125 -46.46875 C 8.519531 -46.46875 9.347656 -46.128906 10.015625 -45.453125 C 10.679688 -44.785156 11.015625 -43.957031 11.015625 -42.96875 C 11.015625 -42.019531 10.679688 -41.207031 10.015625 -40.53125 C 9.347656 -39.863281 8.519531 -39.53125 7.53125 -39.53125 C 6.582031 -39.53125 5.769531 -39.863281 5.09375 -40.53125 C 4.425781 -41.207031 4.09375 -42.019531 4.09375 -42.96875 Z M 9.890625 0 L 5.21875 0 L 5.21875 -31.640625 L 9.890625 -31.640625 Z M 9.890625 0 "/></g></g></g><g fill="#3e6a70" fill-opacity="1"><g transform="translate(76.012667, 63.053401)"><g><path d="M 2.96875 -15.890625 C 2.96875 -17.941406 3.3125 -19.929688 4 -21.859375 C 4.6875 -23.796875 5.679688 -25.546875 6.984375 -27.109375 C 8.296875 -28.671875 9.859375 -29.90625 11.671875 -30.8125 C 13.492188 -31.726562 15.53125 -32.1875 17.78125 -32.1875 C 19.832031 -32.1875 21.609375 -31.847656 23.109375 -31.171875 C 24.609375 -30.503906 25.929688 -29.625 27.078125 -28.53125 C 28.222656 -27.445312 29.210938 -26.273438 30.046875 -25.015625 L 30.046875 -48.25 L 34.609375 -48.25 L 34.609375 0 L 30.109375 0 L 30.109375 -6.75 C 28.878906 -4.738281 27.273438 -3.03125 25.296875 -1.625 C 23.328125 -0.226562 20.820312 0.46875 17.78125 0.46875 C 14.78125 0.46875 12.160156 -0.289062 9.921875 -1.8125 C 7.691406 -3.332031 5.972656 -5.335938 4.765625 -7.828125 C 3.566406 -10.316406 2.96875 -13.003906 2.96875 -15.890625 Z M 18.734375 -3.609375 C 20.984375 -3.609375 22.957031 -4.179688 24.65625 -5.328125 C 26.351562 -6.472656 27.6875 -7.984375 28.65625 -9.859375 C 29.625 -11.742188 30.109375 -13.769531 30.109375 -15.9375 C 30.109375 -18.03125 29.613281 -20.003906 28.625 -21.859375 C 27.632812 -23.722656 26.289062 -25.226562 24.59375 -26.375 C 22.894531 -27.519531 20.941406 -28.09375 18.734375 -28.09375 C 16.441406 -28.09375 14.460938 -27.535156 12.796875 -26.421875 C 11.140625 -25.316406 9.863281 -23.835938 8.96875 -21.984375 C 8.082031 -20.128906 7.640625 -18.054688 7.640625 -15.765625 C 7.640625 -13.585938 8.082031 -11.582031 8.96875 -9.75 C 9.863281 -7.914062 11.140625 -6.429688 12.796875 -5.296875 C 14.460938 -4.171875 16.441406 -3.609375 18.734375 -3.609375 Z M 18.734375 -3.609375 "/></g></g></g><g fill="#3e6a70" fill-opacity="1"><g transform="translate(126.924556, 63.053401)"><g><path d="M 24.296875 -18.25 L 24.296875 -20.390625 C 24.296875 -25.523438 21.609375 -28.09375 16.234375 -28.09375 C 13.828125 -28.09375 11.910156 -27.46875 10.484375 -26.21875 C 9.066406 -24.976562 7.960938 -23.53125 7.171875 -21.875 L 3.375 -24 C 4.476562 -26.53125 6.117188 -28.523438 8.296875 -29.984375 C 10.472656 -31.453125 13.160156 -32.1875 16.359375 -32.1875 C 19.710938 -32.1875 22.285156 -31.53125 24.078125 -30.21875 C 25.878906 -28.914062 27.160156 -27.394531 27.921875 -25.65625 C 28.273438 -24.789062 28.519531 -23.832031 28.65625 -22.78125 C 28.789062 -21.738281 28.859375 -20.960938 28.859375 -20.453125 L 28.859375 0 L 24.359375 0 L 24.359375 -5.578125 L 24.296875 -5.578125 C 23.078125 -3.640625 21.585938 -2.132812 19.828125 -1.0625 C 18.066406 0 16 0.53125 13.625 0.53125 C 11.5 0.53125 9.644531 0.128906 8.0625 -0.671875 C 6.476562 -1.484375 5.238281 -2.59375 4.34375 -4 C 3.457031 -5.40625 3.015625 -6.992188 3.015625 -8.765625 L 3.015625 -9.125 C 3.015625 -10.863281 3.398438 -12.316406 4.171875 -13.484375 C 4.941406 -14.648438 5.941406 -15.578125 7.171875 -16.265625 C 8.398438 -16.960938 9.742188 -17.46875 11.203125 -17.78125 C 12.660156 -18.09375 14.101562 -18.25 15.53125 -18.25 Z M 24.296875 -14.453125 L 15.46875 -14.453125 C 14.363281 -14.453125 13.195312 -14.304688 11.96875 -14.015625 C 10.75 -13.722656 9.722656 -13.191406 8.890625 -12.421875 C 8.054688 -11.648438 7.640625 -10.550781 7.640625 -9.125 C 7.640625 -7.34375 8.300781 -5.96875 9.625 -5 C 10.945312 -4.039062 12.554688 -3.5625 14.453125 -3.5625 C 16.359375 -3.5625 18.050781 -3.972656 19.53125 -4.796875 C 21.007812 -5.628906 22.171875 -6.773438 23.015625 -8.234375 C 23.867188 -9.703125 24.296875 -11.398438 24.296875 -13.328125 Z M 24.296875 -14.453125 "/></g></g></g><g fill="#3e6a70" fill-opacity="1"><g transform="translate(171.613361, 63.053401)"><g><path d="M 9.890625 0 L 5.21875 0 L 5.21875 -48.296875 L 9.890625 -48.296875 Z M 9.890625 0 "/></g></g></g><g fill="#3e6a70" fill-opacity="1"><g transform="translate(197.751403, 63.053401)"><g/></g></g><g fill="#3e6a70" fill-opacity="1"><g transform="translate(225.311872, 63.053401)"><g><path d="M 26.3125 0.46875 C 23.113281 0.46875 20.117188 -0.09375 17.328125 -1.21875 C 14.546875 -2.34375 12.085938 -3.953125 9.953125 -6.046875 C 7.816406 -8.140625 6.15625 -10.628906 4.96875 -13.515625 C 3.789062 -16.398438 3.203125 -19.578125 3.203125 -23.046875 C 3.203125 -26.566406 3.8125 -29.785156 5.03125 -32.703125 C 6.257812 -35.628906 7.945312 -38.148438 10.09375 -40.265625 C 12.25 -42.378906 14.738281 -44.007812 17.5625 -45.15625 C 20.394531 -46.300781 23.390625 -46.875 26.546875 -46.875 C 30.335938 -46.875 33.644531 -46.179688 36.46875 -44.796875 C 39.300781 -43.421875 41.625 -41.644531 43.4375 -39.46875 C 45.257812 -37.300781 46.523438 -35.03125 47.234375 -32.65625 L 42.84375 -30.640625 C 42.21875 -32.535156 41.234375 -34.367188 39.890625 -36.140625 C 38.546875 -37.921875 36.773438 -39.382812 34.578125 -40.53125 C 32.390625 -41.675781 29.675781 -42.25 26.4375 -42.25 C 23.988281 -42.25 21.664062 -41.796875 19.46875 -40.890625 C 17.269531 -39.984375 15.332031 -38.691406 13.65625 -37.015625 C 11.976562 -35.335938 10.664062 -33.34375 9.71875 -31.03125 C 8.769531 -28.71875 8.296875 -26.15625 8.296875 -23.34375 C 8.296875 -19.675781 9.082031 -16.398438 10.65625 -13.515625 C 12.238281 -10.628906 14.40625 -8.347656 17.15625 -6.671875 C 19.90625 -4.992188 23.015625 -4.15625 26.484375 -4.15625 C 30.753906 -4.15625 34.242188 -5.25 36.953125 -7.4375 C 39.660156 -9.632812 41.644531 -12.453125 42.90625 -15.890625 L 47.296875 -13.8125 C 46.460938 -11.476562 45.125 -9.210938 43.28125 -7.015625 C 41.445312 -4.828125 39.109375 -3.03125 36.265625 -1.625 C 33.421875 -0.226562 30.101562 0.46875 26.3125 0.46875 Z M 26.3125 0.46875 "/></g></g></g><g fill="#3e6a70" fill-opacity="1"><g transform="translate(285.943669, 63.053401)"><g><path d="M 24.296875 -18.25 L 24.296875 -20.390625 C 24.296875 -25.523438 21.609375 -28.09375 16.234375 -28.09375 C 13.828125 -28.09375 11.910156 -27.46875 10.484375 -26.21875 C 9.066406 -24.976562 7.960938 -23.53125 7.171875 -21.875 L 3.375 -24 C 4.476562 -26.53125 6.117188 -28.523438 8.296875 -29.984375 C 10.472656 -31.453125 13.160156 -32.1875 16.359375 -32.1875 C 19.710938 -32.1875 22.285156 -31.53125 24.078125 -30.21875 C 25.878906 -28.914062 27.160156 -27.394531 27.921875 -25.65625 C 28.273438 -24.789062 28.519531 -23.832031 28.65625 -22.78125 C 28.789062 -21.738281 28.859375 -20.960938 28.859375 -20.453125 L 28.859375 0 L 24.359375 0 L 24.359375 -5.578125 L 24.296875 -5.578125 C 23.078125 -3.640625 21.585938 -2.132812 19.828125 -1.0625 C 18.066406 0 16 0.53125 13.625 0.53125 C 11.5 0.53125 9.644531 0.128906 8.0625 -0.671875 C 6.476562 -1.484375 5.238281 -2.59375 4.34375 -4 C 3.457031 -5.40625 3.015625 -6.992188 3.015625 -8.765625 L 3.015625 -9.125 C 3.015625 -10.863281 3.398438 -12.316406 4.171875 -13.484375 C 4.941406 -14.648438 5.941406 -15.578125 7.171875 -16.265625 C 8.398438 -16.960938 9.742188 -17.46875 11.203125 -17.78125 C 12.660156 -18.09375 14.101562 -18.25 15.53125 -18.25 Z M 24.296875 -14.453125 L 15.46875 -14.453125 C 14.363281 -14.453125 13.195312 -14.304688 11.96875 -14.015625 C 10.75 -13.722656 9.722656 -13.191406 8.890625 -12.421875 C 8.054688 -11.648438 7.640625 -10.550781 7.640625 -9.125 C 7.640625 -7.34375 8.300781 -5.96875 9.625 -5 C 10.945312 -4.039062 12.554688 -3.5625 14.453125 -3.5625 C 16.359375 -3.5625 18.050781 -3.972656 19.53125 -4.796875 C 21.007812 -5.628906 22.171875 -6.773438 23.015625 -8.234375 C 23.867188 -9.703125 24.296875 -11.398438 24.296875 -13.328125 Z M 24.296875 -14.453125 "/></g></g></g><g fill="#3e6a70" fill-opacity="1"><g transform="translate(330.632474, 63.053401)"><g><path d="M 9.78125 -31.640625 L 9.78125 -25.359375 C 10.96875 -27.816406 12.507812 -29.554688 14.40625 -30.578125 C 16.300781 -31.609375 18.15625 -32.125 19.96875 -32.125 C 20.125 -32.125 20.378906 -32.125 20.734375 -32.125 C 21.097656 -32.125 21.359375 -32.101562 21.515625 -32.0625 L 21.515625 -27.140625 C 21.234375 -27.179688 20.941406 -27.210938 20.640625 -27.234375 C 20.347656 -27.253906 20.046875 -27.265625 19.734375 -27.265625 C 17.242188 -27.265625 15.273438 -26.671875 13.828125 -25.484375 C 12.390625 -24.296875 11.363281 -22.800781 10.75 -21 C 10.144531 -19.207031 9.84375 -17.363281 9.84375 -15.46875 L 9.84375 0 L 5.21875 0 L 5.21875 -31.640625 Z M 9.78125 -31.640625 "/></g></g></g><g fill="#3e6a70" fill-opacity="1"><g transform="translate(363.052771, 63.053401)"><g><path d="M 33.1875 -14.40625 L 7.59375 -14.40625 C 7.707031 -12.34375 8.273438 -10.492188 9.296875 -8.859375 C 10.328125 -7.222656 11.671875 -5.929688 13.328125 -4.984375 C 14.992188 -4.035156 16.851562 -3.5625 18.90625 -3.5625 C 21.238281 -3.5625 23.273438 -4.160156 25.015625 -5.359375 C 26.753906 -6.566406 28.054688 -8.078125 28.921875 -9.890625 L 32.359375 -7.640625 C 31.015625 -4.992188 29.144531 -2.96875 26.75 -1.5625 C 24.363281 -0.164062 21.769531 0.53125 18.96875 0.53125 C 15.882812 0.53125 13.132812 -0.195312 10.71875 -1.65625 C 8.3125 -3.125 6.40625 -5.097656 5 -7.578125 C 3.601562 -10.066406 2.90625 -12.835938 2.90625 -15.890625 C 2.90625 -18.015625 3.289062 -20.054688 4.0625 -22.015625 C 4.832031 -23.972656 5.90625 -25.710938 7.28125 -27.234375 C 8.664062 -28.753906 10.296875 -29.957031 12.171875 -30.84375 C 14.054688 -31.738281 16.101562 -32.1875 18.3125 -32.1875 C 21.59375 -32.1875 24.335938 -31.472656 26.546875 -30.046875 C 28.765625 -28.628906 30.4375 -26.691406 31.5625 -24.234375 C 32.6875 -21.785156 33.25 -19.019531 33.25 -15.9375 C 33.25 -15.664062 33.25 -15.398438 33.25 -15.140625 C 33.25 -14.878906 33.226562 -14.632812 33.1875 -14.40625 Z M 7.640625 -18.3125 L 28.5625 -18.3125 C 28.289062 -21.195312 27.273438 -23.554688 25.515625 -25.390625 C 23.753906 -27.234375 21.351562 -28.15625 18.3125 -28.15625 C 16.5 -28.15625 14.828125 -27.695312 13.296875 -26.78125 C 11.773438 -25.875 10.519531 -24.679688 9.53125 -23.203125 C 8.550781 -21.722656 7.921875 -20.09375 7.640625 -18.3125 Z M 7.640625 -18.3125 "/></g></g></g></g></g></g><g clip-path="url(#c18f8db8a8)"><g transform="matrix(1, 0, 0, 1, 0, 66)"><g clip-path="url(#aaed81c9de)"><g fill="#3e6a70" fill-opacity="1"><g transform="translate(0.536845, 89.516454)"><g><path d="M 62.8125 0 L 55.40625 0 L 15.96875 -56.078125 L 15.96875 0 L 9.171875 0 L 9.171875 -65.828125 L 17.15625 -65.828125 L 56 -10.84375 L 56 -65.828125 L 62.8125 -65.828125 Z M 62.8125 0 "/></g></g></g><g fill="#3e6a70" fill-opacity="1"><g transform="translate(72.505546, 89.516454)"><g><path d="M 50.359375 -59.4375 L 16.0625 -59.4375 L 16.0625 -36.65625 L 47.421875 -36.65625 L 47.421875 -30.265625 L 16.0625 -30.265625 L 16.0625 -6.390625 L 50.703125 -6.390625 L 50.703125 0 L 9.171875 0 L 9.171875 -65.828125 L 50.359375 -65.828125 Z M 50.359375 -59.4375 "/></g></g></g><g fill="#3e6a70" fill-opacity="1"><g transform="translate(128.331733, 89.516454)"><g><path d="M 23.796875 -59.359375 L 1.765625 -59.359375 L 1.765625 -65.828125 L 52.71875 -65.828125 L 52.71875 -59.359375 L 30.765625 -59.359375 L 30.765625 0 L 23.796875 0 Z M 23.796875 -59.359375 "/></g></g></g><g fill="#3e6a70" fill-opacity="1"><g transform="translate(182.812714, 89.516454)"><g><path d="M 9.578125 -65.828125 L 26.828125 -10 L 26.984375 -10 L 44.390625 -65.828125 L 52.21875 -65.828125 L 69.703125 -9.671875 L 69.875 -9.671875 L 87.1875 -65.828125 L 94.171875 -65.828125 L 73.484375 0 L 65.75 0 L 48.171875 -56.5 L 30.515625 0 L 22.953125 0 L 2.359375 -65.828125 Z M 9.578125 -65.828125 "/></g></g></g><g fill="#3e6a70" fill-opacity="1"><g transform="translate(278.23848, 89.516454)"><g><path d="M 70.703125 -33.125 C 70.703125 -28.414062 69.875 -24.015625 68.21875 -19.921875 C 66.570312 -15.828125 64.25 -12.238281 61.25 -9.15625 C 58.25 -6.082031 54.726562 -3.675781 50.6875 -1.9375 C 46.65625 -0.195312 42.257812 0.671875 37.5 0.671875 C 32.789062 0.671875 28.429688 -0.179688 24.421875 -1.890625 C 20.410156 -3.597656 16.921875 -5.960938 13.953125 -8.984375 C 10.984375 -12.015625 8.671875 -15.546875 7.015625 -19.578125 C 5.367188 -23.617188 4.546875 -27.992188 4.546875 -32.703125 C 4.546875 -37.410156 5.367188 -41.8125 7.015625 -45.90625 C 8.671875 -50 11 -53.585938 14 -56.671875 C 17 -59.753906 20.515625 -62.160156 24.546875 -63.890625 C 28.585938 -65.628906 32.988281 -66.5 37.75 -66.5 C 42.457031 -66.5 46.816406 -65.644531 50.828125 -63.9375 C 54.835938 -62.226562 58.328125 -59.859375 61.296875 -56.828125 C 64.265625 -53.804688 66.570312 -50.273438 68.21875 -46.234375 C 69.875 -42.203125 70.703125 -37.832031 70.703125 -33.125 Z M 63.5625 -32.703125 C 63.5625 -36.398438 62.929688 -39.890625 61.671875 -43.171875 C 60.410156 -46.453125 58.613281 -49.367188 56.28125 -51.921875 C 53.957031 -54.472656 51.195312 -56.460938 48 -57.890625 C 44.8125 -59.316406 41.3125 -60.03125 37.5 -60.03125 C 33.738281 -60.03125 30.273438 -59.328125 27.109375 -57.921875 C 23.941406 -56.523438 21.207031 -54.578125 18.90625 -52.078125 C 16.613281 -49.585938 14.835938 -46.726562 13.578125 -43.5 C 12.316406 -40.28125 11.6875 -36.820312 11.6875 -33.125 C 11.6875 -29.425781 12.316406 -25.921875 13.578125 -22.609375 C 14.835938 -19.304688 16.628906 -16.394531 18.953125 -13.875 C 21.285156 -11.351562 24.046875 -9.375 27.234375 -7.9375 C 30.429688 -6.507812 33.9375 -5.796875 37.75 -5.796875 C 41.5625 -5.796875 45.035156 -6.492188 48.171875 -7.890625 C 51.316406 -9.296875 54.035156 -11.242188 56.328125 -13.734375 C 58.628906 -16.234375 60.410156 -19.09375 61.671875 -22.3125 C 62.929688 -25.539062 63.5625 -29.003906 63.5625 -32.703125 Z M 63.5625 -32.703125 "/></g></g></g><g fill="#3e6a70" fill-opacity="1"><g transform="translate(353.486136, 89.516454)"><g><path d="M 16.0625 -26.65625 L 16.0625 0 L 9.171875 0 L 9.171875 -65.828125 L 31.953125 -65.828125 C 37.328125 -65.828125 41.707031 -64.941406 45.09375 -63.171875 C 48.488281 -61.410156 51 -59.070312 52.625 -56.15625 C 54.257812 -53.25 55.078125 -50.082031 55.078125 -46.65625 C 55.078125 -42.90625 54.25 -39.695312 52.59375 -37.03125 C 50.9375 -34.375 48.75 -32.285156 46.03125 -30.765625 C 43.3125 -29.253906 40.300781 -28.273438 37 -27.828125 L 57.34375 0 L 48.9375 0 L 29.515625 -26.65625 Z M 16.0625 -32.953125 L 31.359375 -32.953125 C 35.335938 -32.953125 38.5625 -33.609375 41.03125 -34.921875 C 43.5 -36.242188 45.289062 -37.941406 46.40625 -40.015625 C 47.53125 -42.085938 48.09375 -44.21875 48.09375 -46.40625 C 48.09375 -48.59375 47.585938 -50.664062 46.578125 -52.625 C 45.566406 -54.59375 43.851562 -56.207031 41.4375 -57.46875 C 39.03125 -58.726562 35.726562 -59.359375 31.53125 -59.359375 L 16.0625 -59.359375 Z M 16.0625 -32.953125 "/></g></g></g><g fill="#3e6a70" fill-opacity="1"><g transform="translate(414.020568, 89.516454)"><g><path d="M 16.0625 -65.828125 L 16.0625 -36.734375 L 16.484375 -36.734375 L 45.984375 -65.828125 L 55.65625 -65.828125 L 23.375 -34.296875 L 57.171875 0 L 47.421875 0 L 16.5625 -31.703125 L 16.0625 -31.703125 L 16.0625 0 L 9.171875 0 L 9.171875 -65.828125 Z M 16.0625 -65.828125 "/></g></g></g></g></g></g></g></g></svg>