<?xml version="1.0" encoding="UTF-8"?>
<svg id="Layer_1" data-name="Layer 1" xmlns="http://www.w3.org/2000/svg" viewBox="0 0 454.86 506.04">
  <defs>
    <style>
      .cls-1 {
        fill: #1f414a;
        font-family: IvyOraDisplay-Regular, 'IvyOra Display';
        font-size: 99.53px;
      }

      .cls-2 {
        fill: #1e3f46;
      }

      .cls-3 {
        fill: #ab987b;
      }

      .cls-4 {
        fill: #8b908f;
      }

      .cls-5 {
        fill: #213f45;
      }

      .cls-6 {
        letter-spacing: .46em;
      }

      .cls-7 {
        letter-spacing: .48em;
      }

      .cls-8 {
        letter-spacing: .48em;
      }

      .cls-9 {
        letter-spacing: .48em;
      }

      .cls-10 {
        fill: #b9a179;
      }

      .cls-11 {
        fill: #1e4047;
      }

      .cls-12 {
        fill: #183438;
        font-family: Montserrat-Light, Montserrat;
        font-size: 36.8px;
        font-weight: 300;
      }

      .cls-13 {
        fill: #1f4046;
      }

      .cls-14 {
        fill: #1d3d44;
      }

      .cls-15 {
        letter-spacing: .03em;
      }

      .cls-16 {
        letter-spacing: .02em;
      }

      .cls-17 {
        letter-spacing: .04em;
      }

      .cls-18 {
        letter-spacing: .01em;
      }
    </style>
  </defs>
  <g id="Generative_Object" data-name="Generative Object">
    <g>
      <path class="cls-13" d="M327.14,60.88C288.38,3.88,211.72-10.47,155.56,30.34c-29.25,21.25-47.66,54.71-50.8,91.15-2.45,28.44,5.68,55.56,19.9,79.02-.9,1.93-4.69,2.6-5.74,1.03-23.01-34.5-28.24-77.1-14.19-115.98C127.08,23.76,191.99-12.33,255.97,3.87c52.56,13.31,90.76,59.64,95.38,113.54.68,7.94,1.58,14.61.22,22.22-2.09,11.67-1.83,24.36-9.01,34.61,6.7-21.64,9.72-43.09,4.8-65.06-3.98-17.76-10.24-33.6-20.23-48.3Z"/>
      <path class="cls-11" d="M357.55,246.72c.86-.19,1.45.5.83,1.08-14.75,9.43-31.75,13.83-49.7,14.45-21.12.51-41.09-4.71-59.96-14.32l-31.11-15.85c-21.8-11.11-45.32-16.32-69.89-13.81l-29.6,3.02c-13.59,1.39-27.48-.94-37.98-9.42,21.11,8.69,39.91,4,62.19-.52,33.76-6.84,66.61-2.18,96.96,13.69,39.14,20.46,74.03,35.68,118.26,21.69Z"/>
      <path class="cls-2" d="M330.83,271.89c-26.51,15.51-58.59,18.64-88.83,7.98-39.79-14.02-67.12-45.37-126.9-38.54,35.64-12.87,71.49-5.54,105.34,11.88,35.06,18.03,65.04,29.55,104.49,20.25,1.04-.25,2.81-3.57,5.9-1.58Z"/>
      <path class="cls-10" d="M231.97,189.71c.01,6.06,7.16,6.08,11.7,8.41-9.85,1.46-20.38,1.14-30.79.38,2.94-2.83,11.32-2.19,11.34-6.94l.45-95.51c-2.07-5.81-20.54-4.85-31.2-2.81-9.08,1.74-12.38,8.39-16.03,17.21-1.93-7.73.63-13.79.54-20.8l38.3.64h33.58s27.75-.57,27.75-.57c-.43,7.3,1.82,13.81-1.44,20.61-4.42-21.47-22.4-18.61-44.44-17.72l.23,97.11Z"/>
      <path class="cls-14" d="M353.84,224.24c-35.29,17.37-74.35,8.45-108.23-10.85,45.76,14.64,96.52,17.76,135.23-14.6-5.55,12.48-15.76,19.92-27,25.45Z"/>
      <path class="cls-5" d="M231.35,291.93c-20.65.7-39.21-5.56-56.7-15.75-10.74-6.26-20.88-11.43-32.5-14.49,32.98.92,58.17,24.49,89.19,30.24Z"/>
      <path class="cls-3" d="M256.75,451.19h-64.68c-1.28-.24-2.44-1.33-2.56-2.69h69.8c-.12,1.36-1.28,2.46-2.56,2.69Z"/>
      <path class="cls-4" d="M358.38,247.79c.61-.58.03-1.27-.83-1.08-.06-1.02.81-1.5,2.04-1.54.71-.02,2.36-.12,1.46,1.5-.45.82-1.45,1.66-2.66,1.12Z"/>
    </g>
    <text class="cls-1" transform="translate(0 418.53)"><tspan class="cls-16" x="0" y="0">T</tspan><tspan class="cls-17" x="65.29" y="0">idal </tspan><tspan class="cls-15" x="247.43" y="0">C</tspan><tspan class="cls-17" x="323.38" y="0">a</tspan><tspan class="cls-18" x="370.85" y="0">r</tspan><tspan class="cls-17" x="407.19" y="0">e</tspan></text>
    <text class="cls-12" transform="translate(105.09 496.43)"><tspan class="cls-7" x="0" y="0">NE</tspan><tspan class="cls-9" x="89.97" y="0">T</tspan><tspan class="cls-6" x="128.28" y="0">W</tspan><tspan class="cls-8" x="185.61" y="0">ORK</tspan></text>
  </g>
</svg>