<svg xmlns="http://www.w3.org/2000/svg" xmlns:xlink="http://www.w3.org/1999/xlink" zoomAndPan="magnify" viewBox="29.73 -2.53 79.80 79.80" preserveAspectRatio="xMidYMid meet" version="1.0"><defs><g/><clipPath id="b784cba3c1"><path d="M 34.050781 1.800781 L 105.300781 1.800781 L 105.300781 73.050781 L 34.050781 73.050781 Z M 34.050781 1.800781 " clip-rule="nonzero"/></clipPath></defs><g clip-path="url(#b784cba3c1)"><path fill="#1c454c" d="M 69.742188 73.1875 C 50.03125 73.1875 34.050781 57.207031 34.050781 37.492188 C 34.050781 17.78125 50.03125 1.800781 69.742188 1.800781 C 89.457031 1.800781 105.4375 17.78125 105.4375 37.492188 C 105.4375 57.207031 89.457031 73.1875 69.742188 73.1875 " fill-opacity="1" fill-rule="nonzero"/></g><path fill="#ffffff" d="M 66.390625 58.804688 L 45.328125 42.394531 L 50.734375 35.457031 L 64.699219 46.335938 L 87.101562 16.183594 L 94.160156 21.425781 L 66.390625 58.804688 " fill-opacity="1" fill-rule="nonzero"/><g fill="#1c454c" fill-opacity="1"><g transform="translate(81.413082, 52.35)"><g><path d="M 3.4375 -5.765625 C 4.269531 -5.765625 4.921875 -5.5 5.390625 -4.96875 C 5.859375 -4.445312 6.097656 -3.707031 6.109375 -2.75 L 6.109375 -2.515625 L 1.578125 -2.515625 C 1.617188 -1.992188 1.8125 -1.566406 2.15625 -1.234375 C 2.5 -0.898438 2.921875 -0.726562 3.421875 -0.71875 C 4.179688 -0.71875 4.773438 -1.003906 5.203125 -1.578125 L 5.90625 -1.015625 C 5.601562 -0.628906 5.253906 -0.335938 4.859375 -0.140625 C 4.460938 0.046875 3.984375 0.140625 3.421875 0.140625 C 2.566406 0.140625 1.878906 -0.132812 1.359375 -0.6875 C 0.835938 -1.25 0.570312 -1.957031 0.5625 -2.8125 C 0.5625 -3.65625 0.828125 -4.351562 1.359375 -4.90625 C 1.890625 -5.457031 2.582031 -5.742188 3.4375 -5.765625 Z M 5.09375 -3.3125 C 5.070312 -3.800781 4.914062 -4.1875 4.625 -4.46875 C 4.332031 -4.75 3.921875 -4.890625 3.390625 -4.890625 C 2.910156 -4.890625 2.503906 -4.753906 2.171875 -4.484375 C 1.847656 -4.210938 1.648438 -3.820312 1.578125 -3.3125 Z M 5.09375 -3.3125 "/></g></g></g></svg>