<svg xmlns="http://www.w3.org/2000/svg" xmlns:xlink="http://www.w3.org/1999/xlink" width="200" zoomAndPan="magnify" viewBox="0 0 150 74.999997" height="100" preserveAspectRatio="xMidYMid meet" version="1.0"><defs><g/><clipPath id="d27ed51ca4"><path d="M 52 1.039062 L 110.480469 1.039062 L 110.480469 57 L 52 57 Z M 52 1.039062 " clip-rule="nonzero"/></clipPath><clipPath id="08c488b9da"><path d="M 42.980469 13 L 97 13 L 97 66.289062 L 42.980469 66.289062 Z M 42.980469 13 " clip-rule="nonzero"/></clipPath></defs><g clip-path="url(#d27ed51ca4)"><path fill="#1c454c" d="M 109.980469 1.289062 C 101.734375 5.789062 84.675781 19.796875 71.066406 42.082031 C 70.621094 42.804688 69.675781 43.035156 68.949219 42.597656 L 68.945312 42.59375 C 68.570312 42.363281 68.203125 42.121094 67.84375 41.867188 C 63.40625 38.734375 53.707031 33.226562 53.707031 33.226562 C 53.101562 32.886719 52.472656 33.34375 52.417969 33.902344 C 52.398438 33.941406 52.398438 34 52.417969 34.082031 C 52.433594 34.207031 52.480469 34.332031 52.5625 34.453125 C 53.371094 36.191406 57.226562 41.46875 60.875 46.386719 C 64.953125 51.886719 68.5625 55.007812 69.144531 55.496094 C 69.164062 55.515625 69.1875 55.535156 69.207031 55.550781 C 69.21875 55.5625 69.226562 55.566406 69.226562 55.566406 C 70.324219 56.445312 72.023438 56.175781 72.75 54.871094 C 78.289062 44.9375 96.226562 13.902344 110.441406 1.960938 C 110.820312 1.640625 110.414062 1.050781 109.980469 1.289062 Z M 109.980469 1.289062 " fill-opacity="1" fill-rule="nonzero"/></g><g clip-path="url(#08c488b9da)"><path fill="#1c454c" d="M 90.523438 39.910156 C 90.523438 51.441406 81.171875 60.789062 69.640625 60.789062 C 58.109375 60.789062 48.757812 51.441406 48.757812 39.910156 C 48.757812 38.335938 48.933594 36.808594 49.261719 35.335938 C 49.191406 35.121094 49.132812 34.902344 49.097656 34.683594 C 48.988281 34.117188 49.019531 33.617188 49.113281 33.203125 C 49.335938 32.011719 50.070312 30.996094 51.058594 30.378906 C 54.519531 23.636719 61.542969 19.027344 69.640625 19.027344 C 73.859375 19.027344 77.789062 20.28125 81.074219 22.433594 C 82.328125 20.941406 83.609375 19.480469 84.914062 18.054688 C 80.585938 15.027344 75.320312 13.246094 69.640625 13.246094 C 54.917969 13.246094 42.980469 25.183594 42.980469 39.910156 C 42.980469 54.632812 54.917969 66.570312 69.640625 66.570312 C 84.367188 66.570312 96.300781 54.632812 96.300781 39.910156 C 96.300781 35.523438 95.246094 31.390625 93.371094 27.742188 C 92.054688 29.667969 90.769531 31.605469 89.527344 33.523438 C 90.171875 35.535156 90.523438 37.679688 90.523438 39.910156 Z M 90.523438 39.910156 " fill-opacity="1" fill-rule="nonzero"/></g><path fill="#1c454c" d="M 49.113281 33.203125 C 49.019531 33.617188 48.988281 34.117188 49.097656 34.683594 C 49.132812 34.902344 49.191406 35.121094 49.261719 35.335938 C 49.652344 33.589844 50.261719 31.929688 51.058594 30.378906 C 50.070312 30.996094 49.335938 32.011719 49.113281 33.203125 Z M 49.113281 33.203125 " fill-opacity="1" fill-rule="nonzero"/><g fill="#1c454c" fill-opacity="1"><g transform="translate(66.413083, 51.299995)"><g><path d="M 3.4375 -5.765625 C 4.269531 -5.765625 4.921875 -5.5 5.390625 -4.96875 C 5.859375 -4.445312 6.097656 -3.707031 6.109375 -2.75 L 6.109375 -2.515625 L 1.578125 -2.515625 C 1.617188 -1.992188 1.8125 -1.566406 2.15625 -1.234375 C 2.5 -0.898438 2.921875 -0.726562 3.421875 -0.71875 C 4.179688 -0.71875 4.773438 -1.003906 5.203125 -1.578125 L 5.90625 -1.015625 C 5.601562 -0.628906 5.253906 -0.335938 4.859375 -0.140625 C 4.460938 0.0429688 3.984375 0.140625 3.421875 0.140625 C 2.566406 0.140625 1.878906 -0.132812 1.359375 -0.6875 C 0.835938 -1.25 0.570312 -1.957031 0.5625 -2.8125 C 0.5625 -3.65625 0.828125 -4.351562 1.359375 -4.90625 C 1.890625 -5.457031 2.582031 -5.742188 3.4375 -5.765625 Z M 5.09375 -3.3125 C 5.070312 -3.800781 4.914062 -4.1875 4.625 -4.46875 C 4.332031 -4.75 3.921875 -4.890625 3.390625 -4.890625 C 2.910156 -4.890625 2.503906 -4.753906 2.171875 -4.484375 C 1.847656 -4.210938 1.648438 -3.820312 1.578125 -3.3125 Z M 5.09375 -3.3125 "/></g></g></g></svg>