<svg xmlns="http://www.w3.org/2000/svg" xmlns:xlink="http://www.w3.org/1999/xlink" width="200" zoomAndPan="magnify" viewBox="0 0 150 149.999998" height="200" preserveAspectRatio="xMidYMid meet" version="1.0"><defs><g/><clipPath id="404ffe5818"><path d="M 1.488281 1.488281 L 148.511719 1.488281 L 148.511719 148.511719 L 1.488281 148.511719 Z M 1.488281 1.488281 " clip-rule="nonzero"/></clipPath><clipPath id="d9935b59ef"><path d="M 75 1.488281 C 34.402344 1.488281 1.488281 34.402344 1.488281 75 C 1.488281 115.597656 34.402344 148.511719 75 148.511719 C 115.597656 148.511719 148.511719 115.597656 148.511719 75 C 148.511719 34.402344 115.597656 1.488281 75 1.488281 Z M 75 1.488281 " clip-rule="nonzero"/></clipPath><clipPath id="b1cbfcd7ab"><path d="M 0.488281 0.488281 L 147.511719 0.488281 L 147.511719 147.511719 L 0.488281 147.511719 Z M 0.488281 0.488281 " clip-rule="nonzero"/></clipPath><clipPath id="e8d65a8ac0"><path d="M 74 0.488281 C 33.402344 0.488281 0.488281 33.402344 0.488281 74 C 0.488281 114.597656 33.402344 147.511719 74 147.511719 C 114.597656 147.511719 147.511719 114.597656 147.511719 74 C 147.511719 33.402344 114.597656 0.488281 74 0.488281 Z M 74 0.488281 " clip-rule="nonzero"/></clipPath><clipPath id="93b3e477c2"><rect x="0" width="148" y="0" height="148"/></clipPath><clipPath id="e2bf800bc5"><rect x="0" width="134" y="0" height="78"/></clipPath></defs><g clip-path="url(#404ffe5818)"><g clip-path="url(#d9935b59ef)"><g transform="matrix(1, 0, 0, 1, 1, 1)"><g clip-path="url(#93b3e477c2)"><g clip-path="url(#b1cbfcd7ab)"><g clip-path="url(#e8d65a8ac0)"><path fill="#3e6a70" d="M 0.488281 0.488281 L 147.511719 0.488281 L 147.511719 147.511719 L 0.488281 147.511719 Z M 0.488281 0.488281 " fill-opacity="1" fill-rule="nonzero"/></g></g></g></g></g></g><g transform="matrix(1, 0, 0, 1, 8, 36)"><g clip-path="url(#e2bf800bc5)"><g fill="#ffffff" fill-opacity="1"><g transform="translate(0.942795, 61.687839)"><g><path d="M 16.296875 -40.65625 L 1.203125 -40.65625 L 1.203125 -45.078125 L 36.09375 -45.078125 L 36.09375 -40.65625 L 21.078125 -40.65625 L 21.078125 0 L 16.296875 0 Z M 16.296875 -40.65625 "/></g></g></g><g fill="#ffffff" fill-opacity="1"><g transform="translate(35.595821, 61.687839)"><g><path d="M 25.5625 0.453125 C 22.457031 0.453125 19.550781 -0.09375 16.84375 -1.1875 C 14.132812 -2.28125 11.742188 -3.84375 9.671875 -5.875 C 7.597656 -7.90625 5.984375 -10.320312 4.828125 -13.125 C 3.679688 -15.925781 3.109375 -19.015625 3.109375 -22.390625 C 3.109375 -25.804688 3.703125 -28.9375 4.890625 -31.78125 C 6.078125 -34.625 7.71875 -37.070312 9.8125 -39.125 C 11.90625 -41.175781 14.320312 -42.757812 17.0625 -43.875 C 19.8125 -44.988281 22.722656 -45.546875 25.796875 -45.546875 C 29.484375 -45.546875 32.695312 -44.875 35.4375 -43.53125 C 38.1875 -42.1875 40.441406 -40.457031 42.203125 -38.34375 C 43.972656 -36.238281 45.203125 -34.03125 45.890625 -31.71875 L 41.625 -29.765625 C 41.007812 -31.609375 40.050781 -33.394531 38.75 -35.125 C 37.445312 -36.851562 35.726562 -38.269531 33.59375 -39.375 C 31.46875 -40.488281 28.832031 -41.046875 25.6875 -41.046875 C 23.300781 -41.046875 21.039062 -40.601562 18.90625 -39.71875 C 16.78125 -38.84375 14.898438 -37.585938 13.265625 -35.953125 C 11.640625 -34.328125 10.363281 -32.390625 9.4375 -30.140625 C 8.519531 -27.898438 8.0625 -25.414062 8.0625 -22.6875 C 8.0625 -19.113281 8.828125 -15.925781 10.359375 -13.125 C 11.898438 -10.320312 14.003906 -8.101562 16.671875 -6.46875 C 19.335938 -4.84375 22.359375 -4.03125 25.734375 -4.03125 C 29.878906 -4.03125 33.265625 -5.09375 35.890625 -7.21875 C 38.523438 -9.351562 40.457031 -12.09375 41.6875 -15.4375 L 45.953125 -13.421875 C 45.140625 -11.148438 43.84375 -8.945312 42.0625 -6.8125 C 40.28125 -4.6875 38.003906 -2.941406 35.234375 -1.578125 C 32.472656 -0.222656 29.25 0.453125 25.5625 0.453125 Z M 25.5625 0.453125 "/></g></g></g><g fill="#ffffff" fill-opacity="1"><g transform="translate(83.777115, 61.687839)"><g><path d="M 43.015625 0 L 37.9375 0 L 10.9375 -38.40625 L 10.9375 0 L 6.28125 0 L 6.28125 -45.078125 L 11.75 -45.078125 L 38.34375 -7.421875 L 38.34375 -45.078125 L 43.015625 -45.078125 Z M 43.015625 0 "/></g></g></g></g></g></svg>