<svg xmlns="http://www.w3.org/2000/svg" xmlns:xlink="http://www.w3.org/1999/xlink" width="200" zoomAndPan="magnify" viewBox="0 0 150 149.999998" height="200" preserveAspectRatio="xMidYMid meet" version="1.0"><defs><g/><clipPath id="a922961042"><path d="M 19.074219 16.710938 L 133.289062 16.710938 L 133.289062 130.925781 L 19.074219 130.925781 Z M 19.074219 16.710938 " clip-rule="nonzero"/></clipPath><clipPath id="ea5516cd82"><path d="M 76.179688 16.710938 C 44.640625 16.710938 19.074219 42.28125 19.074219 73.820312 C 19.074219 105.359375 44.640625 130.925781 76.179688 130.925781 C 107.71875 130.925781 133.289062 105.359375 133.289062 73.820312 C 133.289062 42.28125 107.71875 16.710938 76.179688 16.710938 Z M 76.179688 16.710938 " clip-rule="nonzero"/></clipPath><clipPath id="9f971d8618"><path d="M 0.0742188 0.710938 L 114.289062 0.710938 L 114.289062 114.925781 L 0.0742188 114.925781 Z M 0.0742188 0.710938 " clip-rule="nonzero"/></clipPath><clipPath id="59c1812873"><path d="M 57.179688 0.710938 C 25.640625 0.710938 0.0742188 26.28125 0.0742188 57.820312 C 0.0742188 89.359375 25.640625 114.925781 57.179688 114.925781 C 88.71875 114.925781 114.289062 89.359375 114.289062 57.820312 C 114.289062 26.28125 88.71875 0.710938 57.179688 0.710938 Z M 57.179688 0.710938 " clip-rule="nonzero"/></clipPath><clipPath id="2dba51fa8c"><rect x="0" width="115" y="0" height="115"/></clipPath></defs><g clip-path="url(#a922961042)"><g clip-path="url(#ea5516cd82)"><g transform="matrix(1, 0, 0, 1, 19, 16)"><g clip-path="url(#2dba51fa8c)"><g clip-path="url(#9f971d8618)"><g clip-path="url(#59c1812873)"><path fill="#3e6a70" d="M 0.0742188 0.710938 L 114.289062 0.710938 L 114.289062 114.925781 L 0.0742188 114.925781 Z M 0.0742188 0.710938 " fill-opacity="1" fill-rule="nonzero"/></g></g></g></g></g></g><g fill="#ffffff" fill-opacity="1"><g transform="translate(24.864696, 91.443894)"><g><path d="M 12.65625 -31.578125 L 0.9375 -31.578125 L 0.9375 -35.03125 L 28.046875 -35.03125 L 28.046875 -31.578125 L 16.375 -31.578125 L 16.375 0 L 12.65625 0 Z M 12.65625 -31.578125 "/></g></g></g><g fill="#ffffff" fill-opacity="1"><g transform="translate(51.784826, 91.443894)"><g><path d="M 19.859375 0.359375 C 17.441406 0.359375 15.179688 -0.0625 13.078125 -0.90625 C 10.984375 -1.757812 9.128906 -2.976562 7.515625 -4.5625 C 5.898438 -6.144531 4.644531 -8.023438 3.75 -10.203125 C 2.863281 -12.378906 2.421875 -14.78125 2.421875 -17.40625 C 2.421875 -20.0625 2.878906 -22.488281 3.796875 -24.6875 C 4.722656 -26.894531 6 -28.796875 7.625 -30.390625 C 9.25 -31.992188 11.128906 -33.226562 13.265625 -34.09375 C 15.398438 -34.957031 17.660156 -35.390625 20.046875 -35.390625 C 22.898438 -35.390625 25.394531 -34.863281 27.53125 -33.8125 C 29.664062 -32.769531 31.414062 -31.425781 32.78125 -29.78125 C 34.15625 -28.144531 35.113281 -26.4375 35.65625 -24.65625 L 32.34375 -23.125 C 31.863281 -24.5625 31.113281 -25.945312 30.09375 -27.28125 C 29.082031 -28.625 27.75 -29.726562 26.09375 -30.59375 C 24.445312 -31.457031 22.398438 -31.890625 19.953125 -31.890625 C 18.097656 -31.890625 16.34375 -31.546875 14.6875 -30.859375 C 13.039062 -30.179688 11.582031 -29.207031 10.3125 -27.9375 C 9.039062 -26.664062 8.046875 -25.15625 7.328125 -23.40625 C 6.617188 -21.664062 6.265625 -19.738281 6.265625 -17.625 C 6.265625 -14.851562 6.859375 -12.378906 8.046875 -10.203125 C 9.242188 -8.023438 10.878906 -6.300781 12.953125 -5.03125 C 15.023438 -3.757812 17.375 -3.125 20 -3.125 C 23.21875 -3.125 25.847656 -3.953125 27.890625 -5.609375 C 29.929688 -7.265625 31.429688 -9.390625 32.390625 -11.984375 L 35.703125 -10.421875 C 35.078125 -8.660156 34.066406 -6.953125 32.671875 -5.296875 C 31.285156 -3.640625 29.519531 -2.28125 27.375 -1.21875 C 25.226562 -0.164062 22.722656 0.359375 19.859375 0.359375 Z M 19.859375 0.359375 "/></g></g></g><g fill="#ffffff" fill-opacity="1"><g transform="translate(89.214363, 91.443894)"><g><path d="M 33.421875 0 L 29.484375 0 L 8.5 -29.84375 L 8.5 0 L 4.875 0 L 4.875 -35.03125 L 9.125 -35.03125 L 29.796875 -5.765625 L 29.796875 -35.03125 L 33.421875 -35.03125 Z M 33.421875 0 "/></g></g></g></svg>